<svg xmlns="http://www.w3.org/2000/svg" viewBox="0 0 500 500"><g id="freepik--Floor--inject-50"><ellipse id="freepik--floor--inject-50" cx="252.7" cy="373.72" rx="199.22" ry="115.43" style="fill:#fafafa"></ellipse></g><g id="freepik--Shadow--inject-50"><ellipse id="freepik--shadow--inject-50" cx="252.7" cy="436.79" rx="69.06" ry="40.01" style="fill:#e0e0e0"></ellipse></g><g id="freepik--Pictures--inject-50"><g id="freepik--Picture--inject-50"><g id="freepik--Post--inject-50"><g id="freepik--dark-window--inject-50"><path d="M31.33,143.73V86.92a1.63,1.63,0,0,1,.23-.77l-1-.56a1.51,1.51,0,0,0-.24.77v56.81a.53.53,0,0,0,.3.48h0l.92.52A.52.52,0,0,1,31.33,143.73Z" style="fill:#e0e0e0"></path><path d="M31.78,144.14l-.13,0-.1-.09-.07-.1,0-.17V86.92a1.11,1.11,0,0,1,0-.17s0-.16,0-.16l0-.11.05-.09a.76.76,0,0,1,.09-.18l.1-.16.17-.19a1,1,0,0,1,.23-.18L71,63.28l.11-.05.11,0h.16l.1.06.09.15,0,.13v56.9a.86.86,0,0,1-.05.3l0,.1,0,.11-.06.12-.07.13-.12.17a1.83,1.83,0,0,1-.35.32l-37.6,21.68L32,144.1l-.09,0h-.17Zm3.54-55.06v48.15l32.39-18.68V70.4Z" style="fill:#f5f5f5"></path><path d="M71.31,63.3h0l0,0h0l0,0h0v0h0l0,.09h0v56.92a1.47,1.47,0,0,1,0,.27l0,.08h0l0,.11,0,.1,0,.06,0,.07a.35.35,0,0,1,0,.08l-.06.08,0,.06a1.43,1.43,0,0,1-.27.23l-37.6,21.68L32,144l-.06,0h-.15l-.06,0h0l0,0h0l0,0v0l0,0v0l0-.05V86.92a.76.76,0,0,1,0-.15.29.29,0,0,1,0-.09h0l0-.07,0-.09,0-.09a.83.83,0,0,1,.07-.13l0,0s.06-.11.11-.18l.05-.06h0l0,0h0l.06-.06a.62.62,0,0,1,.19-.14L71,63.41l0,0,.08,0h.16m-36.1,74.13.34-.2,32.16-18.55.11-.06V70.2l-.34.2-.83.48L35.32,89l-.11.07v48.41m36.1-74.35h-.13s-.05,0-.07,0h0l-.13.06h0L32.1,85.58a1.81,1.81,0,0,0-.23.18l-.07.07-.05.06,0,0-.06.06a1.63,1.63,0,0,0-.11.17h0a1.62,1.62,0,0,0-.1.18s0,0,0,0l0,.08h0s0,0,0,.06v0h0a.8.8,0,0,0,0,.15.65.65,0,0,0,0,.19v56.81a.49.49,0,0,0,0,.12.06.06,0,0,1,0,0,.14.14,0,0,1,0,.06h0l0,0a.08.08,0,0,0,0,0,.08.08,0,0,0,0,0h0l0,0,0,0h0l.07,0,.1,0,.07,0h.08l.13,0a.31.31,0,0,0,.12-.05l1.27-.72L71,121.78a1.19,1.19,0,0,0,.33-.27l.06-.08.07-.08.06-.09a.41.41,0,0,0,0-.09l0-.1a879157700429.24,879157700429.24,0,0,0,.08-.2l0-.1h0a1.26,1.26,0,0,0,0-.33V63.53a.15.15,0,0,0,0-.07v0a.13.13,0,0,0,0-.06.31.31,0,0,0,0-.1.05.05,0,0,0,0,0s0,0,0,0a.12.12,0,0,0,0-.05h0l-.07,0h0l0,0ZM35.44,137V89.15L66.76,71.08l.84-.49v47.9L35.44,137Z" style="fill:#e0e0e0"></path><polygon points="66.76 71.08 66.76 118 35.44 136.07 35.44 89.15 66.76 71.08" style="fill:#fff"></polygon><path d="M66.53,71.47v46.4L35.66,135.68V89.28L66.53,71.47m.23-.39L35.44,89.15v46.92L66.76,118V71.08Z" style="fill:#e0e0e0"></path><path d="M32,144.24l3.46-7.2L31.37,144h0a.54.54,0,0,0,.49.31Z" style="fill:#e0e0e0"></path><path d="M31.38,86.57l4.06,2.58-3.69-3.26A1.74,1.74,0,0,0,31.38,86.57Z" style="fill:#e0e0e0"></path><path d="M71.74,63.63s0-.07,0-.1a.15.15,0,0,0,0-.07v0s0,0,0-.07a.41.41,0,0,0,0-.09.05.05,0,0,0,0,0l0,0a.12.12,0,0,0,0-.05h0l-.07,0a.47.47,0,0,0-.17,0,.6.6,0,0,0-.22,0L67.6,70.59Z" style="fill:#e0e0e0"></path><path d="M71.69,120.78l-4.09-2.29h0l3.69,3A1.87,1.87,0,0,0,71.69,120.78Z" style="fill:#e0e0e0"></path><path d="M71,63.18,32.1,85.58a1.6,1.6,0,0,0-.54.58l-1-.57a1.63,1.63,0,0,1,.53-.57L70,62.62a.54.54,0,0,1,.57,0l.94.53A.59.59,0,0,0,71,63.18Z" style="fill:#f0f0f0"></path><polygon points="67.6 118.48 35.44 137.04 35.44 136.07 66.76 118 67.6 118.48" style="fill:#f0f0f0"></polygon><polygon points="67.6 70.59 67.6 118.48 66.76 118 66.76 71.08 67.6 70.59" style="fill:#e0e0e0"></polygon></g></g><path id="freepik--team-icon--inject-50" d="M51.1,101.87c3.59-2.08,6.5-7.64,6.5-12.43s-2.91-7-6.5-4.91S44.59,92.16,44.59,97,47.51,103.94,51.1,101.87Zm11.28,4.4c-.66-3.74-3.39-5.1-6.55-3.28l-9.47,5.47c-3.16,1.82-5.89,6.34-6.55,10.84l-1.16,7.92c-.23,1.57.6,2.45,1.7,1.81l21.5-12.41a4.11,4.11,0,0,0,1.69-3.77Z" style="fill:#e0e0e0"></path><path d="M60.9,143.24l-19.12,11-1.22-.93v-6L41.78,145l19.12-11,1.23.93v6Z" style="fill:#f0f0f0"></path></g><g id="freepik--picture--inject-50"><g id="freepik--post--inject-50"><g id="freepik--dark-window--inject-50"><path d="M31.33,234.83V178a1.63,1.63,0,0,1,.23-.77l-1-.56a1.51,1.51,0,0,0-.24.77v56.82a.53.53,0,0,0,.3.47h0l.92.52A.51.51,0,0,1,31.33,234.83Z" style="fill:#e0e0e0"></path><path d="M31.78,235.24l-.13-.05-.09-.08-.07-.08,0-.1,0-.1V178a1.11,1.11,0,0,1,0-.17l.06-.27.05-.09a.76.76,0,0,1,.09-.18l.1-.16.17-.19a1.47,1.47,0,0,1,.23-.18L71,154.38l.11,0,.06,0,.12,0,.11,0,.09.06.08.14,0,.13v56.9a.86.86,0,0,1-.05.3l0,.11,0,.11-.05.1-.08.14-.12.17a1.54,1.54,0,0,1-.35.32l-37.6,21.68L32,235.2l-.09,0h-.17Zm3.54-55.06v48.15l32.39-18.68V161.5Z" style="fill:#f5f5f5"></path><path d="M71.31,154.4h0l0,0h0l0,0h0v0h0l0,.09h0v56.93a1.51,1.51,0,0,1,0,.26l0,.09h0l0,.11,0,.06,0,.05,0,0,0,.07a.35.35,0,0,1,0,.08l-.06.08,0,.06a1.14,1.14,0,0,1-.27.23l-37.6,21.68L32,235.1l-.06,0h-.15l-.06,0h0l0,0h0l0,0v0l0,0v0l0-.05V178a.76.76,0,0,1,0-.15.29.29,0,0,1,0-.09h0l0-.07,0-.09,0-.09.07-.13,0,0c0-.05.06-.11.11-.18l.05-.06h0l0,0h0L32,177a.62.62,0,0,1,.19-.14L71,154.51l0,0,.09,0h.07l0,0h0m-36.1,74.13.34-.2,32.16-18.55.11-.06V161.3l-.34.2-.83.48L35.32,180.05l-.11.07v48.41m36.1-74.35h-.13s-.05,0-.07,0h0l-.13.06h0L32.1,176.68a1.81,1.81,0,0,0-.23.18l-.07.07-.05.06,0,0-.06.06-.11.17h0a1.62,1.62,0,0,0-.1.18s0,0,0,.05l0,.08h0s0,0,0,.06,0,0,0,0h0a.8.8,0,0,0,0,.15.65.65,0,0,0,0,.19v56.81a.49.49,0,0,0,0,.12.06.06,0,0,1,0,0,.14.14,0,0,1,0,.06h0l0,0a.05.05,0,0,0,0,0,.08.08,0,0,0,0,0h0l0,0,0,0h0l.07,0,.1,0,.07,0h.08l.13,0,.12,0,1.27-.73L71,212.88a1.19,1.19,0,0,0,.33-.27l.06-.07.07-.09.06-.09a.41.41,0,0,0,0-.09l0-.1a879157700429.65,879157700429.65,0,0,0,.08-.2l0-.09h0a1.25,1.25,0,0,0,0-.32V154.63a.17.17,0,0,0,0-.07v0a.13.13,0,0,0,0-.06.31.31,0,0,0,0-.1.05.05,0,0,0,0,0l0,0a.12.12,0,0,0,0-.05h0l-.07,0h0l0,0Zm-35.87,74V180.25l31.32-18.07.84-.49v47.9L35.44,228.14Z" style="fill:#e0e0e0"></path><polygon points="66.76 162.18 66.76 209.1 35.44 227.17 35.44 180.25 66.76 162.18" style="fill:#fff"></polygon><path d="M66.53,162.57V209L35.66,226.78v-46.4l30.87-17.81m.23-.39L35.44,180.25v46.92L66.76,209.1V162.18Z" style="fill:#e0e0e0"></path><path d="M32,235.34l3.46-7.2-4.07,6.91h0a.54.54,0,0,0,.49.31Z" style="fill:#e0e0e0"></path><path d="M31.38,177.67l4.06,2.58L31.75,177A1.81,1.81,0,0,0,31.38,177.67Z" style="fill:#e0e0e0"></path><path d="M71.74,154.73s0-.07,0-.1a.17.17,0,0,0,0-.07v0s0,0,0-.06a.31.31,0,0,0,0-.1.05.05,0,0,0,0,0l0,0a.12.12,0,0,0,0-.05h0l-.07,0a.47.47,0,0,0-.17,0,.6.6,0,0,0-.22,0l-3.49,7.47Z" style="fill:#e0e0e0"></path><path d="M71.69,211.88l-4.09-2.29h0l3.69,3A1.87,1.87,0,0,0,71.69,211.88Z" style="fill:#e0e0e0"></path><path d="M71,154.28,32.1,176.68a1.68,1.68,0,0,0-.54.58l-1-.57a1.63,1.63,0,0,1,.53-.57L70,153.72a.54.54,0,0,1,.57,0c.13.08.78.45.94.53A.59.59,0,0,0,71,154.28Z" style="fill:#f0f0f0"></path><polygon points="67.6 209.59 35.44 228.14 35.44 227.17 66.76 209.1 67.6 209.59" style="fill:#f0f0f0"></polygon><polygon points="67.6 161.69 67.6 209.59 66.76 209.1 66.76 162.18 67.6 161.69" style="fill:#e0e0e0"></polygon></g></g><path id="freepik--team-icon--inject-50" d="M51.1,193c3.59-2.08,6.5-7.64,6.5-12.43s-2.91-7-6.5-4.91-6.51,7.63-6.51,12.42S47.51,195,51.1,193Zm11.28,4.4c-.66-3.74-3.39-5.1-6.55-3.28l-9.47,5.47c-3.16,1.82-5.89,6.34-6.55,10.84l-1.16,7.92c-.23,1.57.6,2.45,1.7,1.81l21.5-12.41A4.11,4.11,0,0,0,63.54,204Z" style="fill:#e0e0e0"></path><path d="M60.9,234.34l-19.12,11-1.22-.93v-6l1.22-2.34L60.9,225l1.23.93v6Z" style="fill:#f0f0f0"></path></g><g id="freepik--picture--inject-50"><g id="freepik--post--inject-50"><g id="freepik--dark-window--inject-50"><path d="M88.18,110.11V53.3a1.6,1.6,0,0,1,.23-.77l-1-.57a1.68,1.68,0,0,0-.24.78v56.81a.51.51,0,0,0,.3.47l0,0,.92.52A.52.52,0,0,1,88.18,110.11Z" style="fill:#e0e0e0"></path><path d="M88.64,110.51l-.14-.05-.09-.06-.07-.09,0-.1,0-.1V53.3a.88.88,0,0,1,0-.17c0-.05.07-.27.07-.27l0-.1s.06-.11.09-.17a.91.91,0,0,1,.11-.16l.16-.19a1.63,1.63,0,0,1,.23-.19l38.86-22.39.11-.05.06,0,.12,0,.11,0,.09.05.08.15,0,.13v56.9a1.18,1.18,0,0,1,0,.3l0,.11,0,.1-.05.11-.08.14-.12.16a1.36,1.36,0,0,1-.35.32l-37.6,21.69-1.27.72-.09,0h-.16Zm3.54-55v48.15l32.38-18.68V36.77Z" style="fill:#f5f5f5"></path><path d="M128.16,29.68h.05l0,0h0l0,0h0l0,0v0l0,.07h0V86.82a1,1,0,0,1,0,.27l0,.08h0l0,.1,0,.07,0,.09a.59.59,0,0,1,0,.08l-.06.07-.06.09-.05.06a.93.93,0,0,1-.27.22L90.1,109.65l-1.26.72-.06,0h-.15l0,0h0l0,0h0l0,0v0l0,0v0l0,0V53.3a.76.76,0,0,1,0-.15.29.29,0,0,1,0-.09h0l0-.07v0h0v0l0-.08.06-.12,0,0a1.1,1.1,0,0,1,.12-.17l0-.06h0l0,0h0l.06-.05a1.25,1.25,0,0,1,.19-.15l38.8-22.37h0l0,0,.08,0h0l0,0h.09m-36.1,74.13.34-.2,32.16-18.55.12-.07V36.58l-.34.19-.84.49L92.18,55.33l-.12.06v48.42m36.1-74.36H128l-.08,0h0l-.12.06h0L89,52a1.63,1.63,0,0,0-.22.17.46.46,0,0,0-.07.07l-.06.06,0,0-.06.07s-.07.11-.11.17h0l-.1.19v0a.36.36,0,0,1,0,.09h0l0,0s0,0,0,0h0l0,.16a1.23,1.23,0,0,0,0,.19v56.81s0,.08,0,.12,0,0,0,0,0,0,0,0h0s0,0,0,0,0,0,0,0l0,0h0l0,0h0s0,0,0,0h0l.07,0a.22.22,0,0,0,.11,0l.06,0h.21l.12-.05,1.27-.72,37.6-21.69a1.58,1.58,0,0,0,.32-.27l.06-.08.07-.09.06-.08a.47.47,0,0,0,0-.1l.05-.09a2197894251073.51,2197894251073.51,0,0,1,.08-.2l0-.1h0a1.26,1.26,0,0,0,.05-.33V30a.28.28,0,0,0,0-.09.15.15,0,0,0,0-.07v0s0-.05,0-.07a.47.47,0,0,0-.05-.1l0,0s0,0,0,0a.11.11,0,0,0,0-.05h0l-.07,0h0l-.05,0-.12,0Zm-35.87,74V55.52l31.32-18.07.84-.48V84.86L92.29,103.41Z" style="fill:#e0e0e0"></path><polygon points="123.61 37.45 123.61 84.38 92.29 102.45 92.29 55.52 123.61 37.45" style="fill:#fff"></polygon><path d="M123.38,37.85v46.4L92.52,102.06V55.65l30.86-17.8m.23-.4L92.29,55.52v46.93l31.32-18.07V37.45Z" style="fill:#e0e0e0"></path><path d="M88.83,110.62l3.46-7.2-4.06,6.9h0a.52.52,0,0,0,.48.31Z" style="fill:#e0e0e0"></path><path d="M88.23,53l4.06,2.57L88.6,52.26A2,2,0,0,0,88.23,53Z" style="fill:#e0e0e0"></path><path d="M128.59,30a.28.28,0,0,0,0-.09.15.15,0,0,0,0-.07v0a.64.64,0,0,0,0-.07.47.47,0,0,0-.05-.1l0,0s0,0,0,0l0,0h0l-.07,0a.47.47,0,0,0-.17,0,.63.63,0,0,0-.22.05L124.45,37Z" style="fill:#e0e0e0"></path><path d="M128.54,87.15l-4.09-2.29h0l3.69,3A1.91,1.91,0,0,0,128.54,87.15Z" style="fill:#e0e0e0"></path><path d="M127.81,29.56,89,52a1.56,1.56,0,0,0-.54.57l-1-.57A1.61,1.61,0,0,1,88,51.4L126.83,29a.55.55,0,0,1,.56-.05l.94.54A.54.54,0,0,0,127.81,29.56Z" style="fill:#f0f0f0"></path><polygon points="124.45 84.86 92.29 103.42 92.29 102.45 123.61 84.38 124.45 84.86" style="fill:#f0f0f0"></polygon><polygon points="124.45 36.97 124.45 84.86 123.61 84.38 123.61 37.45 124.45 36.97" style="fill:#e0e0e0"></polygon></g></g><path id="freepik--team-icon--inject-50" d="M108,68.24c3.59-2.07,6.5-7.63,6.5-12.42s-2.91-7-6.5-4.92-6.5,7.64-6.5,12.43S104.36,70.32,108,68.24Zm11.28,4.41c-.66-3.74-3.39-5.11-6.54-3.28l-9.48,5.47c-3.16,1.82-5.89,6.34-6.54,10.84l-1.16,7.91c-.23,1.57.59,2.45,1.69,1.82L118.7,83a4.11,4.11,0,0,0,1.69-3.77Z" style="fill:#e0e0e0"></path><path d="M117.76,109.62l-19.13,11-1.22-.93v-6c.48-.91.74-1.43,1.22-2.34l19.13-11,1.22.93v6C118.5,108.19,118.23,108.7,117.76,109.62Z" style="fill:#f0f0f0"></path></g><g id="freepik--picture--inject-50"><g id="freepik--post--inject-50"><g id="freepik--dark-window--inject-50"><path d="M468.67,143.73V86.92a1.63,1.63,0,0,0-.23-.77l1-.56a1.51,1.51,0,0,1,.24.77v56.81a.53.53,0,0,1-.3.48h0l-.92.52A.52.52,0,0,0,468.67,143.73Z" style="fill:#e0e0e0"></path><path d="M468.15,144.14h-.1l-.09,0-1.27-.73-37.6-21.69a1.28,1.28,0,0,1-.29-.24l-.13-.16-.05-.09-.1-.17-.07-.18.08,0-.1-.06a.86.86,0,0,1-.05-.3V63.5l0,0h0l0-.12,0,0,.09-.1h.24l.18.08,38.86,22.4a1,1,0,0,1,.21.16l.08.08.08.1.13.19a.76.76,0,0,1,.09.18l.1.25s0,.06,0,.11a1,1,0,0,1,0,.17v56.82l0,.09v0l0,.09-.07.08-.09.06-.09,0Zm-35.86-25.59,32.39,18.68V89.08L432.29,70.4Z" style="fill:#f5f5f5"></path><path d="M428.69,63.3h.16l.08,0h0l38.83,22.38a1,1,0,0,1,.21.17l.07.07,0,0h0l.19-.12-.14.18s.06.1.09.15l0,0,.08.17,0,.05h0l0,0,0,0h0v.07h0a.29.29,0,0,1,0,.09.76.76,0,0,1,0,.15v56.87l0,.05h0v0l0,0v0l0,0h0l0,0,0,0-.05,0h0l-.09,0h-.07l-.07,0-1.26-.73-37.6-21.68a1.43,1.43,0,0,1-.27-.23l-.05-.06-.06-.08-.06-.09a.43.43,0,0,1,0-.07l-.05-.09,0-.08,0-.07,0-.11a1.47,1.47,0,0,1,0-.27V63.54l.05-.11h0v0l0,0h.06l0,0h0m36.1,74.13V89l-.11-.07L433.35,70.88l-.83-.48-.34-.2v48.42l.11.06,32.16,18.55.34.2m-36.1-74.35h-.12l0,0h0l-.07,0h0l-.05.05,0,0a.05.05,0,0,0,0,0,.31.31,0,0,0-.05.1.13.13,0,0,0,0,.06v0a.15.15,0,0,0,0,.07v56.91a1.26,1.26,0,0,0,.05.33h0l0,.1a1,1,0,0,0,0,.1,1,1,0,0,0,0,.1l.05.1a.41.41,0,0,0,0,.09l.06.09.07.08.06.08a1.19,1.19,0,0,0,.33.27l37.59,21.69,1.27.72a.31.31,0,0,0,.12.05l.13,0h.08l.07,0,.1,0,.07,0h0l0,0,0,0h0a.08.08,0,0,0,0,0l0,0,0,0h0a.14.14,0,0,1,0-.06.06.06,0,0,1,0,0,.49.49,0,0,0,0-.12V86.92a.65.65,0,0,0,0-.19.8.8,0,0,0,0-.15h0v0s0,0,0-.06h0l0-.08s0,0,0,0a1.62,1.62,0,0,0-.1-.18h0a1.63,1.63,0,0,0-.11-.17l-.06-.06,0,0-.05-.06-.07-.07a1.81,1.81,0,0,0-.23-.18L429,63.18h0l-.13-.06h0s-.05,0-.07,0h-.13Zm35.87,74L432.4,118.49V70.59l.84.49,31.32,18.07V137Z" style="fill:#e0e0e0"></path><polygon points="433.24 71.08 433.24 118 464.56 136.07 464.56 89.15 433.24 71.08" style="fill:#fff"></polygon><path d="M433.47,71.47l30.87,17.81v46.4l-30.87-17.81V71.47m-.23-.39V118l31.32,18.07V89.15L433.24,71.08Z" style="fill:#e0e0e0"></path><path d="M468,144.24l-3.46-7.2,4.07,6.91h0a.54.54,0,0,1-.49.31Z" style="fill:#e0e0e0"></path><path d="M468.62,86.57l-4.06,2.58,3.69-3.26A1.74,1.74,0,0,1,468.62,86.57Z" style="fill:#e0e0e0"></path><path d="M428.26,63.63s0-.07,0-.1a.15.15,0,0,1,0-.07v0s0,0,0-.07a.41.41,0,0,1,.05-.09.05.05,0,0,1,0,0l0,0,.05-.05h0l.07,0a.47.47,0,0,1,.17,0,.6.6,0,0,1,.22,0l3.49,7.47Z" style="fill:#e0e0e0"></path><path d="M428.31,120.78l4.09-2.29h0l-3.69,3A1.87,1.87,0,0,1,428.31,120.78Z" style="fill:#e0e0e0"></path><path d="M429,63.18l38.86,22.4a1.6,1.6,0,0,1,.54.58l1-.57a1.63,1.63,0,0,0-.53-.57L430,62.62a.54.54,0,0,0-.57,0l-.94.53A.59.59,0,0,1,429,63.18Z" style="fill:#f0f0f0"></path><polygon points="432.4 118.48 464.56 137.04 464.56 136.07 433.24 118 432.4 118.48" style="fill:#f0f0f0"></polygon><polygon points="432.4 70.59 432.4 118.48 433.24 118 433.24 71.08 432.4 70.59" style="fill:#e0e0e0"></polygon></g></g><path id="freepik--team-icon--inject-50" d="M455.41,97c0-4.79-2.92-10.35-6.51-12.42s-6.5.12-6.5,4.91,2.91,10.35,6.5,12.43S455.41,101.74,455.41,97Zm-19,15.9a4.11,4.11,0,0,0,1.69,3.77L459.65,129c1.1.64,1.93-.24,1.7-1.81l-1.16-7.92c-.66-4.5-3.39-9-6.55-10.84L444.17,103c-3.16-1.82-5.89-.46-6.55,3.28Z" style="fill:#e0e0e0"></path><path d="M439.1,143.24l19.12,11,1.22-.93v-6L458.22,145l-19.12-11-1.23.93v6Z" style="fill:#f0f0f0"></path></g><g id="freepik--picture--inject-50"><g id="freepik--post--inject-50"><g id="freepik--dark-window--inject-50"><path d="M468.67,234.83V178a1.63,1.63,0,0,0-.23-.77l1-.56a1.51,1.51,0,0,1,.24.77v56.82a.53.53,0,0,1-.3.47h0l-.92.52A.51.51,0,0,0,468.67,234.83Z" style="fill:#e0e0e0"></path><path d="M468.15,235.24h-.1a.32.32,0,0,1-.09,0l-1.27-.73-37.6-21.68a1.68,1.68,0,0,1-.29-.25l-.13-.16-.05-.09-.09-.15,0-.11-.1-.06.06-.05v-.08a.86.86,0,0,1-.05-.3V154.6l0,0h0l0-.12,0,0,.09-.1h.23l.08,0,.11,0,38.86,22.4a1.46,1.46,0,0,1,.21.16l.08.08.08.1.13.19a.76.76,0,0,1,.09.18l.08.2c0,.07,0,.11,0,.16a1.11,1.11,0,0,1,0,.17v56.82l0,.09,0,.1-.07.1-.09.06-.09,0Zm-35.86-25.59,32.39,18.68V180.18L432.29,161.5Z" style="fill:#f5f5f5"></path><path d="M428.69,154.4h.16l.08,0h0l38.83,22.39a.69.69,0,0,1,.21.16l.07.07,0,0h0l.19-.12-.14.18s.06.1.09.15l0,0,.08.17,0,.05h0l0,0,0,.05h0v.07h0a.29.29,0,0,1,0,.09.76.76,0,0,1,0,.15v56.87l0,.05h0v0l0,0v0l0,0h0l0,0,0,0-.05,0h0l-.09,0h-.07l-.07,0-1.26-.73-37.6-21.68a1.14,1.14,0,0,1-.27-.23l-.05-.06-.06-.08-.06-.09,0-.06,0,0,0-.05,0-.08,0-.07,0-.11a1.51,1.51,0,0,1,0-.26V154.64l.05-.11h0v0l0,0h.06l0,0h0m36.1,74.13V180.12l-.11-.07L433.35,162l-.83-.48-.34-.2v48.42l.11.06,32.16,18.55.34.2m-36.1-74.35h-.12l0,0h0l-.07,0h0l-.05.05,0,0a.05.05,0,0,0,0,0,.31.31,0,0,0-.05.1.13.13,0,0,0,0,.06v0a.17.17,0,0,0,0,.07v56.92a1.25,1.25,0,0,0,.05.32h0l0,.09a1,1,0,0,0,0,.1,1,1,0,0,0,0,.1l.05.1a.41.41,0,0,0,0,.09l.06.09.07.09.06.07a1.19,1.19,0,0,0,.33.27l37.59,21.69,1.27.73.12,0,.13,0h.08l.07,0,.1,0,.07,0h0l0,0,0,0h0a.08.08,0,0,0,0,0,.05.05,0,0,0,0,0l0,0h0a.14.14,0,0,1,0-.06.06.06,0,0,1,0,0,.49.49,0,0,0,0-.12V178a.65.65,0,0,0,0-.19.8.8,0,0,0,0-.15h0s0,0,0,0,0,0,0-.06h0l0-.08s0,0,0-.05a1.62,1.62,0,0,0-.1-.18h0l-.11-.17-.06-.06,0,0-.05-.06-.07-.07a1.81,1.81,0,0,0-.23-.18L429,154.28h0l-.13-.06h0s-.05,0-.07,0h-.13Zm35.87,74L432.4,209.59v-47.9l.84.49,31.32,18.07v47.89Z" style="fill:#e0e0e0"></path><polygon points="433.24 162.18 433.24 209.1 464.56 227.17 464.56 180.25 433.24 162.18" style="fill:#fff"></polygon><path d="M433.47,162.57l30.87,17.81v46.4L433.47,209v-46.4m-.23-.39V209.1l31.32,18.07V180.25l-31.32-18.07Z" style="fill:#e0e0e0"></path><path d="M468,235.34l-3.46-7.2,4.07,6.91h0a.54.54,0,0,1-.49.31Z" style="fill:#e0e0e0"></path><path d="M468.62,177.67l-4.06,2.58,3.69-3.26A1.81,1.81,0,0,1,468.62,177.67Z" style="fill:#e0e0e0"></path><path d="M428.26,154.73s0-.07,0-.1a.17.17,0,0,1,0-.07v0s0,0,0-.06a.31.31,0,0,1,.05-.1.05.05,0,0,1,0,0l0,0,.05-.05h0l.07,0a.47.47,0,0,1,.17,0,.6.6,0,0,1,.22,0l3.49,7.47Z" style="fill:#e0e0e0"></path><path d="M428.31,211.88l4.09-2.29h0l-3.69,3A1.87,1.87,0,0,1,428.31,211.88Z" style="fill:#e0e0e0"></path><path d="M429,154.28l38.86,22.4a1.68,1.68,0,0,1,.54.58l1-.57a1.63,1.63,0,0,0-.53-.57L430,153.72a.54.54,0,0,0-.57,0c-.13.08-.78.45-.94.53A.59.59,0,0,1,429,154.28Z" style="fill:#f0f0f0"></path><polygon points="432.4 209.59 464.56 228.14 464.56 227.17 433.24 209.1 432.4 209.59" style="fill:#f0f0f0"></polygon><polygon points="432.4 161.69 432.4 209.59 433.24 209.1 433.24 162.18 432.4 161.69" style="fill:#e0e0e0"></polygon></g></g><path id="freepik--team-icon--inject-50" d="M455.41,188.05c0-4.79-2.92-10.35-6.51-12.42s-6.5.13-6.5,4.91,2.91,10.35,6.5,12.43S455.41,192.84,455.41,188.05Zm-19,15.9a4.11,4.11,0,0,0,1.69,3.77l21.5,12.41c1.1.64,1.93-.24,1.7-1.81l-1.16-7.92c-.66-4.5-3.39-9-6.55-10.84l-9.47-5.47c-3.16-1.82-5.89-.46-6.55,3.28Z" style="fill:#e0e0e0"></path><path d="M439.1,234.34l19.12,11,1.22-.93v-6l-1.22-2.34L439.1,225l-1.23.93v6Z" style="fill:#f0f0f0"></path></g><g id="freepik--picture--inject-50"><g id="freepik--post--inject-50"><g id="freepik--dark-window--inject-50"><path d="M411.82,110.11V53.3a1.6,1.6,0,0,0-.23-.77l1-.57a1.68,1.68,0,0,1,.24.78v56.81a.51.51,0,0,1-.3.47l0,0-.92.52A.52.52,0,0,0,411.82,110.11Z" style="fill:#e0e0e0"></path><path d="M411.29,110.52h-.09a.19.19,0,0,1-.09,0l-1.27-.72-37.6-21.69a1.13,1.13,0,0,1-.29-.25l-.13-.15-.05-.08-.09-.16-.05-.11-.11-.06.07,0,0-.08a1.18,1.18,0,0,1,0-.3V29.88l0-.06h0l0-.11,0,0,.08-.11h.24l.08,0,.11.05L411,52.06a1.37,1.37,0,0,1,.21.15l.07.08.09.1a2.12,2.12,0,0,1,.13.2c0,.06.07.12.09.17l.07.21a1.24,1.24,0,0,1,0,.16.88.88,0,0,1,0,.17v56.91l0,.11-.06.09-.1,0-.08,0ZM375.44,84.93l32.38,18.68V55.46L375.44,36.77Z" style="fill:#f5f5f5"></path><path d="M371.84,29.68h.08l.05,0h0l.08,0h0l38.83,22.38a1.3,1.3,0,0,1,.21.17l.07.07,0,0h0l.19-.12-.15.17.1.15,0,0,.08.17,0,0h0l0,0V53h0l0,.07h0a.29.29,0,0,1,0,.09.76.76,0,0,1,0,.15v56.87l0,0h0v0h0l0,0h0l0,0-.05,0h-.17l-.07,0-1.26-.73L372.3,88a1.18,1.18,0,0,1-.27-.23.18.18,0,0,1,0-.07l-.06-.07-.06-.09a.25.25,0,0,1,0-.07l-.05-.09,0-.08,0-.08,0-.1a1,1,0,0,1,0-.27V29.92l.05-.11h0v0l0,0h.05l0,0h0m36.1,74.13V55.39l-.12-.06L376.5,37.26l-.84-.49-.34-.19V85l.12.07,32.16,18.55.34.2m-36.1-74.36-.12,0-.05,0h0l-.07,0h0a.11.11,0,0,0,0,.05s0,0,0,0l0,0a.47.47,0,0,0-.05.1s0,.05,0,.07v0a.15.15,0,0,0,0,.07.28.28,0,0,0,0,.09V86.82a1.26,1.26,0,0,0,0,.33h0l0,.1a244210472341.46,244210472341.46,0,0,0,.08.2l.05.09a.47.47,0,0,0,.05.1l.06.08.07.09.06.08a1.58,1.58,0,0,0,.32.27l37.6,21.69,1.27.72.12.05h.21l.06,0a.22.22,0,0,0,.11,0l.07,0h0s0,0,0,0h0l0,0h0l0,0s0,0,0,0,0,0,0,0h0s0,0,0,0,0,0,0,0,0-.08,0-.12V53.3a1.23,1.23,0,0,0,0-.19l0-.16h0s0,0,0,0l0,0h0a.36.36,0,0,1,0-.09v0l-.1-.19h0c0-.06-.07-.12-.11-.17l-.06-.07,0,0-.06-.06a.46.46,0,0,0-.07-.07,1.63,1.63,0,0,0-.22-.17l-38.86-22.4h0a.34.34,0,0,0-.12-.06h0l-.08,0h-.12Zm35.87,74L375.55,84.86V37l.84.48,31.32,18.07v47.89Z" style="fill:#e0e0e0"></path><polygon points="376.39 37.45 376.39 84.38 407.71 102.45 407.71 55.52 376.39 37.45" style="fill:#fff"></polygon><path d="M376.62,37.85l30.86,17.8v46.41L376.62,84.25V37.85m-.23-.4V84.38l31.32,18.07V55.52L376.39,37.45Z" style="fill:#e0e0e0"></path><path d="M411.17,110.62l-3.46-7.2,4.06,6.9h0a.52.52,0,0,1-.48.31Z" style="fill:#e0e0e0"></path><path d="M411.77,53l-4.06,2.57,3.69-3.26A2,2,0,0,1,411.77,53Z" style="fill:#e0e0e0"></path><path d="M371.41,30a.28.28,0,0,1,0-.09.15.15,0,0,1,0-.07v0a.64.64,0,0,1,0-.07.47.47,0,0,1,.05-.1l0,0s0,0,0,0l0,0h0l.07,0a.47.47,0,0,1,.17,0,.63.63,0,0,1,.22.05L375.55,37Z" style="fill:#e0e0e0"></path><path d="M371.46,87.15l4.09-2.29h0l-3.69,3A1.91,1.91,0,0,1,371.46,87.15Z" style="fill:#e0e0e0"></path><path d="M372.19,29.56,411.05,52a1.56,1.56,0,0,1,.54.57l1-.57a1.61,1.61,0,0,0-.54-.56L373.17,29a.55.55,0,0,0-.56-.05l-.94.54A.54.54,0,0,1,372.19,29.56Z" style="fill:#f0f0f0"></path><polygon points="375.55 84.86 407.71 103.42 407.71 102.45 376.39 84.38 375.55 84.86" style="fill:#f0f0f0"></polygon><polygon points="375.55 36.97 375.55 84.86 376.39 84.38 376.39 37.45 375.55 36.97" style="fill:#e0e0e0"></polygon></g></g><path id="freepik--team-icon--inject-50" d="M398.55,63.33c0-4.79-2.91-10.35-6.5-12.43s-6.5.13-6.5,4.92,2.91,10.35,6.5,12.42S398.55,68.12,398.55,63.33Zm-18.94,15.9A4.11,4.11,0,0,0,381.3,83l21.5,12.41c1.1.63,1.92-.25,1.69-1.82l-1.16-7.91c-.65-4.5-3.38-9-6.54-10.84l-9.48-5.47c-3.15-1.83-5.88-.46-6.54,3.28Z" style="fill:#e0e0e0"></path><path d="M382.24,109.62l19.13,11,1.22-.93v-6c-.48-.91-.74-1.43-1.22-2.34l-19.13-11-1.22.93v6C381.5,108.19,381.77,108.7,382.24,109.62Z" style="fill:#f0f0f0"></path></g></g><g id="freepik--Plants--inject-50"><g id="freepik--Leaves--inject-50"><path d="M465,315.29c-7.91,7.52-14.33,7.44-14.33,7.44a0,0,0,0,1,0,0C457.65,312.49,467.08,315.29,465,315.29Z" style="fill:#e0e0e0"></path><path d="M445.29,325a151.54,151.54,0,0,1-56.44,61.34,165.14,165.14,0,0,1-25,12.26,49.25,49.25,0,0,1-6.72,2.4l-6.86,2.14c-4.59,1.4-9.37,2.16-14,3.27-4.76.72-9.55,1.35-14.31,1.86l-1.41.06,1,1.7.58,0c4.81-.54,9.65-1.2,14.45-2,4.73-1.15,9.56-1.94,14.19-3.38l6.92-2.19A51.62,51.62,0,0,0,364.4,400a165.57,165.57,0,0,0,25.15-12.51,152.71,152.71,0,0,0,56.54-62.09c1.85-3.83,3.24-6.86,4.08-9s1.34-3.23,1.34-3.23l-.77-.3-1.35,3.2C448.55,318.22,447.15,321.24,445.29,325Z" style="fill:#e0e0e0"></path><path d="M452.48,309.4c-1.93-10.74,4.09-15.61,4.09-15.61a0,0,0,0,1,0,0C460.42,304.78,452.48,309.4,452.48,309.4Z" style="fill:#e0e0e0"></path><path d="M329.85,405.89c2.27-14.44,9.85-19.14,18.7-23C347.07,400.84,329.85,405.89,329.85,405.89Z" style="fill:#e0e0e0"></path><path d="M330.81,410.22c14.48-2,21.17,3.9,27.43,11.24C340.62,425.24,330.81,410.22,330.81,410.22Z" style="fill:#e0e0e0"></path><path d="M359.32,399.1c-1.07-14.58,5.25-20.88,13-26.65C375,390.27,359.32,399.1,359.32,399.1Z" style="fill:#e0e0e0"></path><path d="M360.56,402.85c13.94-4.39,21.52.32,28.92,6.52C372.74,416,360.56,402.85,360.56,402.85Z" style="fill:#e0e0e0"></path><path d="M386.14,386.74c-3.28-14.24,2-21.44,8.76-28.32C400.23,375.63,386.14,386.74,386.14,386.74Z" style="fill:#e0e0e0"></path><path d="M387.83,389.66c12.86-6.93,21.2-3.74,29.63,1C402.27,400.32,387.83,389.66,387.83,389.66Z" style="fill:#e0e0e0"></path><path d="M406.35,372.63c-4.37-11.52-.79-18.13,4.07-24.66C416.85,361.74,406.35,372.63,406.35,372.63Z" style="fill:#e0e0e0"></path><path d="M408.23,375.36c9.18-8.21,16.64-7.24,24.48-5C422.16,381.25,408.23,375.36,408.23,375.36Z" style="fill:#e0e0e0"></path><path d="M424.55,354.86c-5.1-8.57-3.16-14.35-.2-20.24C431.41,344.7,424.55,354.86,424.55,354.86Z" style="fill:#e0e0e0"></path><path d="M426.1,357.33c6.61-7.48,12.7-7.4,19.21-6.38C437.87,360.75,426.1,357.33,426.1,357.33Z" style="fill:#e0e0e0"></path><path d="M437,338.15c-5.92-6.66-5.2-12.06-3.59-17.72C441.28,328.08,437,338.15,437,338.15Z" style="fill:#e0e0e0"></path><path d="M439.73,339.89c4.31-7.81,9.63-8.93,15.51-9.31C450.66,340.57,439.73,339.89,439.73,339.89Z" style="fill:#e0e0e0"></path><path d="M444.93,321.34c-5-9.69-3.16-15.83-3.16-15.83l0,0C450.05,313.71,444.93,321.34,444.93,321.34Z" style="fill:#e0e0e0"></path><path d="M35,322.92c7.91,7.53,14.33,7.44,14.33,7.44a0,0,0,0,0,0,0C42.35,320.13,32.92,322.92,35,322.92Z" style="fill:#e0e0e0"></path><path d="M142.37,410.13l6.92,2.19c4.63,1.44,9.46,2.24,14.19,3.39,4.8.75,9.64,1.41,14.45,2l.58,0,1-1.69-1.41-.06c-4.76-.52-9.55-1.15-14.31-1.87-4.68-1.11-9.46-1.87-14.05-3.27l-6.86-2.13a50.67,50.67,0,0,1-6.72-2.41,165.14,165.14,0,0,1-25-12.26,151.54,151.54,0,0,1-56.44-61.34c-1.86-3.79-3.26-6.8-4.1-8.9l-1.35-3.2-.77.3,1.34,3.22c.84,2.12,2.23,5.15,4.08,9a152.81,152.81,0,0,0,56.54,62.1,166.47,166.47,0,0,0,25.15,12.5A51.62,51.62,0,0,0,142.37,410.13Z" style="fill:#e0e0e0"></path><path d="M47.52,317c1.93-10.75-4.09-15.62-4.09-15.62a0,0,0,0,0,0,0C39.58,312.41,47.52,317,47.52,317Z" style="fill:#e0e0e0"></path><path d="M170.15,413.52c-2.27-14.44-9.85-19.14-18.7-23C152.93,408.47,170.15,413.52,170.15,413.52Z" style="fill:#e0e0e0"></path><path d="M169.19,417.85c-14.48-2-21.17,3.9-27.43,11.25C159.38,432.88,169.19,417.85,169.19,417.85Z" style="fill:#e0e0e0"></path><path d="M140.68,406.73c1.07-14.58-5.25-20.88-13-26.65C125.05,397.9,140.68,406.73,140.68,406.73Z" style="fill:#e0e0e0"></path><path d="M139.44,410.48c-13.94-4.39-21.52.32-28.92,6.52C127.26,423.66,139.44,410.48,139.44,410.48Z" style="fill:#e0e0e0"></path><path d="M113.86,394.37c3.28-14.24-2-21.43-8.76-28.32C99.77,383.26,113.86,394.37,113.86,394.37Z" style="fill:#e0e0e0"></path><path d="M112.17,397.29c-12.86-6.93-21.2-3.73-29.63,1C97.73,408,112.17,397.29,112.17,397.29Z" style="fill:#e0e0e0"></path><path d="M93.65,380.26c4.37-11.51.79-18.13-4.07-24.65C83.15,369.37,93.65,380.26,93.65,380.26Z" style="fill:#e0e0e0"></path><path d="M91.77,383c-9.18-8.21-16.64-7.23-24.48-5C77.84,388.88,91.77,383,91.77,383Z" style="fill:#e0e0e0"></path><path d="M75.45,362.5c5.1-8.58,3.16-14.36.2-20.25C68.59,352.34,75.45,362.5,75.45,362.5Z" style="fill:#e0e0e0"></path><path d="M73.9,365c-6.61-7.48-12.7-7.4-19.21-6.38C62.13,368.38,73.9,365,73.9,365Z" style="fill:#e0e0e0"></path><path d="M63,345.78c5.92-6.66,5.2-12.06,3.59-17.72C58.72,335.71,63,345.78,63,345.78Z" style="fill:#e0e0e0"></path><path d="M60.27,347.52c-4.31-7.81-9.63-8.92-15.51-9.3C49.34,348.21,60.27,347.52,60.27,347.52Z" style="fill:#e0e0e0"></path><path d="M55.07,329c5-9.69,3.16-15.84,3.16-15.84l0,0C50,321.34,55.07,329,55.07,329Z" style="fill:#e0e0e0"></path></g></g><g id="freepik--Character--inject-50"><g id="freepik--character--inject-50"><g id="freepik--Bottom--inject-50"><path d="M262.54,399.43l-2.18-18L281,382.54s-.18,9.77-.39,15.3c-.13,3.27,4.36,9.28,4.36,9.28s-9.6,5.32-14.81,3.58-8-8.16-8-9.57S262.54,399.43,262.54,399.43Z" style="fill:#b16668"></path><path d="M312.54,426.86c.33,0,.92,3.33-.81,4.81-2,1.71-7.88,4.59-15.81,3.88s-12.28-2.87-15.52-5.25-7.77-5.73-11.37-6.36c-3.34-.58-7-1.88-8.08-2.81s-1.07-5.2-1.07-5.2Z" style="fill:#263238"></path><path d="M262.54,399.4a1.26,1.26,0,0,0-1.17,1c-.21,1.18-.37,4.61-.83,6.56-.65,2.7-1,8.22-.47,10.39s6,3.53,9.46,4.66a44.71,44.71,0,0,1,11.4,6.27c3.8,2.75,11.7,5.49,16.85,5.3,6.1-.23,12.9-2.29,14.39-5,1.85-3.33,3.15-7.17-6-10.81-1.73-.69-7.84-3.83-9.92-5-5.64-3.09-9.63-6-12.35-11.66a3.23,3.23,0,0,0-1.35-1.72,3.09,3.09,0,0,0-1.76-.1c-1.5.25-7.48,1.21-8.84,1.86-1.19.58-2.89,1.26-2.82,2.71a4.43,4.43,0,0,0,.38,1.47c.12.29.21.69-.06.87s-.61,0-.85-.2a21.89,21.89,0,0,1-2.52-2.66,8.35,8.35,0,0,0-1.47-1.31,16.87,16.87,0,0,1-1.57-.89C262.47,400.72,262.58,400.08,262.54,399.4Z" style="fill:#455a64"></path><path d="M280.93,428.32c-1.61-1.16-3.32-2.29-5-3.29h0s10.81,5.71,15,2.84c2.71-1.86,1.33-4,1.25-4.65s9.53-5.83,12.21-6.21h0c.76.37,1.39.66,1.79.82,9.15,3.64,7.85,7.48,6,10.81-1.49,2.69-6.4,4.91-14.27,5.15C292.75,434,284.73,431.07,280.93,428.32Z" style="fill:#37474f"></path><path d="M291.36,421.25c5.68,1.92,3.32,3,1.75,3.24s-11.18-4.62-17.08-8.71c-6.14-4.27-10.08-9-12.37-10.59-.85-.58-1.77-1.3-2.59-2,.12-1.16.2-2.22.3-2.77a1.26,1.26,0,0,1,1.17-1c0,.68-.07,1.32.5,1.82a16.87,16.87,0,0,0,1.57.89,8.35,8.35,0,0,1,1.47,1.31,21.89,21.89,0,0,0,2.52,2.66C273.68,411.76,285.68,419.32,291.36,421.25Z" style="fill:#37474f"></path><path d="M292.69,423.73a.59.59,0,0,1-.36-.11.5.5,0,0,1-.1-.73c1.53-1.86,8.92-6.41,13.07-6.11a.54.54,0,0,1,.51.56.55.55,0,0,1-.6.48c-3.87-.27-10.88,4.23-12.1,5.7A.57.57,0,0,1,292.69,423.73Z" style="fill:#263238"></path><path d="M287.7,421.06a.56.56,0,0,1-.35-.11.49.49,0,0,1-.1-.73c1.53-1.86,8.91-6.4,13.06-6.11a.52.52,0,0,1,.51.56.55.55,0,0,1-.6.48c-3.87-.27-10.88,4.22-12.09,5.7A.61.61,0,0,1,287.7,421.06Z" style="fill:#263238"></path><path d="M282.72,418.54a.61.61,0,0,1-.36-.11.51.51,0,0,1-.1-.73c1.54-1.87,8.92-6.41,13.07-6.11a.54.54,0,0,1,.51.56.55.55,0,0,1-.6.48c-3.87-.27-10.88,4.22-12.1,5.7A.57.57,0,0,1,282.72,418.54Z" style="fill:#263238"></path><path d="M278.09,415.62a.58.58,0,0,1-.36-.1.5.5,0,0,1-.1-.73c1.53-1.87,8.93-6.41,13.06-6.11a.52.52,0,0,1,.51.55.53.53,0,0,1-.59.48c-3.87-.26-10.89,4.23-12.1,5.71A.53.53,0,0,1,278.09,415.62Z" style="fill:#263238"></path><path d="M273.54,412.71a.59.59,0,0,1-.34-.1.5.5,0,0,1-.12-.73c2.11-2.65,9.87-6.49,14-6.19a.52.52,0,0,1,.51.55.54.54,0,0,1-.6.48c-3.73-.26-11.16,3.43-13,5.78A.58.58,0,0,1,273.54,412.71Z" style="fill:#263238"></path><path d="M221.94,409.81l4.47-17.11-21-3-.72,16.51s-2.14,5.92-.83,8.07,15.28,4.42,16.56,3S221.94,409.81,221.94,409.81Z" style="fill:#b16668"></path><path d="M220.3,447c-.61,5.29-1.72,8.71-4,11.58s-6.36,3.36-10.4,1.94-9.14-4.51-10.08-9.25-.55-7.87.62-12.7Z" style="fill:#263238"></path><path d="M204.68,406.25c-1.68-.09-1.25,7.16-2.57,14.22-1.42,7.56-4.16,10.42-5.4,16.61-1.41,7.07-1.14,10.34,1.49,15s12.5,10.21,17.77,4.58c4.3-4.59,4.74-10.2,4.72-17.44,0-7.48-.09-12.75.53-18.35.59-5.35,2.15-10.11.72-10.89-.15.78-.31,1.77-.47,2.53-.12.59-.43,3.49-1.38,3.4-.19,0-.15-.13-.06-.82a2.32,2.32,0,0,0-.38-1.8,7.81,7.81,0,0,0-2.71-1.38c-1.64-.49-4.57-1.1-6.24-1.45-.84-.16-1.68-.3-2.52-.4a7.67,7.67,0,0,0-2.14,0,1.61,1.61,0,0,0-1,1c-.18,1-.45,1.14-.69,1.06a.46.46,0,0,1-.25-.47c0-.87.19-1.49.29-2.49,0-.47.16-1.09.19-1.56S204.63,406.71,204.68,406.25Z" style="fill:#455a64"></path><path d="M197.19,435.08c-.21,1-1.54,7.77.51,9.27,2.22,1.62,3.74-3.63,3.74-3.63s5.44-.8,13.1,3.18c-.46,1.07.56,4.9,2.74,4.38s3.4-8.29,3.41-8.39c0,6.93-.55,12.36-4.72,16.81-5.27,5.63-15.14.12-17.77-4.58s-2.9-8-1.49-15C196.85,436.37,197,435.71,197.19,435.08Z" style="fill:#37474f"></path><path d="M202,441.25c-.16,2.6-3,1.37-3-2.32s2.75-12.14,3-18.46c.49-8.69.89-14.31,2.57-14.22,0,.09,0,.18,0,.26l-.4,3.62c-.07.52-.14,1-.17,1.55-.3,5.3-.37,15.61-1.12,20.4A73.56,73.56,0,0,0,202,441.25Z" style="fill:#37474f"></path><path d="M213.63,443.72a72.22,72.22,0,0,0,2.05-8.94c.82-4.74,3.65-14.23,5.06-19.33a11.84,11.84,0,0,0,.73-2.9c.15-.71.29-1.61.44-2.36a.75.75,0,0,1,0-.16c1,.58.67,4.69.13,6.82s-1.22,4.4-1.9,7.46c-1.75,6-1.91,15.05-3,18.51S213,446.21,213.63,443.72Z" style="fill:#37474f"></path><path d="M214.69,444.14a.85.85,0,0,1-.22-.09,23.06,23.06,0,0,0-12.89-2.78.7.7,0,0,1-.75-.48.52.52,0,0,1,.48-.63,24.14,24.14,0,0,1,13.78,3,.56.56,0,0,1,.23.78A.61.61,0,0,1,214.69,444.14Z" style="fill:#263238"></path><path d="M216.37,438.66a.7.7,0,0,1-.2-.08,28.51,28.51,0,0,0-14.44-3.1A.69.69,0,0,1,201,435a.5.5,0,0,1,.5-.6,29.52,29.52,0,0,1,15.24,3.28.55.55,0,0,1,.26.77A.62.62,0,0,1,216.37,438.66Z" style="fill:#263238"></path><path d="M202.4,430.16a.69.69,0,0,1-.51-.44.51.51,0,0,1,.43-.65c7.65-1.34,14.92,3,15.23,3.15a.56.56,0,0,1,.23.78.65.65,0,0,1-.85.13c-.07,0-7.15-4.22-14.26-3A.82.82,0,0,1,202.4,430.16Z" style="fill:#263238"></path><path d="M203.09,425.15a.67.67,0,0,1-.51-.42.5.5,0,0,1,.41-.66,22.29,22.29,0,0,1,15.54,3.15.53.53,0,0,1,.17.78.65.65,0,0,1-.86.08c-.07,0-6.65-4.43-14.48-2.92A.81.81,0,0,1,203.09,425.15Z" style="fill:#263238"></path><path d="M203.88,419.53a.71.71,0,0,1-.51-.42.5.5,0,0,1,.4-.67c7.89-1.62,15.33,3.12,15.65,3.32a.55.55,0,0,1,.19.78.63.63,0,0,1-.86.1c-.08,0-7.26-4.62-14.59-3.11A.66.66,0,0,1,203.88,419.53Z" style="fill:#263238"></path><path d="M216.1,229.79c-3.37,41.87-5.41,99.21-5.41,99.21-.3,3.18-2.51,8.62-4.07,24.31-1.63,16.54-2.35,46.83-2.35,46.83s11.49,6,20.64,2.88c0,0,10.51-42.07,15.27-61.56,4.5-18.44,9.52-43.38,9.52-43.38l4.81,25.16a188.74,188.74,0,0,0-.83,20.19c.37,9.72,7.39,50.28,7.39,50.28a26.24,26.24,0,0,0,20.38-.43s2.11-59.47,2.42-71.16c.61-22.92,3.39-67.43.54-97Z" style="fill:#37474f"></path><path d="M249.7,298.08l4.81-34.23s11.08-1.61,16.78-6.82c0,0-3.69,6.9-14.15,9.57l-4.77,27.1,2.14,29.54Z" style="fill:#263238"></path><path d="M203.88,403.26c2.28,3.12,12.27,6.25,20.47,3.43l1.61-6.41c-6.19,2-16.91.05-21.94-4Z" style="fill:#455a64"></path><path d="M261,395.43c2.77,2.67,13.06,4,20.66-.21l.33-6.59c-5.76,3.05-16.34,3.18-22,.05Z" style="fill:#455a64"></path></g><g id="freepik--Frame--inject-50"><g id="freepik--dark-window--inject-50"><path d="M156.63,374.39V123.23a7,7,0,0,1,1-3.4l-4.35-2.5a7,7,0,0,0-1,3.42V371.93a2.3,2.3,0,0,0,1.31,2.09l.12.07,4.07,2.29A2.27,2.27,0,0,1,156.63,374.39Z" style="fill:#263238"></path><path d="M333.36,17.81a3.14,3.14,0,0,0-1.52.46l-171.79,99a7.54,7.54,0,0,0-3.43,5.91V374.38a2.33,2.33,0,0,0,2.33,2.33,2.37,2.37,0,0,0,1.08-.27h0l5.6-3.22,166.21-95.86a7.58,7.58,0,0,0,3.42-5.93V20.25c0-.15,0-.3,0-.43a2.84,2.84,0,0,0-.06-.31.11.11,0,0,0,0-.08,1.32,1.32,0,0,0-.08-.3,1.58,1.58,0,0,0-.2-.44.48.48,0,0,0-.12-.17.31.31,0,0,0-.1-.13.92.92,0,0,0-.22-.22l0,0a2.69,2.69,0,0,0-.29-.16,1.85,1.85,0,0,0-.78-.17Zm-158.57,327V133.06L317,51.05V262.78l-142.18,82Z" style="fill:#455a64"></path><path d="M159.48,376.64l15.31-31.84-18,30.54h0a2.37,2.37,0,0,0,2.13,1.37A1.88,1.88,0,0,0,159.48,376.64Z" style="fill:#37474f"></path><path d="M156.86,121.67l17.93,11.39-16.3-14.41A8.15,8.15,0,0,0,156.86,121.67Z" style="fill:#37474f"></path><path d="M335.26,20.25c0-.15,0-.3,0-.43a2.84,2.84,0,0,0-.06-.31.11.11,0,0,0,0-.08,1.32,1.32,0,0,0-.08-.3,1.58,1.58,0,0,0-.2-.44.48.48,0,0,0-.12-.17.31.31,0,0,0-.1-.13.92.92,0,0,0-.22-.22l0,0a2.69,2.69,0,0,0-.29-.16,1.85,1.85,0,0,0-.78-.17,2.67,2.67,0,0,0-.95.19L317,51.05Z" style="fill:#37474f"></path><path d="M335,272.9,317,262.78h0l16.31,13.37A8.06,8.06,0,0,0,335,272.9Z" style="fill:#37474f"></path><path d="M331.84,18.27l-171.79,99a7,7,0,0,0-2.41,2.54l-4.34-2.52a6.78,6.78,0,0,1,2.37-2.49l171.8-99a2.4,2.4,0,0,1,2.49-.2c.61.37,3.44,2,4.16,2.37A2.47,2.47,0,0,0,331.84,18.27Z" style="fill:#37474f"></path><polygon points="316.97 262.78 313.26 260.64 174.78 340.51 174.79 344.8 316.97 262.78" style="fill:#37474f"></polygon><polygon points="174.78 340.51 191.97 330.32 209.21 320.21 243.77 300.14 278.45 280.27 295.82 270.41 313.26 260.64 296.07 270.83 278.83 280.94 244.27 301.01 209.59 320.88 192.22 330.74 174.78 340.51" style="fill:#263238"></polygon><polygon points="316.97 51.05 313.25 53.19 313.26 260.64 316.97 262.78 316.97 51.05" style="fill:#263238"></polygon></g></g><g id="freepik--Top--inject-50"><g id="freepik--Arm--inject-50"><path d="M261.78,150.58c8.46-2.09,10.9-.12,26.94,5.17a205.08,205.08,0,0,0,19.7,5.72s15,8,16.43,10.19a10,10,0,0,1-.43,11.56c-2.19,3.14-5,3.44-6.73,4.39-3.71,2-7.4-.17-9.41-.46-13.59-2-28.28-4.86-28.28-4.86Z" style="fill:#e0e0e0"></path><path d="M340,116.2c-2-.61-1.89,1.06-2.43,1.42,0,0,1.27-2.47-2.11-3.51-2.09-.64-2.36,2.13-2.48,1.8-.05-.15.89-5.9,1.62-10.77.68-4.62-1.09-5.46-1.86-5.63s-1.39.29-2.22,3.73-3.27,13.74-3.86,15.9-1.13,3.23-2.41.92c-1.2-2.16-2.31-4.22-4-5.31-2.82-1.82-4.32-.35-3.52,1.37,1.12,2.44,1.82,5.45,3.2,9.54.72,2.14,1.26,4.17,1.88,5.6,2,5.06-.42,8.2-3.05,13.21-2.15,4.09-4.53,7.59-9.7,16-4.9,8-1,23,6.06,24.11,8.07,1.26,10.05-3.33,13.38-12.77,2.82-8,6-22.1,6.93-25.43s1.16-5.25,3.15-7.26c2.7-2.72,3.61-5.14,4.62-8.65.48-1.67,1.42-4.77,1.92-7.22s.24-4-1.24-4.67c-2-.86-2.05,1.15-2.27,1S342.74,117.05,340,116.2Z" style="fill:#b16668"></path><path d="M340.23,127.78c-.78-.7-.57-2.37-.57-2.37a3,3,0,0,1-1.11,1.52,2.19,2.19,0,0,1-2.69-.5,3.17,3.17,0,0,1-.14-2.09,3.57,3.57,0,0,1-1.29,1.18,1.85,1.85,0,0,1-2.49-1c-.62-1.05,0-4.21.78-7.13a13.43,13.43,0,0,0-1.39,3.39,7.08,7.08,0,0,0-.37,3.82,7.48,7.48,0,0,0-3.27-1.6c2.94,1.76,6.16,7.67,6.15,12.09a9.5,9.5,0,0,0-1.1-8.5,1.92,1.92,0,0,0,2.16-.69,2.29,2.29,0,0,0,1.85,2,2.25,2.25,0,0,0,2.44-.54s-.07,1,1.32,1.36,2.22-.59,2.61-2A2,2,0,0,1,340.23,127.78Z" style="fill:#9a4a4d"></path></g><g id="freepik--Chest--inject-50"><path id="freepik--chest--inject-50" d="M231.07,148.46c-10.77,3-14,4.24-19.08,5.71,0,0-9.75,10.85-1.3,45a157.63,157.63,0,0,1,3.85,27.14c.31,7.68,0,15.31-.12,20.67,0,0,15.34,6.07,45.66,1.38,23.81-3.69,25.13-12.33,25.13-12.33,1.13-1-.78-28.95-3.1-46.34-3.1-23.18-10.58-36.8-13.44-39.83-.88-.46-17.24-2.08-17.24-2.08Z" style="fill:#f0f0f0"></path></g><g id="freepik--Head--inject-50"><path d="M220.58,100.39s-3.66.69-5.56,5.63c-1,2.49-1.35,6.87,3.34,18.74a49.79,49.79,0,0,0,7.37,12.85,6.06,6.06,0,0,0,3.81,2.41l-1.29-9.38-1.08-6.52s5.27,0,5.94-10.15c.4-6.11-2.68-7.91-2.68-7.91Z" style="fill:#263238"></path><path d="M218.52,101.46c-3.19-10.24,24.69-25.88,38.25-12.5,3-1.44,7.43,3,6.07,6.64,2.26-.82,6.11,2.6,3.85,5.79-1.63,2.31-1.09,4.22,1.62,4.57-.21,3.21-5.9,3.67-7,1.31,0,1.88-1.41,1-2.88-.1-9.8-.06-19.86,1.49-29.74,2Z" style="fill:#263238"></path><path d="M220.46,133.14c4.72,2.08,6.69-1.68,6.69-1.68l1.5,20.15c5,6.2,17,4.12,22.82,12.92h1.31c1-3,.15-12.34-1.29-15.62l-.26-5.68a33.69,33.69,0,0,0,4-.59,10.71,10.71,0,0,0,8.39-8.35c1.55-6.67,1.05-17.27-1.86-28.42-.56-2.16-1.59-4.49-3.61-5.4-5-2.25-9.44,1.45-16.2,4.4-2.8,1.22-9.67,2-11.52,1.19,2.49,2.56,1.38,9.5.82,11.7-.79,3.17-2.05,4.75-2.7,4.91-2.79.71-3.21-1.7-4.52-3a5.16,5.16,0,0,0-8,2.17A8.48,8.48,0,0,0,220.46,133.14Z" style="fill:#b16668"></path><path d="M233.49,138.57c1.15,4.53,7.41,7.29,17.85,7.14l-.11-2.48a48.73,48.73,0,0,1-7.67-.4C238.64,142.21,233.49,138.57,233.49,138.57Z" style="fill:#9a4a4d"></path><path d="M242.12,111.57l-3.9,3.06a2.63,2.63,0,0,1,.45-3.58A2.42,2.42,0,0,1,242.12,111.57Z" style="fill:#263238"></path><path d="M260.22,110.9l-4.65-1.81a2.38,2.38,0,0,1,3.14-1.48A2.63,2.63,0,0,1,260.22,110.9Z" style="fill:#263238"></path><path d="M244.71,129.21l7,.93a3.41,3.41,0,0,1-3.85,3.11A3.75,3.75,0,0,1,244.71,129.21Z" style="fill:#9a4a4d"></path><path d="M249.24,133.16a3.66,3.66,0,0,0-3.69-2.65,3.82,3.82,0,0,0-.69.11,3.71,3.71,0,0,0,3,2.63A3.57,3.57,0,0,0,249.24,133.16Z" style="fill:#f28f8f"></path><path d="M241.2,118.33a2,2,0,1,0,1.86-2.17A2,2,0,0,0,241.2,118.33Z" style="fill:#263238"></path><path d="M255.45,115.58a2,2,0,1,0,1.86-2.17A1.84,1.84,0,0,0,255.45,115.58Z" style="fill:#263238"></path><path d="M249.18,112.86l2.72,12.94,6.88-3C256.35,117.89,252.23,114.94,249.18,112.86Z" style="fill:#9a4a4d"></path></g><g id="freepik--arm--inject-50"><path d="M207.88,268.73c-3.56,1.52-8.87-2.48-10.37-3.91s-.31-5.45.07-8.75-1.13-8.62,3.06-7.61S214.48,259.12,207.88,268.73Z" style="fill:#9a4a4d"></path><path d="M212.16,155.08c-9,2.48-13.63,4.23-18.84,17-5.63,13.81-19,36.17-19.91,42.13-.85,5.54-3.43,9.75,3.46,17.14,6.3,6.76,27.36,24.25,30.2,26.79,2.5,2.26,2.21,9.66-5.45,9.54,0,0,6.37,4.34,9.44,3.38,2.66-.83,6.63-3.75,9.5-12.48,1.81-5.5-.77-9.32-5.26-14.62-5.37-6.34-19.27-24.48-19.27-24.48l19.15-33.17S222.07,163.1,212.16,155.08Z" style="fill:#b16668"></path></g><path d="M212,154.16c-9.47,2.19-13.22,3.37-20.77,18.52-7.64,15.36-17,34.7-20,42-3.1,7.51-.69,10.57,4,16.49,2,2.56,3.13,1.84,3.13,1.84l-1.56-1.62S180,224,188,221.75s10.32.75,10.32.75l1.26,1.63s.11-.88-1.21-2.75l-1.5-2.14s12.47-19.89,16.38-26.67S222.27,159.59,212,154.16Z" style="fill:#e0e0e0"></path><g id="freepik--Tie--inject-50"><path d="M255.77,165.73s2.87-6.18,2.74-8.57l-4.11-3.81-.62,9.87Z" style="fill:#263238"></path><polygon points="250.6 163.53 243.74 159.38 238.41 163.38 248.86 168.04 250.6 163.53" style="fill:#263238"></polygon><path d="M256.15,227.06c0-26.17-2.83-47.62-4.68-55.9l3.36-.51c6.95,12.32,13.5,43.07,13.47,52.92.41,4.51-3.41,12-4.85,12.42S256.15,230,256.15,227.06Z" style="fill:#37474f"></path><path d="M254.83,170.65h0l-3.36.51h0c.1.46.21,1,.31,1.51a6.87,6.87,0,0,0,3.53-1.12C255.15,171.25,255,170.94,254.83,170.65Z" style="fill:#263238"></path><path d="M250.6,163.52a14.84,14.84,0,0,1,3.18-.3,7.53,7.53,0,0,1,2,2.51,11.61,11.61,0,0,1-.94,4.92,4.05,4.05,0,0,1-3.36.51,7,7,0,0,1-2.61-3.12A6.43,6.43,0,0,1,250.6,163.52Z" style="fill:#37474f"></path><path d="M251.15,163.41l-.55.11a21.34,21.34,0,0,0-4.25-3.06c-1-.37-4.06,6.59-4.59,8.38s-.4,1.75-2.91.5a45.89,45.89,0,0,1-11.74-8.85,29.11,29.11,0,0,1-6-9.13s2.72-1.93,3.59-4.16c1.12-2.89,1.66-5.1,3.22-5l.19,2.56c.55,2.32,3.53,4.48,7.16,6.92s9.27,4.48,10.67,5.54A47.74,47.74,0,0,1,251.15,163.41Z" style="fill:#e0e0e0"></path><path d="M262.13,162.3c-.25,1-4.21-6.12-5.69-5.78-.71.14-2.12,4.39-3.2,6.7H253c0-2.91,0-5.4-.13-6.93a74,74,0,0,0-1.38-7.39l-.26-5.68,1.84-.21a5.85,5.85,0,0,1,.75.82c1.76,2.22,6.24,7.28,7.07,10.09A24.77,24.77,0,0,1,262.13,162.3Z" style="fill:#e0e0e0"></path></g></g><path d="M360.14,101.11a3.16,3.16,0,0,0-.7-1.83h0l-1.21-1.44a5.68,5.68,0,0,0-.61-4.53q-.12-.16-.24-.3L353.11,88h0a3.45,3.45,0,0,0-3.73-1.08l-1.65-1.95h0a2.72,2.72,0,0,0-1.31-.92l3.5-9.69c.71-2,.56-3.59-.25-4.57h0l-4.43-5.24h0a3.35,3.35,0,0,0-3.36-1h0c-3.28.59-7,4-8.31,7.63l-8.2,22.74c-3.6,10-8.95,17.27-11.92,25.68-1.53,4.33-1.66,10.62-2.29,12.36L307.89,141l4.46,5.27,32-5.73,3.52-9.76c1.09-3,2.35-5.42,6.38-13.31S360.4,103.67,360.14,101.11Z" style="fill:#F49200"></path><path d="M360.14,101.11a3.16,3.16,0,0,0-.7-1.83h0l-1.21-1.44a5.68,5.68,0,0,0-.61-4.53q-.12-.16-.24-.3L353.11,88h0a3.45,3.45,0,0,0-3.73-1.08l-1.65-1.95h0a2.72,2.72,0,0,0-1.31-.92l3.5-9.69c.71-2,.56-3.59-.25-4.57h0l-4.43-5.24h0a3.35,3.35,0,0,0-3.36-1h0c-3.28.59-7,4-8.31,7.63l-8.2,22.74c-3.6,10-8.95,17.27-11.92,25.68-1.53,4.33-1.66,10.62-2.29,12.36L307.89,141l4.46,5.27,32-5.73,3.52-9.76c1.09-3,2.35-5.42,6.38-13.31S360.4,103.67,360.14,101.11Z" style="fill:#fff;opacity:0.25"></path><path d="M359.39,99.22a2,2,0,0,0-1.38-.66,5.67,5.67,0,0,0,.22-.72Z" style="opacity:0.15"></path><path d="M347.25,89.47a15,15,0,0,0-3.43,1.75l1.47-4.07Z" style="opacity:0.15"></path><path d="M349.38,86.88l2.72,3.22a2.48,2.48,0,0,1,.53,1.15,3.34,3.34,0,0,1,0,1.3,6.23,6.23,0,0,1,2-.52l-4.45-5.27A4.68,4.68,0,0,0,349.38,86.88Z" style="opacity:0.15"></path><path d="M312.35,146.29l3.26-9.06c.63-1.74.76-8,2.29-12.36,3-8.4,8.32-15.68,11.92-25.67L338,76.45c1.3-3.62,5-7,8.31-7.63h0c3.28-.59,4.89,1.87,3.58,5.5l-6.1,16.9s3.85-2.76,6.65-2.06a2.77,2.77,0,0,1,2.16,3.39s3.35-1.62,5,.76.39,5.25.39,5.25,1.87,0,2.13,2.55-1.88,8.49-5.9,16.38-5.29,10.29-6.38,13.31l-3.52,9.76Z" style="fill:#F49200"></path><path d="M315.08,144a.3.3,0,0,1-.18-.38l2.46-6.82a21.22,21.22,0,0,0,.75-4.25,42.4,42.4,0,0,1,1.55-8.13A88.42,88.42,0,0,1,325,113a110.53,110.53,0,0,0,6.58-14.24l8.16-22.62a8.84,8.84,0,0,1,5.54-5.3,2.6,2.6,0,0,1,2.64.62,3.31,3.31,0,0,1,.26,3.35l-7.35,21.84a20.75,20.75,0,0,1,3.1-3.69c.95-.91,3.17-2.26,5.07-2A2.67,2.67,0,0,1,350.57,92a4.22,4.22,0,0,1,.45.76,3.53,3.53,0,0,0,.35.64c.4.52,1.27.56,2.1.59a3.39,3.39,0,0,1,2.45,1.09,3.14,3.14,0,0,1,.73,2.1,5.58,5.58,0,0,1-.13,1.06,5.35,5.35,0,0,0-.11,1,1.52,1.52,0,0,0,.77,1.39,2.1,2.1,0,0,1,1.08,1.8c.17,1.68-1.21,6.55-5.61,15.17l-.81,1.57c-3.48,6.82-4.65,9.12-5.73,12.11l-2.71,7.52a.3.3,0,0,1-.38.18.31.31,0,0,1-.18-.38l2.72-7.52c1.09-3,2.27-5.33,5.76-12.17l.8-1.58c4.34-8.5,5.72-13.24,5.56-14.84a1.56,1.56,0,0,0-.76-1.34,2.08,2.08,0,0,1-1.1-1.89,6.39,6.39,0,0,1,.12-1.13,5.54,5.54,0,0,0,.13-1,2.53,2.53,0,0,0-.6-1.71,2.76,2.76,0,0,0-2-.89,3.19,3.19,0,0,1-2.55-.83,4.39,4.39,0,0,1-.41-.73,3.8,3.8,0,0,0-.38-.66,2.16,2.16,0,0,0-1.2-.83c-1.6-.22-3.65.95-4.59,1.84A23.37,23.37,0,0,0,340,99.14a.3.3,0,0,1-.38.12.29.29,0,0,1-.15-.36l8.17-24.31a2.75,2.75,0,0,0-.14-2.77,2,2,0,0,0-2.07-.43,8.33,8.33,0,0,0-5.12,4.92l-8.15,22.62a111.08,111.08,0,0,1-6.62,14.31,88.52,88.52,0,0,0-5.29,11.35,42.16,42.16,0,0,0-1.53,8,22,22,0,0,1-.77,4.38l-2.46,6.82A.29.29,0,0,1,315.08,144Z" style="fill:#fff"></path><path d="M321.28,121.17h0a.3.3,0,0,1-.14-.39c1.24-2.61,4.54-6.67,7-9.63.76-.94,1.42-1.75,1.87-2.34,1.94-2.54,3-2.92,6.06-3.73s8-2.84,8-2.86a.31.31,0,0,1,.33.08c.07.07,1.66,1.89-.54,5.32-2,3.18-7.53,6.19-12.78,7a.28.28,0,0,1-.33-.24A.3.3,0,0,1,331,114c5.09-.77,10.41-3.66,12.37-6.72,1.6-2.5,1-4,.71-4.45-1,.4-5.17,2.07-7.9,2.8-3,.8-3.91,1.11-5.74,3.52-.46.59-1.12,1.41-1.89,2.35-2.39,2.94-5.67,7-6.87,9.51A.31.31,0,0,1,321.28,121.17Z" style="fill:#fff"></path><path d="M337.51,108.34a.72.72,0,0,1-.21-.12c-.37-.31-.29-.91-.2-1.55.14-1,.19-1.78.2-1.79a.29.29,0,0,1,.31-.27.29.29,0,0,1,.27.32s-.06.81-.2,1.82c-.05.37-.13.92,0,1s.17.1.8-.12a29.34,29.34,0,0,0,4.4-1.94,3.82,3.82,0,0,0,1-3.19.29.29,0,1,1,.58-.07,4.36,4.36,0,0,1-1.21,3.73,28.86,28.86,0,0,1-4.55,2A1.86,1.86,0,0,1,337.51,108.34Z" style="fill:#fff"></path><path d="M333.37,109.6h0c-.06,0-1.57-.68-.88-3.17a.29.29,0,0,1,.36-.21.3.3,0,0,1,.21.36c-.55,2,.49,2.45.54,2.47a.29.29,0,0,1,.15.39A.3.3,0,0,1,333.37,109.6Z" style="fill:#fff"></path><path d="M331.57,110.35a2,2,0,0,1-1.19-2,.29.29,0,0,1,.58,0,1.37,1.37,0,0,0,.81,1.44.3.3,0,0,1-.19.56Z" style="fill:#fff"></path><path d="M329.06,121.57a.27.27,0,0,1-.12-.09.29.29,0,0,1,0-.41,16.76,16.76,0,0,0,4.82-7.54.3.3,0,0,1,.36-.22.3.3,0,0,1,.21.36,17.06,17.06,0,0,1-5,7.84A.31.31,0,0,1,329.06,121.57Z" style="fill:#fff"></path><path d="M339.34,84.3a.3.3,0,0,1-.19-.28.29.29,0,0,1,.3-.29,7.46,7.46,0,0,0,3.33-.87.29.29,0,0,1,.29.51,7.93,7.93,0,0,1-3.63.95Z" style="fill:#fff"></path><path d="M338.64,86.25a.3.3,0,0,1-.19-.28.29.29,0,0,1,.29-.29,7.41,7.41,0,0,0,3.33-.87.31.31,0,0,1,.41.11.29.29,0,0,1-.11.4,7.93,7.93,0,0,1-3.63,1Z" style="fill:#fff"></path><path d="M335.09,96.1a.29.29,0,0,1-.2-.28.3.3,0,0,1,.3-.29,7.48,7.48,0,0,0,3.33-.86.28.28,0,0,1,.4.1.29.29,0,0,1-.1.4,8,8,0,0,1-3.63,1Z" style="fill:#fff"></path><path d="M334.39,98.05a.29.29,0,0,1,.1-.57,7.44,7.44,0,0,0,3.33-.87.29.29,0,0,1,.29.51,7.93,7.93,0,0,1-3.63.95Z" style="fill:#fff"></path><path d="M336.66,105.44h0a.29.29,0,0,1-.15-.39s1.23-2.78,3-6.18a.3.3,0,0,1,.53.27c-1.73,3.39-2.94,6.12-3,6.15A.31.31,0,0,1,336.66,105.44Z" style="fill:#fff"></path><path d="M332.86,117.82a3,3,0,0,1-.57-.27.29.29,0,1,1,.29-.51c1.64,1,4,.18,5.27-1.72.41-.62,1.6-2.59,3.54-5.85a.29.29,0,1,1,.5.3c-1.94,3.27-3.14,5.25-3.55,5.87A4.9,4.9,0,0,1,332.86,117.82Z" style="fill:#fff"></path><path d="M344.65,104.63l0,0a.29.29,0,0,1-.1-.4l3.71-6.31a.29.29,0,0,1,.4-.11.28.28,0,0,1,.1.4s-1.64,2.81-3.7,6.31A.3.3,0,0,1,344.65,104.63Z" style="fill:#fff"></path><path d="M334,116.31a1.53,1.53,0,0,1-.89-.73.29.29,0,0,1,.14-.39.29.29,0,0,1,.39.14s.56,1,2.69.2c.3-.41,1.91-2.67,2-3.9a.3.3,0,0,1,.32-.27.3.3,0,0,1,.26.33c-.15,1.52-2.11,4.15-2.2,4.26a.22.22,0,0,1-.13.1A3.75,3.75,0,0,1,334,116.31Z" style="fill:#fff"></path><path d="M345,94.23a.3.3,0,0,1-.19-.22.29.29,0,0,1,.22-.35c2.42-.55,3.83,0,4.2,1.55a.29.29,0,0,1-.22.35.28.28,0,0,1-.35-.22c-.11-.45-.43-1.8-3.5-1.1A.43.43,0,0,1,345,94.23Z" style="fill:#fff"></path><path d="M344.44,95.83a.28.28,0,0,1-.18-.21.28.28,0,0,1,.22-.35c2.4-.55,3.14.38,3.35,1.25a.29.29,0,0,1-.57.13c-.08-.33-.32-1.34-2.65-.81A.33.33,0,0,1,344.44,95.83Z" style="fill:#fff"></path><path d="M355,98.46a.27.27,0,0,1-.19-.24,1.65,1.65,0,0,0-.61-1.16,3.59,3.59,0,0,0-2.6-.33.28.28,0,0,1-.33-.24.3.3,0,0,1,.25-.34,4,4,0,0,1,3,.44,2.27,2.27,0,0,1,.83,1.56.29.29,0,0,1-.26.33A.2.2,0,0,1,355,98.46Z" style="fill:#fff"></path><path d="M353.5,99.7a.33.33,0,0,1-.2-.24,1.2,1.2,0,0,0-.44-.86,2.72,2.72,0,0,0-2-.25.3.3,0,0,1-.34-.25.29.29,0,0,1,.25-.33,3.19,3.19,0,0,1,2.42.36,1.77,1.77,0,0,1,.68,1.25.3.3,0,0,1-.26.33A.29.29,0,0,1,353.5,99.7Z" style="fill:#fff"></path><path d="M340.34,102.39a.32.32,0,0,1-.2-.25.3.3,0,0,1,.27-.32,9.78,9.78,0,0,1,3.85.39.29.29,0,0,1-.21.55h0a9.42,9.42,0,0,0-3.57-.36A.28.28,0,0,1,340.34,102.39Z" style="fill:#fff"></path><path d="M346.12,105.26a.29.29,0,0,1-.2-.29.3.3,0,0,1,.31-.28,6.86,6.86,0,0,1,3,.83.28.28,0,0,1,.09.4.29.29,0,0,1-.41.09,6.4,6.4,0,0,0-2.72-.73Z" style="fill:#fff"></path><path d="M345,106.75a.3.3,0,0,1-.19-.29.29.29,0,0,1,.31-.28,6.94,6.94,0,0,1,3,.82.29.29,0,0,1,.09.41.3.3,0,0,1-.41.08,6.57,6.57,0,0,0-2.72-.73Z" style="fill:#fff"></path><path d="M352.08,110.19a.26.26,0,0,1-.13-.1,4.46,4.46,0,0,0-1.85-1.25.3.3,0,0,1,.19-.56,5,5,0,0,1,2.13,1.46.29.29,0,0,1-.06.41A.31.31,0,0,1,352.08,110.19Z" style="fill:#fff"></path><path d="M350.86,111.72a.32.32,0,0,1-.13-.1,4.25,4.25,0,0,0-1.85-1.25.31.31,0,0,1-.18-.38.29.29,0,0,1,.37-.18,5,5,0,0,1,2.13,1.46.29.29,0,0,1-.06.41A.32.32,0,0,1,350.86,111.72Z" style="fill:#fff"></path><path d="M339.49,103.58a.29.29,0,0,1-.2-.25.31.31,0,0,1,.27-.32,13,13,0,0,1,2.23,0,.3.3,0,1,1-.07.59,11.58,11.58,0,0,0-2.11,0Z" style="fill:#fff"></path><path d="M338.3,118.64a1.73,1.73,0,0,1-1-.82,2.06,2.06,0,0,1,.13-2,.28.28,0,0,1,.4-.1.29.29,0,0,1,.11.4,1.46,1.46,0,0,0-.12,1.42,1.22,1.22,0,0,0,1.07.63,5,5,0,0,0,4.44-2.24c1.51-2,7.33-10.22,9.5-13.86a.3.3,0,0,1,.4-.1.31.31,0,0,1,.1.41c-2.17,3.65-8,11.93-9.54,13.91a5.48,5.48,0,0,1-4.94,2.47A2.21,2.21,0,0,1,338.3,118.64Z" style="fill:#fff"></path><path d="M340,116.63a2,2,0,0,1-1.17-1.08.34.34,0,0,1,0-.26c.3-.48,2.93-4.73,4.94-4.27a1.05,1.05,0,0,1,.77.64c.52,1.3-1.35,4.14-1.57,4.46a.24.24,0,0,1-.1.1,4.52,4.52,0,0,1-2.71.47h0Zm-.56-1.17a1.47,1.47,0,0,0,.89.66h0a3.8,3.8,0,0,0,2.22-.39c.74-1.12,1.76-3.1,1.46-3.86a.42.42,0,0,0-.35-.27C342.44,111.33,340.44,113.77,339.39,115.46Z" style="fill:#fff"></path><path d="M345.61,116.77a1.59,1.59,0,0,1-.92-.85.27.27,0,0,1,0-.26c.22-.37,2.23-3.61,3.79-3.25a.84.84,0,0,1,.63.52c.4,1-.92,3-1.18,3.43a.35.35,0,0,1-.11.1,3.49,3.49,0,0,1-2.09.36h0Zm-.31-1a1.06,1.06,0,0,0,.6.43,2.76,2.76,0,0,0,1.6-.28c.58-.89,1.29-2.31,1.08-2.82,0-.06-.06-.13-.21-.16C347.53,112.79,346.08,114.57,345.3,115.82Z" style="fill:#fff"></path><path d="M344,118.89a1.45,1.45,0,0,1-.89-.84,2.83,2.83,0,0,1,.56-2.56.29.29,0,0,1,.47.35,2.3,2.3,0,0,0-.48,2,.93.93,0,0,0,.78.57A4.12,4.12,0,0,0,348,117c1.21-1.3,6.24-8.58,6.29-8.65a.29.29,0,0,1,.48.33c-.21.31-5.1,7.39-6.34,8.72a4.65,4.65,0,0,1-4.07,1.6A1.53,1.53,0,0,1,344,118.89Z" style="fill:#fff"></path><path d="M356.18,105.52h0a.27.27,0,0,1-.15-.35,2.17,2.17,0,0,0,0-2.23,1.31,1.31,0,0,0-1.19-.49.27.27,0,0,1-.31-.22.28.28,0,0,1,.22-.31,1.85,1.85,0,0,1,1.7.68,2.62,2.62,0,0,1,.12,2.77A.27.27,0,0,1,356.18,105.52Z" style="fill:#fff"></path><path d="M355.07,105.81a.27.27,0,0,1-.18-.27,1.49,1.49,0,0,0-.33-1.13,1.21,1.21,0,0,0-.78-.32.26.26,0,0,1-.28-.26.27.27,0,0,1,.26-.27,1.69,1.69,0,0,1,1.18.48,2,2,0,0,1,.48,1.53.26.26,0,0,1-.28.25Z" style="fill:#fff"></path><path d="M330.24,136l-.61,1.26a.78.78,0,0,1-.16.2.53.53,0,0,1-.21.11l-.86.15c-.07,0-.12,0-.15-.05a.24.24,0,0,1,0-.17v0l.6-1.22-1.11.2-.61,1.26a.74.74,0,0,1-.16.2.42.42,0,0,1-.2.1l-.87.16a.14.14,0,0,1-.14,0,.19.19,0,0,1,0-.18v0l.6-1.23-.73.14a.18.18,0,0,1-.18-.06.28.28,0,0,1,0-.22l.27-.76a.66.66,0,0,1,.17-.24.58.58,0,0,1,.25-.14l.92-.16.82-1.7-.86.16a.18.18,0,0,1-.18-.06.28.28,0,0,1,0-.22l.27-.76a.59.59,0,0,1,.18-.24.5.5,0,0,1,.24-.14l1-.19.61-1.25a.7.7,0,0,1,.16-.19.37.37,0,0,1,.2-.11l.87-.16a.15.15,0,0,1,.15.05.22.22,0,0,1,0,.18v0l-.59,1.2,1.09-.19.62-1.25a1.3,1.3,0,0,1,.15-.2.44.44,0,0,1,.2-.11l.88-.15c.07,0,.11,0,.14.05a.19.19,0,0,1,0,.17l0,0-.58,1.2.73-.13a.13.13,0,0,1,.17.06.22.22,0,0,1,0,.21l-.28.76a.66.66,0,0,1-.17.25.48.48,0,0,1-.24.13l-.93.17-.82,1.69.87-.15a.13.13,0,0,1,.17.06.22.22,0,0,1,0,.21l-.28.76a.66.66,0,0,1-.17.25.48.48,0,0,1-.24.13Zm-1.78-1,1.09-.2.83-1.7-1.11.2Z" style="fill:#fff"></path><path d="M334,131.79a.33.33,0,0,1,0-.23.72.72,0,0,1,.19-.24l3.12-2.49.24-.17a.43.43,0,0,1,.22-.1l.86-.16a.17.17,0,0,1,.17.06.24.24,0,0,1,0,.22l-2.81,7.8a.66.66,0,0,1-.17.25.48.48,0,0,1-.24.13l-.89.16a.16.16,0,0,1-.17-.06.22.22,0,0,1,0-.21l2.15-6-2,1.62a.36.36,0,0,1-.23.1.16.16,0,0,1-.16-.09Z" style="fill:#fff"></path><g id="freepik--Ribbon--inject-50"><polygon points="229.14 193.81 233.93 211.65 235.83 208.68 237.55 205.99 240.36 207.47 243.44 209.1 238.66 191.26 229.14 193.81" style="fill:#F49200"></polygon><g style="opacity:0.2"><polygon points="229.14 193.81 233.93 211.65 235.83 208.68 237.55 205.99 240.36 207.47 243.44 209.1 238.66 191.26 229.14 193.81" style="fill:#fff"></polygon></g><polygon points="234.38 207.31 230.71 193.64 231.18 193.51 234.56 206.13 236.69 202.84 240.13 204.63 236.75 192.02 237.22 191.89 240.88 205.57 236.85 203.47 234.38 207.31" style="fill:#F49200"></polygon><g style="opacity:0.2"><polygon points="234.38 207.31 230.71 193.64 231.18 193.51 234.56 206.13 236.69 202.84 240.13 204.63 236.75 192.02 237.22 191.89 240.88 205.57 236.85 203.47 234.38 207.31"></polygon></g><polygon points="232.74 207.23 236.3 193.94 232.47 192.92 229.14 193.81 232.74 207.23" style="opacity:0.30000000000000004"></polygon><polygon points="235.54 193.81 230.76 211.65 228.85 208.68 227.13 205.99 224.33 207.47 221.24 209.1 226.02 191.26 235.54 193.81" style="fill:#F49200"></polygon><g style="opacity:0.4"><polygon points="235.54 193.81 230.76 211.65 228.85 208.68 227.13 205.99 224.33 207.47 221.24 209.1 226.02 191.26 235.54 193.81" style="fill:#fff"></polygon></g><polygon points="230.31 207.31 227.83 203.47 223.81 205.57 227.47 191.89 227.93 192.02 224.55 204.63 228 202.84 230.12 206.13 233.51 193.51 233.97 193.64 230.31 207.31" style="fill:#F49200"></polygon><path d="M238.66,191.26,232.34,193,226,191.26l-1.59,6a2,2,0,0,0,1.24.43,1.81,1.81,0,0,0,.52-.07l.15,0a.59.59,0,0,1,.56.43,2,2,0,0,0,2,1.5,2.12,2.12,0,0,0,1.16-.36.55.55,0,0,1,.33-.11.56.56,0,0,1,.47.25,2,2,0,0,0,3.32,0,.56.56,0,0,1,.47-.25.55.55,0,0,1,.33.11,2.09,2.09,0,0,0,1.16.36,2,2,0,0,0,2-1.5.59.59,0,0,1,.56-.43l.15,0a1.81,1.81,0,0,0,.52.07,2.09,2.09,0,0,0,1-.27Z" style="opacity:0.30000000000000004"></path><path d="M233.55,176.16h0a1.3,1.3,0,0,0,1.81.32h0a1.3,1.3,0,0,1,2,.73h0a1.31,1.31,0,0,0,1.59.92h0a1.31,1.31,0,0,1,1.64,1.37h0a1.3,1.3,0,0,0,1.18,1.41h0a1.31,1.31,0,0,1,1.06,1.85h0a1.29,1.29,0,0,0,.63,1.72h0a1.3,1.3,0,0,1,.37,2.1h0a1.32,1.32,0,0,0,0,1.84h0a1.3,1.3,0,0,1-.37,2.1h0a1.31,1.31,0,0,0-.63,1.73h0a1.31,1.31,0,0,1-1.06,1.85h0a1.29,1.29,0,0,0-1.18,1.4h0a1.31,1.31,0,0,1-1.64,1.37h0a1.31,1.31,0,0,0-1.59.92h0a1.3,1.3,0,0,1-2,.73h0a1.31,1.31,0,0,0-1.81.32h0a1.31,1.31,0,0,1-2.14,0h0a1.31,1.31,0,0,0-1.81-.32h0a1.3,1.3,0,0,1-2-.73h0a1.31,1.31,0,0,0-1.59-.92h0a1.31,1.31,0,0,1-1.64-1.37h0a1.29,1.29,0,0,0-1.18-1.4h0a1.3,1.3,0,0,1-1.06-1.85h0a1.31,1.31,0,0,0-.63-1.73h0a1.3,1.3,0,0,1-.37-2.1h0a1.32,1.32,0,0,0,0-1.84h0a1.3,1.3,0,0,1,.37-2.1h0a1.29,1.29,0,0,0,.63-1.72h0a1.3,1.3,0,0,1,1.06-1.85h0a1.3,1.3,0,0,0,1.18-1.41h0a1.31,1.31,0,0,1,1.64-1.37h0a1.31,1.31,0,0,0,1.59-.92h0a1.3,1.3,0,0,1,2-.73h0a1.3,1.3,0,0,0,1.81-.32h0A1.32,1.32,0,0,1,233.55,176.16Z" style="fill:#F49200"></path><path d="M233.55,176.16h0a1.3,1.3,0,0,0,1.81.32h0a1.3,1.3,0,0,1,2,.73h0a1.31,1.31,0,0,0,1.59.92h0a1.31,1.31,0,0,1,1.64,1.37h0a1.3,1.3,0,0,0,1.18,1.41h0a1.31,1.31,0,0,1,1.06,1.85h0a1.29,1.29,0,0,0,.63,1.72h0a1.3,1.3,0,0,1,.37,2.1h0a1.32,1.32,0,0,0,0,1.84h0a1.3,1.3,0,0,1-.37,2.1h0a1.31,1.31,0,0,0-.63,1.73h0a1.31,1.31,0,0,1-1.06,1.85h0a1.29,1.29,0,0,0-1.18,1.4h0a1.31,1.31,0,0,1-1.64,1.37h0a1.31,1.31,0,0,0-1.59.92h0a1.3,1.3,0,0,1-2,.73h0a1.31,1.31,0,0,0-1.81.32h0a1.31,1.31,0,0,1-2.14,0h0a1.31,1.31,0,0,0-1.81-.32h0a1.3,1.3,0,0,1-2-.73h0a1.31,1.31,0,0,0-1.59-.92h0a1.31,1.31,0,0,1-1.64-1.37h0a1.29,1.29,0,0,0-1.18-1.4h0a1.3,1.3,0,0,1-1.06-1.85h0a1.31,1.31,0,0,0-.63-1.73h0a1.3,1.3,0,0,1-.37-2.1h0a1.32,1.32,0,0,0,0-1.84h0a1.3,1.3,0,0,1,.37-2.1h0a1.29,1.29,0,0,0,.63-1.72h0a1.3,1.3,0,0,1,1.06-1.85h0a1.3,1.3,0,0,0,1.18-1.41h0a1.31,1.31,0,0,1,1.64-1.37h0a1.31,1.31,0,0,0,1.59-.92h0a1.3,1.3,0,0,1,2-.73h0a1.3,1.3,0,0,0,1.81-.32h0A1.32,1.32,0,0,1,233.55,176.16Z" style="fill:#fff;opacity:0.6000000000000001"></path><circle cx="232.48" cy="187.5" r="9.78" style="fill:#F49200"></circle><circle cx="232.48" cy="187.5" r="6.55" style="fill:#fafafa"></circle><path d="M229.3,185.68a.23.23,0,0,1-.05-.21.29.29,0,0,1,.11-.19l2.27-1.74.21-.15a.45.45,0,0,1,.28-.09h1.28a.29.29,0,0,1,.21.09.28.28,0,0,1,.08.2v8a.3.3,0,0,1-.08.2.28.28,0,0,1-.21.08H232a.26.26,0,0,1-.2-.08.3.3,0,0,1-.08-.2v-5.82l-1.26,1a.26.26,0,0,1-.21.06.29.29,0,0,1-.19-.11Z" style="fill:#F49200"></path><path d="M232.48,194.55a7.05,7.05,0,1,1,7.05-7.05A7.05,7.05,0,0,1,232.48,194.55Zm0-13.09a6,6,0,1,0,6,6A6,6,0,0,0,232.48,181.46Z" style="fill:#F49200"></path><g style="opacity:0.30000000000000004"><path d="M232.48,194.55a7.05,7.05,0,1,1,7.05-7.05A7.05,7.05,0,0,1,232.48,194.55Zm0-13.09a6,6,0,1,0,6,6A6,6,0,0,0,232.48,181.46Z"></path></g><path d="M241,186.52l.22.45.51.08a.15.15,0,0,1,.08.25l-.37.35.09.51a.14.14,0,0,1-.21.15l-.45-.24-.46.24a.14.14,0,0,1-.21-.15l.09-.51-.37-.35a.15.15,0,0,1,.08-.25l.51-.08.22-.45A.15.15,0,0,1,241,186.52Z" style="fill:#fafafa"></path><path d="M240.53,189.54l.16.3.33,0a.1.1,0,0,1,.06.17l-.25.24.06.33a.1.1,0,0,1-.14.11l-.3-.16-.31.16a.1.1,0,0,1-.14-.11l.06-.33-.25-.24a.1.1,0,0,1,.06-.17l.34,0,.15-.3A.09.09,0,0,1,240.53,189.54Z" style="fill:#fafafa"></path><path d="M240.53,184.07l.16.31.33.05a.09.09,0,0,1,.06.16l-.25.24.06.34a.1.1,0,0,1-.14.1l-.3-.16-.31.16a.1.1,0,0,1-.14-.1l.06-.34-.25-.24a.1.1,0,0,1,.06-.16l.34-.05.15-.31A.1.1,0,0,1,240.53,184.07Z" style="fill:#fafafa"></path><path d="M224,186.52l-.22.45-.51.08a.15.15,0,0,0-.08.25l.37.35-.09.51a.14.14,0,0,0,.21.15l.45-.24.46.24a.14.14,0,0,0,.21-.15l-.09-.51.37-.35a.15.15,0,0,0-.08-.25l-.51-.08-.22-.45A.15.15,0,0,0,224,186.52Z" style="fill:#fafafa"></path><path d="M224.43,189.54l-.16.3-.33,0a.1.1,0,0,0-.06.17l.25.24-.06.33a.1.1,0,0,0,.14.11l.3-.16.31.16a.1.1,0,0,0,.14-.11l-.06-.33.24-.24a.1.1,0,0,0,0-.17l-.34,0-.15-.3A.09.09,0,0,0,224.43,189.54Z" style="fill:#fafafa"></path><path d="M224.43,184.07l-.16.31-.33.05a.09.09,0,0,0-.06.16l.25.24-.06.34a.09.09,0,0,0,.14.1l.3-.16.31.16a.1.1,0,0,0,.14-.1l-.06-.34.24-.24a.09.09,0,0,0,0-.16l-.34-.05-.15-.31A.1.1,0,0,0,224.43,184.07Z" style="fill:#fafafa"></path></g></g></g><g id="freepik--Text--inject-50"><g id="freepik--Label--inject-50"><path d="M302.44,332.84,195.87,394.37,189,389.21V355.55c2.67-5.09,4.16-7.95,6.83-13.05L302.44,281l6.83,5.16v33.65Z" style="fill:#F49200"></path><path d="M302.43,290.09v33.65L195.87,385.27V351.61L189,355.55v33.66l6.83,5.16,106.56-61.52c2.68-5.11,4.17-8,6.83-13.05V286.15Z" style="opacity:0.1"></path><path d="M302.44,281v9.1l6.83-3.94Z" style="fill:#fff;opacity:0.1"></path><path d="M189,389.21l6.83,5.16v-9.11Z" style="opacity:0.1"></path><path d="M195.87,342.5v9.11L189,355.55C191.71,350.46,193.2,347.6,195.87,342.5Z" style="fill:#fff;opacity:0.1"></path><path d="M309.27,319.79l-6.83,13v-9.1Z" style="opacity:0.1"></path><path d="M221.22,346.76a2.28,2.28,0,0,1,.09-.63,3.51,3.51,0,0,1,.24-.61,2.78,2.78,0,0,1,.35-.52,1.63,1.63,0,0,1,.43-.37.88.88,0,0,1,.43-.13.58.58,0,0,1,.36.12.71.71,0,0,1,.24.33,1.35,1.35,0,0,1,.08.52,2.27,2.27,0,0,1-.08.63,3.13,3.13,0,0,1-.24.6,2.9,2.9,0,0,1-.36.53,1.66,1.66,0,0,1-.43.37.85.85,0,0,1-.43.13.55.55,0,0,1-.35-.12.83.83,0,0,1-.24-.33A1.35,1.35,0,0,1,221.22,346.76Z" style="fill:#fff"></path><path d="M229.15,344.34a.15.15,0,0,1,.18,0,.21.21,0,0,1,.07.19v.87a.58.58,0,0,1-.07.28.45.45,0,0,1-.18.2l-4.06,2.35a.15.15,0,0,1-.18,0,.21.21,0,0,1-.07-.19v-8a.61.61,0,0,1,.07-.28.51.51,0,0,1,.18-.2l4-2.31a.17.17,0,0,1,.18,0,.22.22,0,0,1,.07.19v.88a.61.61,0,0,1-.07.28.51.51,0,0,1-.18.2l-3,1.73v2l2.79-1.61a.14.14,0,0,1,.17,0,.23.23,0,0,1,.08.19V342a.63.63,0,0,1-.08.28.58.58,0,0,1-.17.2l-2.79,1.61v2.05Z" style="fill:#fff"></path><path d="M233.59,339.08l1.76-5.09.13-.27a.66.66,0,0,1,.27-.3l.63-.36a.15.15,0,0,1,.18,0,.21.21,0,0,1,.07.19v8a.61.61,0,0,1-.07.28.51.51,0,0,1-.18.2l-.75.43a.15.15,0,0,1-.17,0,.25.25,0,0,1-.08-.2v-4.83l-1.2,3.48c0,.08-.08.17-.13.28a.58.58,0,0,1-.22.22l-.48.28a.18.18,0,0,1-.21,0,.4.4,0,0,1-.13-.13l-1.21-2.08V344a.61.61,0,0,1-.07.28.51.51,0,0,1-.18.2l-.75.43a.14.14,0,0,1-.17,0,.21.21,0,0,1-.08-.19v-8a.6.6,0,0,1,.08-.28.58.58,0,0,1,.17-.2l.63-.36c.13-.07.22-.08.28,0l.12.13Z" style="fill:#fff"></path><path d="M240.81,330.5c.75-.43,1.33-.53,1.75-.3s.62.8.62,1.7a4.84,4.84,0,0,1-.62,2.44,4.66,4.66,0,0,1-1.75,1.72l-1.48.86v2.75a.58.58,0,0,1-.07.28.45.45,0,0,1-.18.2l-.75.44a.19.19,0,0,1-.18,0,.22.22,0,0,1-.07-.19v-8a.54.54,0,0,1,.07-.27.45.45,0,0,1,.18-.2Zm-1.48,4.87,1.44-.83a2.47,2.47,0,0,0,.84-.76,2,2,0,0,0,.31-1.15c0-.46-.1-.72-.31-.78a1.22,1.22,0,0,0-.84.22l-1.44.83Z" style="fill:#fff"></path><path d="M248.5,333.17a.14.14,0,0,1,.17,0,.21.21,0,0,1,.08.19v.88a.63.63,0,0,1-.08.28.58.58,0,0,1-.17.2l-4.06,2.34a.15.15,0,0,1-.18,0,.22.22,0,0,1-.07-.19v-8a.58.58,0,0,1,.07-.28.51.51,0,0,1,.18-.2l.75-.43a.15.15,0,0,1,.17,0,.23.23,0,0,1,.08.19v6.78Z" style="fill:#fff"></path><path d="M249.31,328.82a7.71,7.71,0,0,1,.2-1.42,5.52,5.52,0,0,1,.51-1.35,5.72,5.72,0,0,1,.83-1.2,4.66,4.66,0,0,1,1.19-1,2.78,2.78,0,0,1,1.17-.42,1.23,1.23,0,0,1,.84.23,1.74,1.74,0,0,1,.51.77,4.47,4.47,0,0,1,.2,1.19c0,.16,0,.33,0,.52s0,.38,0,.58,0,.4,0,.59,0,.37,0,.53a6.85,6.85,0,0,1-.2,1.41,5.83,5.83,0,0,1-.5,1.36,5.45,5.45,0,0,1-.84,1.19,5.24,5.24,0,0,1-1.18.95,2.89,2.89,0,0,1-1.19.42A1.2,1.2,0,0,1,250,333a1.5,1.5,0,0,1-.51-.77,4.54,4.54,0,0,1-.2-1.19c0-.15,0-.32,0-.51s0-.38,0-.58,0-.4,0-.59S249.31,329,249.31,328.82Zm4.2-2.36a1.35,1.35,0,0,0-.43-1.13c-.26-.18-.61-.14-1,.11a2.83,2.83,0,0,0-1,1.09,3.75,3.75,0,0,0-.43,1.63c0,.32,0,.67,0,1s0,.73,0,1c0,.58.17.95.43,1.12a1,1,0,0,0,1-.12,2.77,2.77,0,0,0,1-1.08,3.61,3.61,0,0,0,.43-1.62c0-.32,0-.68,0-1.06S253.52,326.76,253.51,326.46Z" style="fill:#fff"></path><path d="M260.61,319.07c.07,0,.13,0,.17,0a.23.23,0,0,1,.08.19.5.5,0,0,1,0,.12l-2.2,6.42v2.72a.58.58,0,0,1-.07.28.51.51,0,0,1-.18.2l-.74.43a.13.13,0,0,1-.17,0,.23.23,0,0,1-.08-.19v-2.72l-2.19-3.88a.16.16,0,0,1,0-.1.55.55,0,0,1,.07-.28.45.45,0,0,1,.18-.2l.69-.4c.13-.07.22-.09.28,0a.36.36,0,0,1,.11.12l1.5,2.63,1.5-4.36a1.29,1.29,0,0,1,.12-.25.75.75,0,0,1,.27-.29Z" style="fill:#fff"></path><path d="M266.13,323a.15.15,0,0,1,.18,0,.21.21,0,0,1,.07.19v.87a.55.55,0,0,1-.07.28.45.45,0,0,1-.18.2l-4.07,2.35a.15.15,0,0,1-.17,0,.25.25,0,0,1-.08-.2v-8a.63.63,0,0,1,.08-.28.58.58,0,0,1,.17-.2l4-2.3a.15.15,0,0,1,.17,0,.23.23,0,0,1,.08.19V317a.6.6,0,0,1-.08.28.49.49,0,0,1-.17.2l-3,1.73v2l2.79-1.61a.15.15,0,0,1,.18,0,.22.22,0,0,1,.07.19v.88a.61.61,0,0,1-.07.28.51.51,0,0,1-.18.2l-2.79,1.61v2.05Z" style="fill:#fff"></path><path d="M271.85,319.69a.15.15,0,0,1,.18,0,.21.21,0,0,1,.07.19v.87a.58.58,0,0,1-.07.28.45.45,0,0,1-.18.2l-4.07,2.35c-.07,0-.13,0-.17,0a.21.21,0,0,1-.08-.19v-8a.63.63,0,0,1,.08-.28.42.42,0,0,1,.17-.2l4-2.31a.15.15,0,0,1,.17,0,.23.23,0,0,1,.08.19v.88a.63.63,0,0,1-.08.28.58.58,0,0,1-.17.2l-3,1.73v2l2.79-1.61a.15.15,0,0,1,.18,0,.22.22,0,0,1,.07.19v.88a.61.61,0,0,1-.07.28.51.51,0,0,1-.18.2l-2.79,1.61v2Z" style="fill:#fff"></path><path d="M273.19,316.75a2.28,2.28,0,0,1,.09-.63,3.13,3.13,0,0,1,.24-.6,3.48,3.48,0,0,1,.35-.53,1.88,1.88,0,0,1,.44-.37.82.82,0,0,1,.43-.13.55.55,0,0,1,.35.12.83.83,0,0,1,.24.33,1.35,1.35,0,0,1,.09.52,2.28,2.28,0,0,1-.09.63,3.51,3.51,0,0,1-.24.61,2.78,2.78,0,0,1-.35.52,1.81,1.81,0,0,1-.43.37.88.88,0,0,1-.44.13.57.57,0,0,1-.35-.12.71.71,0,0,1-.24-.33A1.35,1.35,0,0,1,273.19,316.75Z" style="fill:#fff"></path><path d="M204,369.5a9.06,9.06,0,0,1,.3-1.89,8.59,8.59,0,0,1,.75-1.83,8,8,0,0,1,1.17-1.61,6.4,6.4,0,0,1,1.59-1.27,4,4,0,0,1,1.58-.57,1.89,1.89,0,0,1,1.18.27,2,2,0,0,1,.74,1,4.35,4.35,0,0,1,.3,1.54c0,.45,0,.94,0,1.45s0,1,0,1.44a7.91,7.91,0,0,1-.3,1.89,8.46,8.46,0,0,1-.74,1.83,7.81,7.81,0,0,1-1.18,1.62,6.64,6.64,0,0,1-1.58,1.26,4.2,4.2,0,0,1-1.59.58,1.86,1.86,0,0,1-1.17-.27,2.11,2.11,0,0,1-.75-1,4.9,4.9,0,0,1-.3-1.54c0-.44,0-.91,0-1.42S204,370,204,369.5Zm5.36-.28c0-.2,0-.42,0-.66s0-.49,0-.74,0-.49,0-.72,0-.43,0-.61a2.41,2.41,0,0,0-.13-.67.93.93,0,0,0-.3-.43.7.7,0,0,0-.46-.13,1.48,1.48,0,0,0-.66.24,2.81,2.81,0,0,0-.66.52,3.38,3.38,0,0,0-.47.67,3.71,3.71,0,0,0-.29.76,4.63,4.63,0,0,0-.13.83,6.25,6.25,0,0,0,0,.64c0,.24,0,.48,0,.73s0,.49,0,.72a6.11,6.11,0,0,0,0,.64,1.5,1.5,0,0,0,.42,1.1c.25.22.62.18,1.13-.11a2.79,2.79,0,0,0,1.12-1.19A4.52,4.52,0,0,0,209.35,369.22Z" style="fill:#fff"></path><path d="M218.92,356.64a.2.2,0,0,1,.24,0,.32.32,0,0,1,.09.25v1.73a.8.8,0,0,1-.09.36.71.71,0,0,1-.24.27l-3.64,2.1v2.23l3.4-2a.19.19,0,0,1,.23,0,.28.28,0,0,1,.1.25v1.72a.74.74,0,0,1-.1.37.59.59,0,0,1-.23.26l-3.4,2v3.51a.7.7,0,0,1-.1.36.54.54,0,0,1-.23.26l-1.59.93a.21.21,0,0,1-.24,0A.3.3,0,0,1,213,371v-10.5a.87.87,0,0,1,.09-.37.68.68,0,0,1,.24-.26Z" style="fill:#fff"></path><path d="M228.91,350.87a.19.19,0,0,1,.23,0,.31.31,0,0,1,.1.25v1.72a.86.86,0,0,1-.1.37.75.75,0,0,1-.23.26l-2.15,1.24v8.34a.7.7,0,0,1-.1.36.62.62,0,0,1-.23.27l-1.59.92a.21.21,0,0,1-.24,0,.3.3,0,0,1-.09-.25V356l-2.15,1.24a.21.21,0,0,1-.23,0,.3.3,0,0,1-.1-.26v-1.72a.7.7,0,0,1,.1-.36.57.57,0,0,1,.23-.27Z" style="fill:#fff"></path><path d="M237.22,346.07a.19.19,0,0,1,.23,0,.31.31,0,0,1,.1.25v10.5a.89.89,0,0,1-.1.37.66.66,0,0,1-.23.26l-1.6.92a.19.19,0,0,1-.23,0,.27.27,0,0,1-.1-.25v-4l-2.7,1.56v4a.85.85,0,0,1-.1.36.66.66,0,0,1-.23.26l-1.6.92a.2.2,0,0,1-.23,0,.29.29,0,0,1-.1-.26v-10.5a.76.76,0,0,1,.1-.37.59.59,0,0,1,.23-.26l1.6-.92a.19.19,0,0,1,.23,0,.29.29,0,0,1,.1.25v3.91l2.7-1.56v-3.92a.73.73,0,0,1,.1-.36.59.59,0,0,1,.23-.26Z" style="fill:#fff"></path><path d="M245.36,350.15a.19.19,0,0,1,.23,0,.27.27,0,0,1,.1.25v1.72a.76.76,0,0,1-.1.37.59.59,0,0,1-.23.26l-5.78,3.33a.18.18,0,0,1-.23,0,.32.32,0,0,1-.1-.25v-10.5a.89.89,0,0,1,.1-.37.66.66,0,0,1,.23-.26l5.68-3.28a.19.19,0,0,1,.23,0,.28.28,0,0,1,.1.25v1.72a.76.76,0,0,1-.1.37.59.59,0,0,1-.23.26l-3.75,2.17V348l3.48-2a.21.21,0,0,1,.24,0,.3.3,0,0,1,.09.25v1.72a.87.87,0,0,1-.09.37.68.68,0,0,1-.24.26l-3.48,2v1.82Z" style="fill:#fff"></path><path d="M253.24,345.33a.69.69,0,0,1-.17-.17l-1.14-2v5.38a.7.7,0,0,1-.1.36.57.57,0,0,1-.23.27l-1.6.92a.19.19,0,0,1-.23,0,.31.31,0,0,1-.1-.25v-10.5a.81.81,0,0,1,.1-.36.63.63,0,0,1,.23-.27l1.42-.81c.16-.1.28-.11.36,0a1.06,1.06,0,0,1,.16.17l2,3.36,2-5.64c0-.06.08-.18.16-.35a1,1,0,0,1,.36-.39l1.42-.81a.18.18,0,0,1,.23,0,.31.31,0,0,1,.1.25v10.5a.89.89,0,0,1-.1.37.66.66,0,0,1-.23.26l-1.6.92a.21.21,0,0,1-.23,0,.3.3,0,0,1-.1-.26v-5.37l-1.14,3.34a2.84,2.84,0,0,1-.17.36.74.74,0,0,1-.28.3l-.79.45C253.4,345.37,253.31,345.38,253.24,345.33Z" style="fill:#fff"></path><path d="M259.58,337.4a8.86,8.86,0,0,1,.3-1.88,8.56,8.56,0,0,1,.74-1.83,8.33,8.33,0,0,1,1.17-1.62,6.5,6.5,0,0,1,1.59-1.26,3.75,3.75,0,0,1,1.59-.57,1.79,1.79,0,0,1,1.17.26,2,2,0,0,1,.75,1,5,5,0,0,1,.3,1.54c0,.46,0,.94,0,1.45s0,1,0,1.45a9,9,0,0,1-.3,1.88,8.38,8.38,0,0,1-1.92,3.46,6.71,6.71,0,0,1-1.59,1.25,3.93,3.93,0,0,1-1.59.58,1.79,1.79,0,0,1-1.17-.26,2.15,2.15,0,0,1-.74-1,5,5,0,0,1-.3-1.54c0-.44,0-.91,0-1.42S259.57,337.88,259.58,337.4Zm5.35-.27c0-.2,0-.43,0-.67s0-.49,0-.74,0-.48,0-.71,0-.43,0-.61a2.16,2.16,0,0,0-.13-.68.78.78,0,0,0-.29-.42.66.66,0,0,0-.47-.13,1.68,1.68,0,0,0-.66.23,2.84,2.84,0,0,0-.65.53,3,3,0,0,0-.47.67,3.05,3.05,0,0,0-.29.76,3.79,3.79,0,0,0-.13.82,6.46,6.46,0,0,0,0,.65c0,.23,0,.47,0,.72s0,.49,0,.73a5.78,5.78,0,0,0,0,.63,1.51,1.51,0,0,0,.42,1.11c.24.21.62.17,1.12-.12a2.73,2.73,0,0,0,1.13-1.18A4.36,4.36,0,0,0,264.93,337.13Z" style="fill:#fff"></path><path d="M274.16,336.12a.34.34,0,0,1-.34.05.46.46,0,0,1-.16-.13l-2.79-4v5.49a.89.89,0,0,1-.1.37.66.66,0,0,1-.23.26l-1.6.92a.18.18,0,0,1-.23,0,.33.33,0,0,1-.1-.26V328.39a.89.89,0,0,1,.1-.37.66.66,0,0,1,.23-.26l1.27-.73c.14-.08.25-.1.33,0a.43.43,0,0,1,.17.13l2.79,3.95v-5.49a.74.74,0,0,1,.1-.37.59.59,0,0,1,.23-.26l1.6-.92a.18.18,0,0,1,.23,0,.3.3,0,0,1,.09.25v10.5a.87.87,0,0,1-.09.37.66.66,0,0,1-.23.26Z" style="fill:#fff"></path><path d="M283.73,319.22a.19.19,0,0,1,.23,0,.3.3,0,0,1,.09.25v1.72a.84.84,0,0,1-.09.37.75.75,0,0,1-.23.26l-2.15,1.24v8.34a.7.7,0,0,1-.1.36.57.57,0,0,1-.23.27l-1.6.92a.19.19,0,0,1-.23,0,.3.3,0,0,1-.09-.25v-8.34l-2.15,1.24a.19.19,0,0,1-.23,0,.27.27,0,0,1-.1-.25v-1.72a.7.7,0,0,1,.1-.36.57.57,0,0,1,.23-.27Z" style="fill:#fff"></path><path d="M292,314.42a.19.19,0,0,1,.23,0,.31.31,0,0,1,.1.25v10.5a.89.89,0,0,1-.1.37.66.66,0,0,1-.23.26l-1.6.92a.21.21,0,0,1-.23,0,.3.3,0,0,1-.1-.26v-4l-2.7,1.56v4a.89.89,0,0,1-.1.37.66.66,0,0,1-.23.26l-1.6.93a.21.21,0,0,1-.23,0,.29.29,0,0,1-.1-.26v-10.5a.76.76,0,0,1,.1-.37.59.59,0,0,1,.23-.26l1.6-.92a.21.21,0,0,1,.23,0,.33.33,0,0,1,.1.26v3.91l2.7-1.56V316a.7.7,0,0,1,.1-.36.59.59,0,0,1,.23-.26Z" style="fill:#fff"></path><polygon points="189.04 355.55 309.27 286.14 302.44 280.98 195.87 342.5 189.04 355.55" style="fill:#fff;opacity:0.1"></polygon><path d="M227.34,324.33l-35.18,67.23,3.71,2.81.25-.14L235,319.9Z" style="fill:#fff;opacity:0.15"></path><polygon points="252.34 309.9 241.63 316.08 202.72 390.41 213.44 384.23 252.34 309.9" style="fill:#fff;opacity:0.15"></polygon><polygon points="287.15 289.8 279.48 294.23 240.58 368.56 248.25 364.13 287.15 289.8" style="fill:#fff;opacity:0.15"></polygon><path d="M303.45,281.75l-1-.77-8.68,5-38.9,74.32,10.71-6.18Z" style="fill:#fff;opacity:0.15"></path><path d="M301.37,294.28a3.29,3.29,0,0,1-1.36,2.61c-.76.43-1.37,0-1.37-1a3.27,3.27,0,0,1,1.37-2.61C300.76,292.81,301.37,293.27,301.37,294.28Z" style="fill:#37474f"></path><path d="M301.37,321.28a3.26,3.26,0,0,1-1.36,2.61c-.76.44-1.37,0-1.37-1a3.27,3.27,0,0,1,1.37-2.61C300.76,319.82,301.37,320.28,301.37,321.28Z" style="fill:#37474f"></path><path d="M199.81,352.91a3.26,3.26,0,0,1-1.36,2.61c-.76.44-1.37,0-1.37-1a3.25,3.25,0,0,1,1.37-2.61C199.2,351.44,199.81,351.91,199.81,352.91Z" style="fill:#37474f"></path><path d="M199.81,379.92a3.29,3.29,0,0,1-1.36,2.61c-.76.43-1.37,0-1.37-1a3.25,3.25,0,0,1,1.37-2.61C199.2,378.45,199.81,378.91,199.81,379.92Z" style="fill:#37474f"></path></g></g><g id="freepik--Sparkles--inject-50"><g id="freepik--Shine--inject-50"><g id="freepik--shine--inject-50"><path d="M113.65,174a.27.27,0,0,1-.26-.24l-.64-7.13a1.26,1.26,0,0,0-1.12-1.14l-5.59-.62a.25.25,0,0,1-.23-.26.25.25,0,0,1,.23-.25l5.59-.62a1.26,1.26,0,0,0,1.12-1.14l.64-7.13a.26.26,0,0,1,.52,0l.64,7.13a1.26,1.26,0,0,0,1.12,1.14l5.59.62a.25.25,0,0,1,.23.25.25.25,0,0,1-.23.26l-5.59.62a1.26,1.26,0,0,0-1.12,1.14l-.64,7.13A.27.27,0,0,1,113.65,174Zm-5.24-9.39,3.28.37a1.78,1.78,0,0,1,1.57,1.61l.39,4.28.39-4.28a1.77,1.77,0,0,1,1.57-1.61l3.28-.37-3.28-.36a1.77,1.77,0,0,1-1.57-1.61l-.39-4.28-.39,4.28h0a1.78,1.78,0,0,1-1.57,1.61Zm4.6-2Z" style="fill:#F49200"></path><g style="opacity:0.5"><path d="M126.07,156.48a.28.28,0,0,1-.26-.24l-.43-4.85a.8.8,0,0,0-.69-.71l-3.81-.42a.25.25,0,0,1-.23-.25.26.26,0,0,1,.23-.26l3.81-.42a.8.8,0,0,0,.69-.7l.43-4.86a.27.27,0,0,1,.26-.23.26.26,0,0,1,.26.23l.44,4.86a.78.78,0,0,0,.68.7l3.81.42a.26.26,0,0,1,.23.26.25.25,0,0,1-.23.25l-3.81.42a.78.78,0,0,0-.68.71l-.44,4.85A.27.27,0,0,1,126.07,156.48ZM123.25,150l1.49.16a1.3,1.3,0,0,1,1.15,1.17l.18,2,.18-2a1.31,1.31,0,0,1,1.15-1.17l1.49-.16-1.49-.17a1.31,1.31,0,0,1-1.15-1.17l-.18-2-.18,2h0a1.3,1.3,0,0,1-1.15,1.17Zm2.38-1.36h0Z" style="fill:#F49200"></path></g></g><g id="freepik--shine--inject-50"><path d="M170.21,82.88a.22.22,0,0,1-.22-.19l-.53-5.88a1,1,0,0,0-.92-1l-4.61-.51a.21.21,0,0,1,0-.42l4.61-.51a1,1,0,0,0,.92-.94l.53-5.89a.22.22,0,0,1,.22-.19.21.21,0,0,1,.21.19l.53,5.89h0a1,1,0,0,0,.92.94l4.61.51a.21.21,0,0,1,0,.42l-4.61.51a1,1,0,0,0-.92,1l-.53,5.88A.21.21,0,0,1,170.21,82.88Zm-4.32-7.74,2.7.3a1.47,1.47,0,0,1,1.3,1.33l.32,3.53.31-3.53a1.48,1.48,0,0,1,1.31-1.33l2.7-.3-2.7-.3a1.47,1.47,0,0,1-1.31-1.33L170.21,70l-.32,3.53a1.46,1.46,0,0,1-1.3,1.33Z" style="fill:#F49200"></path><g style="opacity:0.5"><path d="M162.21,89.31a.17.17,0,0,1-.17-.16l-.3-3.27a.53.53,0,0,0-.46-.48l-2.57-.28a.16.16,0,0,1-.15-.17.17.17,0,0,1,.15-.18l2.57-.28a.53.53,0,0,0,.46-.47l.3-3.28a.16.16,0,0,1,.17-.15h0a.16.16,0,0,1,.17.15l.3,3.28a.53.53,0,0,0,.46.47l2.57.28a.17.17,0,0,1,.15.18.16.16,0,0,1-.15.17l-2.57.28a.53.53,0,0,0-.46.48l-.3,3.27A.17.17,0,0,1,162.21,89.31ZM160.31,85l1,.11a.87.87,0,0,1,.77.79l.12,1.35.12-1.35a.87.87,0,0,1,.77-.79l1-.11-1-.11a.88.88,0,0,1-.77-.79h0l-.12-1.36-.12,1.36a.88.88,0,0,1-.77.79Z" style="fill:#F49200"></path></g></g><g id="freepik--shine--inject-50"><path d="M106.4,251.35a.22.22,0,0,1-.22-.19l-.53-5.89a1,1,0,0,0-.92-.94l-4.61-.51a.21.21,0,0,1,0-.42l4.61-.51a1,1,0,0,0,.92-.95l.53-5.88a.22.22,0,0,1,.22-.19.21.21,0,0,1,.21.19l.53,5.88h0a1,1,0,0,0,.92.95l4.61.51a.21.21,0,0,1,0,.42l-4.61.51a1,1,0,0,0-.92.94l-.53,5.89A.21.21,0,0,1,106.4,251.35Zm-4.32-7.74,2.7.3a1.46,1.46,0,0,1,1.3,1.33l.32,3.53.32-3.53a1.45,1.45,0,0,1,1.3-1.33l2.7-.3-2.7-.3a1.46,1.46,0,0,1-1.3-1.33l-.32-3.53-.32,3.53a1.47,1.47,0,0,1-1.3,1.33Z" style="fill:#F49200"></path><g style="opacity:0.5"><path d="M116.76,261.54a.18.18,0,0,1-.18-.16l-.29-3.27a.51.51,0,0,0-.47-.47l-2.56-.29a.17.17,0,0,1,0-.34l2.56-.29a.51.51,0,0,0,.47-.47l.29-3.27a.18.18,0,0,1,.18-.16h0a.17.17,0,0,1,.17.16l.29,3.27a.52.52,0,0,0,.47.47l2.56.29a.17.17,0,0,1,0,.34l-2.56.29a.52.52,0,0,0-.47.47l-.29,3.27A.17.17,0,0,1,116.76,261.54Zm-1.9-4.36,1,.11a.87.87,0,0,1,.77.79l.13,1.35.12-1.35a.87.87,0,0,1,.77-.79l1-.11-1-.11a.87.87,0,0,1-.77-.79h0l-.12-1.35-.13,1.35a.87.87,0,0,1-.77.79Z" style="fill:#F49200"></path></g><g style="opacity:0.5"><path d="M118.65,233.3a.16.16,0,0,1-.17-.15l-.29-3.28a.54.54,0,0,0-.47-.47l-2.56-.28a.19.19,0,0,1-.16-.18.17.17,0,0,1,.16-.17l2.56-.28a.54.54,0,0,0,.47-.48l.29-3.27a.17.17,0,0,1,.17-.16h0a.18.18,0,0,1,.18.16l.29,3.27a.53.53,0,0,0,.47.48l2.56.28a.17.17,0,0,1,.16.17.19.19,0,0,1-.16.18l-2.56.28a.53.53,0,0,0-.47.47l-.29,3.28A.17.17,0,0,1,118.65,233.3Zm-1.89-4.36,1,.11a.87.87,0,0,1,.77.79l.12,1.36.13-1.36a.87.87,0,0,1,.77-.79l1-.11-1-.11a.86.86,0,0,1-.77-.79h0l-.13-1.35-.12,1.35a.86.86,0,0,1-.77.79Z" style="fill:#F49200"></path></g></g><g id="freepik--shine--inject-50"><path d="M366.81,245.29a.21.21,0,0,1-.21-.19l-.54-5.88a1,1,0,0,0-.92-.95l-4.61-.51a.21.21,0,0,1,0-.42l4.61-.51a1,1,0,0,0,.92-.94l.54-5.89a.21.21,0,0,1,.42,0l.53,5.89h0a1,1,0,0,0,.92.94l4.61.51a.21.21,0,0,1,0,.42l-4.61.51a1,1,0,0,0-.92.95L367,245.1A.21.21,0,0,1,366.81,245.29Zm-4.32-7.74,2.7.3a1.47,1.47,0,0,1,1.3,1.33l.32,3.53.32-3.53a1.47,1.47,0,0,1,1.3-1.33l2.7-.3-2.7-.3a1.46,1.46,0,0,1-1.3-1.33l-.32-3.53-.32,3.53a1.46,1.46,0,0,1-1.3,1.33Z" style="fill:#F49200"></path><g style="opacity:0.5"><path d="M375.06,226a.17.17,0,0,1-.17-.16l-.3-3.27a.53.53,0,0,0-.46-.48l-2.57-.28a.16.16,0,0,1-.15-.17.17.17,0,0,1,.15-.18l2.57-.28a.53.53,0,0,0,.46-.47l.3-3.28a.16.16,0,0,1,.17-.15h0a.16.16,0,0,1,.17.15l.3,3.28a.53.53,0,0,0,.46.47l2.57.28a.17.17,0,0,1,.15.18.16.16,0,0,1-.15.17l-2.57.28a.53.53,0,0,0-.46.48l-.3,3.27A.17.17,0,0,1,375.06,226Zm-1.9-4.36,1,.11a.87.87,0,0,1,.77.79l.12,1.35.12-1.35a.87.87,0,0,1,.78-.79l1-.11-1-.11a.88.88,0,0,1-.78-.79h0l-.12-1.36-.12,1.36a.88.88,0,0,1-.77.79Z" style="fill:#F49200"></path></g><g style="opacity:0.5"><path d="M381.86,257.5a.17.17,0,0,1-.17-.16l-.3-3.28a.53.53,0,0,0-.46-.47l-2.57-.28a.17.17,0,0,1-.15-.18.16.16,0,0,1,.15-.17l2.57-.28a.53.53,0,0,0,.46-.48l.3-3.27a.17.17,0,0,1,.17-.16h0a.17.17,0,0,1,.17.16l.3,3.27a.52.52,0,0,0,.46.48l2.57.28a.17.17,0,0,1,.15.17.18.18,0,0,1-.15.18l-2.57.28a.52.52,0,0,0-.46.47l-.3,3.28A.17.17,0,0,1,381.86,257.5Zm-1.9-4.37,1,.11a.89.89,0,0,1,.78.79l.12,1.36L382,254a.88.88,0,0,1,.77-.79l1-.11-1-.11a.86.86,0,0,1-.77-.79h0l-.12-1.35-.12,1.35a.87.87,0,0,1-.78.79Z" style="fill:#F49200"></path></g></g><g id="freepik--shine--inject-50"><path d="M379.75,155.37a.27.27,0,0,1-.27-.25l-.69-7.64a1.35,1.35,0,0,0-1.2-1.22l-6-.67a.26.26,0,0,1-.24-.27.28.28,0,0,1,.24-.28l6-.66a1.35,1.35,0,0,0,1.2-1.22l.69-7.64a.26.26,0,0,1,.27-.25.27.27,0,0,1,.28.25l.69,7.64a1.35,1.35,0,0,0,1.2,1.22l6,.66a.28.28,0,0,1,.24.28.26.26,0,0,1-.24.27l-6,.67a1.35,1.35,0,0,0-1.2,1.22l-.69,7.64A.27.27,0,0,1,379.75,155.37Zm-5.61-10.05,3.51.39a1.91,1.91,0,0,1,1.69,1.72l.41,4.59.42-4.59a1.91,1.91,0,0,1,1.69-1.72l3.51-.39-3.51-.39a1.91,1.91,0,0,1-1.69-1.72h0l-.42-4.6-.41,4.6a1.91,1.91,0,0,1-1.69,1.72Z" style="fill:#F49200"></path><g style="opacity:0.5"><path d="M364.83,163.79a.22.22,0,0,1-.23-.2l-.38-4.21a.66.66,0,0,0-.59-.61l-3.31-.37a.22.22,0,0,1,0-.44l3.31-.37a.66.66,0,0,0,.59-.61l.38-4.21a.22.22,0,0,1,.23-.2.22.22,0,0,1,.22.2l.38,4.21h0a.67.67,0,0,0,.6.61l3.3.37a.22.22,0,0,1,0,.44l-3.3.37a.67.67,0,0,0-.6.61l-.38,4.21A.22.22,0,0,1,364.83,163.79Zm-2.45-5.61,1.29.14a1.14,1.14,0,0,1,1,1l.16,1.74.15-1.74a1.14,1.14,0,0,1,1-1l1.29-.14L366,158a1.14,1.14,0,0,1-1-1l-.15-1.74-.16,1.74a1.14,1.14,0,0,1-1,1Z" style="fill:#F49200"></path></g><g style="opacity:0.5"><path d="M384.3,178.5a.23.23,0,0,1-.22-.2l-.38-4.22a.68.68,0,0,0-.6-.61l-3.3-.36a.23.23,0,0,1,0-.45l3.3-.36a.68.68,0,0,0,.6-.61l.38-4.22a.23.23,0,0,1,.22-.2.22.22,0,0,1,.22.2l.38,4.22h0a.68.68,0,0,0,.6.61l3.3.36a.23.23,0,0,1,.2.22.23.23,0,0,1-.2.23l-3.3.36a.68.68,0,0,0-.6.61l-.38,4.22A.22.22,0,0,1,384.3,178.5Zm-2.44-5.62,1.29.15a1.13,1.13,0,0,1,1,1l.15,1.75.16-1.75a1.13,1.13,0,0,1,1-1l1.3-.15-1.3-.14a1.13,1.13,0,0,1-1-1L384.3,170l-.15,1.75a1.13,1.13,0,0,1-1,1Z" style="fill:#F49200"></path></g></g><g id="freepik--shine--inject-50" style="opacity:0.5"><path d="M329.08,312.77a.21.21,0,0,1-.21-.19l-.37-4.13a.68.68,0,0,0-.59-.6l-3.23-.35a.23.23,0,0,1-.2-.22.22.22,0,0,1,.2-.22l3.23-.36a.66.66,0,0,0,.59-.6l.37-4.12a.22.22,0,0,1,.21-.2.22.22,0,0,1,.22.2l.37,4.13a.66.66,0,0,0,.59.59l3.23.36a.23.23,0,0,1,.2.22.23.23,0,0,1-.2.22l-3.23.35a.68.68,0,0,0-.59.6l-.37,4.13A.21.21,0,0,1,329.08,312.77Zm-2.39-5.49,1.27.14a1.1,1.1,0,0,1,1,1l.15,1.71.16-1.71a1.1,1.1,0,0,1,1-1l1.27-.14-1.27-.14a1.12,1.12,0,0,1-1-1h0l-.16-1.7-.15,1.7a1.12,1.12,0,0,1-1,1Z" style="fill:#F49200"></path></g><path d="M344.31,325.1a.27.27,0,0,1-.27-.25l-.69-7.64a1.36,1.36,0,0,0-1.2-1.23l-6-.66a.26.26,0,0,1-.24-.27.28.28,0,0,1,.24-.28l6-.66a1.36,1.36,0,0,0,1.2-1.22l.69-7.64a.28.28,0,0,1,.55,0l.69,7.64h0a1.35,1.35,0,0,0,1.2,1.22l6,.66a.28.28,0,0,1,.24.28.27.27,0,0,1-.24.27l-6,.66a1.35,1.35,0,0,0-1.2,1.23l-.69,7.64A.27.27,0,0,1,344.31,325.1Zm-5.6-10.05,3.5.38a1.92,1.92,0,0,1,1.69,1.73l.41,4.59.42-4.59a1.92,1.92,0,0,1,1.69-1.73l3.5-.38-3.5-.39a1.91,1.91,0,0,1-1.69-1.72l-.42-4.6-.41,4.6a1.91,1.91,0,0,1-1.69,1.72Z" style="fill:#F49200"></path><g id="freepik--shine--inject-50" style="opacity:0.5"><path d="M126.05,331.06a.27.27,0,0,1-.27-.24l-.45-5.05a.82.82,0,0,0-.72-.73l-4-.44a.28.28,0,0,1-.24-.27.27.27,0,0,1,.24-.26l4-.44a.82.82,0,0,0,.72-.73l.45-5a.28.28,0,0,1,.27-.25.27.27,0,0,1,.27.25l.45,5a.82.82,0,0,0,.72.73l4,.44a.27.27,0,0,1,.24.26.28.28,0,0,1-.24.27l-4,.44a.82.82,0,0,0-.72.73l-.45,5.05A.26.26,0,0,1,126.05,331.06Zm-2.93-6.73,1.55.17a1.34,1.34,0,0,1,1.19,1.22l.19,2.09.19-2.09a1.35,1.35,0,0,1,1.19-1.22l1.55-.17-1.55-.17a1.35,1.35,0,0,1-1.19-1.22h0l-.19-2.09-.19,2.09a1.34,1.34,0,0,1-1.19,1.22Z" style="fill:#F49200"></path></g></g></g></svg>