<svg xmlns="http://www.w3.org/2000/svg" viewBox="0 0 500 500"><g id="freepik--background-complete--inject-2"><path d="M469.56,276.3c0,.14-96.21.26-214.87.26S39.8,276.44,39.8,276.3,136,276,254.69,276,469.56,276.15,469.56,276.3Z" style="fill:#e0e0e0"></path><path d="M170.31,240a35.06,35.06,0,0,1-23.8-44.92c2.35-7,6.89-13.19,8.83-20.33,2.21-8.1.89-16.69-.47-25s-2.75-16.85-.68-25,8.58-15.78,17-16.36c7.76-.53,14.94,5.22,18.18,12.3s3.27,15.2,2.51,23-2.23,15.49-1.77,23.27c.94,15.73,9.75,30.55,8.72,46.28-.54,8.19-3.71,13.43-9.14,19.59-4.68,5.31-12.45,8.81-19.34,7.18" style="fill:#f0f0f0"></path><path d="M171.8,279.13c-.12,0-.22-28.4-.22-63.42s.1-63.44.22-63.44.21,28.4.21,63.44S171.91,279.13,171.8,279.13Z" style="fill:#e0e0e0"></path><path d="M185.89,202.57c.07.09-3,2.62-6.87,5.63s-7.06,5.4-7.13,5.3,3-2.61,6.87-5.63S185.82,202.48,185.89,202.57Z" style="fill:#e0e0e0"></path><path d="M171.81,200.74a30.49,30.49,0,0,1-4.34-2.74,33.4,33.4,0,0,1-4.09-3.08,29.84,29.84,0,0,1,4.34,2.73A30.88,30.88,0,0,1,171.81,200.74Z" style="fill:#e0e0e0"></path><polygon points="85.06 155.7 67.93 190.25 73.04 190.44 58.53 217.9 66.15 217.9 54.26 242.3 120.73 242.3 106.1 217.9 113.11 217.6 99.08 190.15 104.27 189.85 85.06 155.7" style="fill:#f0f0f0"></polygon><path d="M85.71,195.66c.14,0,0,17.94-.22,40.06s-.6,40.06-.74,40.06,0-17.94.22-40.07S85.56,195.65,85.71,195.66Z" style="fill:#e0e0e0"></path><path d="M95.59,206a41.37,41.37,0,0,1-4.87,4.37,41.41,41.41,0,0,1-5.2,4A41.93,41.93,0,0,1,90.39,210,41.87,41.87,0,0,1,95.59,206Z" style="fill:#e0e0e0"></path><path d="M67.13,89h48.75s0-11.16-5.76-11.16a8.87,8.87,0,0,0-8.94,6.92S101.18,64,90.7,67c-9.91,2.9-11,16.23-11,16.23s-1.79-6.71-7.16-2.93S67.13,89,67.13,89Z" style="fill:#f0f0f0"></path></g><g id="freepik--Floor--inject-2"><path d="M481.88,439.52c0,.14-100.85.26-225.22.26s-225.25-.12-225.25-.26,100.83-.26,225.25-.26S481.88,439.37,481.88,439.52Z" style="fill:#263238"></path></g><g id="freepik--House--inject-2"><polygon points="223.37 140.8 223.37 324.4 429.86 324.4 429.86 140.8 407.52 140.8 362.3 84.13 324.16 140.25 223.37 140.8" style="fill:#F49200"></polygon><g style="opacity:0.5"><polygon points="223.37 140.8 223.37 324.4 429.86 324.4 429.86 140.8 407.52 140.8 362.3 84.13 324.16 140.25 223.37 140.8" style="fill:#fff"></polygon></g><path d="M264.19,73.31c-1,1.36-59.31,70.15-59.31,70.15H322.82L362.3,84.13l45.22,56.67,41.36-.05L398.39,71.62Z" style="fill:#263238"></path><rect x="254.44" y="316.79" width="48.93" height="7.62" style="fill:#e6e6e6"></rect><rect x="243.17" y="328.19" width="65.29" height="5.91" style="fill:#e6e6e6"></rect><polygon points="257.69 242.97 258.09 316.38 300.12 316.38 300.12 242.97 257.69 242.97" style="fill:#F49200"></polygon><g style="opacity:0.2"><polygon points="257.69 242.97 258.09 316.38 300.12 316.38 300.12 242.97 257.69 242.97"></polygon></g><g style="opacity:0.4"><circle cx="290.7" cy="279.68" r="1.85"></circle></g><polygon points="279.05 217.76 240.29 249.71 240.29 258.55 279.39 226.79 315.2 256.14 315.2 246.91 279.05 217.76" style="fill:#263238"></polygon><rect x="291" y="63.82" width="9.06" height="12.55" style="fill:#F49200"></rect><rect x="306.18" y="57.21" width="9.55" height="19.16" style="fill:#F49200"></rect><g style="opacity:0.4"><rect x="291" y="63.82" width="9.06" height="12.55"></rect><rect x="306.18" y="57.21" width="9.55" height="19.16"></rect></g><rect x="358.4" y="113.64" width="10.68" height="10.68" style="fill:#fff"></rect><g style="opacity:0.1"><polygon points="322.82 143.46 328.51 143.46 365.87 88.61 362.3 84.13 322.82 143.46"></polygon></g><g style="opacity:0.1"><polygon points="223.37 143.46 223.37 149.39 322.82 143.46 223.37 143.46"></polygon></g><g style="opacity:0.1"><polygon points="407.52 140.8 429.86 148.21 429.86 140.8 407.52 140.8"></polygon></g><rect x="249.31" y="321.48" width="56.87" height="7.39" style="fill:#e6e6e6"></rect><path d="M304.69,321.58c0,.14-12.3.26-27.47.26s-27.46-.12-27.46-.26,12.29-.26,27.46-.26S304.69,321.43,304.69,321.58Z" style="fill:#e0e0e0"></path><path d="M304.69,328.19c0,.14-12.3.26-27.47.26s-27.46-.12-27.46-.26,12.29-.26,27.46-.26S304.69,328,304.69,328.19Z" style="fill:#e0e0e0"></path><rect x="254.44" y="153.63" width="47.39" height="45.02" style="fill:#fff"></rect><path d="M275.88,153.63s-13.44,22.91-20.8,23.11c0,0,6.82,3.48,7.34,21.91h-8v-45Z" style="fill:#F49200"></path><path d="M280.39,153.63s13.43,22.91,20.8,23.11c0,0-6.83,3.48-7.34,21.91h8v-45Z" style="fill:#F49200"></path><rect x="277" y="153.23" width="1.5" height="48.02" style="fill:#263238"></rect><rect x="277" y="153.23" width="1.5" height="48.02" transform="translate(100.51 454.99) rotate(-90)" style="fill:#263238"></rect><rect x="251.28" y="198.65" width="52.93" height="1.12" style="fill:#263238"></rect><rect x="353.38" y="153.63" width="47.39" height="45.02" style="fill:#fff"></rect><path d="M374.82,153.63s-13.43,22.91-20.8,23.11c0,0,6.83,3.48,7.34,21.91h-8v-45Z" style="fill:#F49200"></path><path d="M379.33,153.63s13.43,22.91,20.8,23.11c0,0-6.82,3.48-7.34,21.91h8v-45Z" style="fill:#F49200"></path><rect x="375.94" y="153.23" width="1.5" height="48.02" style="fill:#263238"></rect><rect x="375.94" y="153.23" width="1.5" height="48.02" transform="translate(199.45 553.93) rotate(-90)" style="fill:#263238"></rect><rect x="350.23" y="198.65" width="52.93" height="1.12" style="fill:#263238"></rect><rect x="353.38" y="248.7" width="47.39" height="45.02" style="fill:#fff"></rect><path d="M374.82,248.7s-13.43,22.92-20.8,23.12c0,0,6.83,3.48,7.34,21.9h-8v-45Z" style="fill:#F49200"></path><path d="M379.33,248.7s13.43,22.92,20.8,23.12c0,0-6.82,3.48-7.34,21.9h8v-45Z" style="fill:#F49200"></path><rect x="375.94" y="248.3" width="1.5" height="48.02" style="fill:#263238"></rect><rect x="375.94" y="248.3" width="1.5" height="48.02" transform="translate(104.38 649.01) rotate(-90)" style="fill:#263238"></rect><rect x="350.23" y="293.72" width="52.93" height="1.12" style="fill:#263238"></rect></g><g id="freepik--Sign--inject-2"><polygon points="228.17 288.48 228.17 438.8 241.07 438.8 241.07 298.58 339.22 298.58 339.22 288.48 228.17 288.48" style="fill:#455a64"></polygon><rect x="236.9" y="298.58" width="4.17" height="140.22" style="fill:#263238"></rect><rect x="331.37" y="288.48" width="7.85" height="10.1" style="fill:#263238"></rect><rect x="246.83" y="305.94" width="94.7" height="59.72" style="fill:#F49200"></rect><rect x="246.83" y="305.94" width="94.7" height="59.72" style="fill:#F49200"></rect><rect x="336.31" y="305.94" width="5.23" height="59.72" style="fill:#F49200"></rect><g style="opacity:0.2"><rect x="336.31" y="305.94" width="5.23" height="59.72"></rect></g><path d="M331.37,360.51s0-.32,0-.91,0-1.48,0-2.61c0-2.3,0-5.65-.05-9.94,0-8.59-.06-20.93-.11-36l.21.2-79,.06h0l.26-.26c0,17.54,0,34.26,0,49.48l-.24-.24,56.8.11,16.29.07,4.35,0H331l.39,0h-1.46l-4.3,0-16.25.07-57,.12h-.24v-.24c0-15.22,0-31.94,0-49.48v-.27h.27l79,.06h.2V311c0,15.14-.08,27.53-.1,36.15,0,4.27,0,7.6-.06,9.89l0,2.57C331.38,360.22,331.37,360.51,331.37,360.51Z" style="fill:#263238"></path><rect x="262.31" y="298.58" width="2.81" height="7.36" style="fill:#F49200"></rect><rect x="308.56" y="298.58" width="2.81" height="7.36" style="fill:#F49200"></rect><path d="M278.12,323.35v3.14h6.29v3.12h-6.29v4.88h-4V320.23h11.18v3.12Z" style="fill:#F49200"></path><path d="M278.12,323.35v3.14h6.29v3.12h-6.29v4.88h-4V320.23h11.18v3.12Z" style="opacity:0.2"></path><path d="M286.31,327.36c0-4.27,3.36-7.41,7.92-7.41s7.93,3.14,7.93,7.41-3.36,7.42-7.93,7.42S286.31,331.64,286.31,327.36Zm11.77,0a3.86,3.86,0,1,0-3.85,4.08A3.82,3.82,0,0,0,298.08,327.36Z" style="fill:#F49200"></path><path d="M286.31,327.36c0-4.27,3.36-7.41,7.92-7.41s7.93,3.14,7.93,7.41-3.36,7.42-7.93,7.42S286.31,331.64,286.31,327.36Zm11.77,0a3.86,3.86,0,1,0-3.85,4.08A3.82,3.82,0,0,0,298.08,327.36Z" style="opacity:0.2"></path><path d="M310.51,330.7h-2.2v3.79h-4V320.23h6.52c3.89,0,6.33,2,6.33,5.28a4.72,4.72,0,0,1-2.79,4.5l3.08,4.48H313.1Zm0-7.29h-2.24v4.18h2.24c1.67,0,2.51-.78,2.51-2.08S312.22,323.41,310.55,323.41Z" style="fill:#F49200"></path><path d="M310.51,330.7h-2.2v3.79h-4V320.23h6.52c3.89,0,6.33,2,6.33,5.28a4.72,4.72,0,0,1-2.79,4.5l3.08,4.48H313.1Zm0-7.29h-2.24v4.18h2.24c1.67,0,2.51-.78,2.51-2.08S312.22,323.41,310.55,323.41Z" style="opacity:0.2"></path><path d="M266.78,353.48l1.39-3.12a9.36,9.36,0,0,0,4.93,1.47c1.75,0,2.44-.49,2.44-1.21,0-2.37-8.51-.64-8.51-6.2,0-2.67,2.18-4.85,6.63-4.85a11.12,11.12,0,0,1,5.42,1.31l-1.3,3.14a8.83,8.83,0,0,0-4.15-1.16c-1.77,0-2.41.6-2.41,1.35,0,2.28,8.48.58,8.48,6.09,0,2.6-2.18,4.82-6.62,4.82A11.79,11.79,0,0,1,266.78,353.48Z" style="fill:#F49200"></path><path d="M266.78,353.48l1.39-3.12a9.36,9.36,0,0,0,4.93,1.47c1.75,0,2.44-.49,2.44-1.21,0-2.37-8.51-.64-8.51-6.2,0-2.67,2.18-4.85,6.63-4.85a11.12,11.12,0,0,1,5.42,1.31l-1.3,3.14a8.83,8.83,0,0,0-4.15-1.16c-1.77,0-2.41.6-2.41,1.35,0,2.28,8.48.58,8.48,6.09,0,2.6-2.18,4.82-6.62,4.82A11.79,11.79,0,0,1,266.78,353.48Z" style="opacity:0.2"></path><path d="M291.67,351.92h-6.33l-1.17,2.91h-4.32l6.6-15h4.17l6.62,15h-4.4Zm-1.24-3.12L288.5,344l-1.92,4.78Z" style="fill:#F49200"></path><path d="M291.67,351.92h-6.33l-1.17,2.91h-4.32l6.6-15h4.17l6.62,15h-4.4Zm-1.24-3.12L288.5,344l-1.92,4.78Z" style="opacity:0.2"></path><path d="M298.44,339.87h4.23v11.6h7.14v3.36H298.44Z" style="fill:#F49200"></path><path d="M298.44,339.87h4.23v11.6h7.14v3.36H298.44Z" style="opacity:0.2"></path><path d="M323.48,351.56v3.27h-12v-15H323.2v3.27h-7.54v2.52h6.64v3.16h-6.64v2.74Z" style="fill:#F49200"></path><path d="M323.48,351.56v3.27h-12v-15H323.2v3.27h-7.54v2.52h6.64v3.16h-6.64v2.74Z" style="opacity:0.2"></path><path d="M329.51,315.12c-.05,0-.06-.19-.17-.49a2.05,2.05,0,0,0-.77-1,1.88,1.88,0,0,0-1.78-.22,1.85,1.85,0,0,0-1.19,1.73,1.87,1.87,0,0,0,1.19,1.73,1.94,1.94,0,0,0,1.78-.22,2.11,2.11,0,0,0,.77-1c.11-.3.12-.48.17-.48s.08.18,0,.53a2.06,2.06,0,0,1-.75,1.27,2.26,2.26,0,0,1-2.16.38,2.32,2.32,0,0,1,0-4.37,2.26,2.26,0,0,1,2.16.38,2.06,2.06,0,0,1,.75,1.27C329.59,314.93,329.53,315.12,329.51,315.12Z" style="fill:#263238"></path><path d="M328.56,313.87c.1.1-.27.66-.84,1.26s-1.1,1-1.21.91.27-.66.84-1.26S328.45,313.77,328.56,313.87Z" style="fill:#263238"></path><path d="M328.78,315.9c0,.13-.77,0-1.46-.62s-1-1.23-.89-1.31.59.39,1.22.91S328.84,315.76,328.78,315.9Z" style="fill:#263238"></path><path d="M328.74,357.28s-.06-.19-.16-.49a2.11,2.11,0,0,0-.77-1,1.89,1.89,0,0,0-1.78-.22,1.85,1.85,0,0,0-1.19,1.73A1.87,1.87,0,0,0,326,359a1.94,1.94,0,0,0,1.78-.22,2.18,2.18,0,0,0,.77-1c.1-.3.12-.48.16-.48s.09.18,0,.53a2.09,2.09,0,0,1-.74,1.27,2.27,2.27,0,0,1-2.16.38,2.31,2.31,0,0,1,0-4.37,2.27,2.27,0,0,1,2.16.38,2.09,2.09,0,0,1,.74,1.27C328.83,357.09,328.77,357.28,328.74,357.28Z" style="fill:#263238"></path><path d="M327.79,356c.11.1-.26.66-.83,1.26s-1.1,1-1.21.91.27-.66.83-1.26S327.69,355.93,327.79,356Z" style="fill:#263238"></path><path d="M328,358.06c0,.13-.77-.05-1.46-.62s-1-1.23-.89-1.31.59.39,1.22.91S328.08,357.92,328,358.06Z" style="fill:#263238"></path><path d="M258.71,356.26s-.06-.18-.17-.48a2.11,2.11,0,0,0-.77-1,1.94,1.94,0,0,0-1.78-.22,1.88,1.88,0,0,0-1.19,1.73A1.86,1.86,0,0,0,256,358a1.88,1.88,0,0,0,1.78-.22,2.05,2.05,0,0,0,.77-1c.11-.3.12-.49.17-.49s.08.19,0,.54a2.06,2.06,0,0,1-.75,1.27,2.26,2.26,0,0,1-2.16.38,2.32,2.32,0,0,1,0-4.37,2.26,2.26,0,0,1,2.16.38,2.06,2.06,0,0,1,.75,1.27C258.79,356.08,258.73,356.27,258.71,356.26Z" style="fill:#263238"></path><path d="M257.76,355c.1.09-.27.66-.83,1.26s-1.11,1-1.22.91.27-.67.84-1.27S257.65,354.92,257.76,355Z" style="fill:#263238"></path><path d="M258,357.05c-.05.13-.77-.06-1.46-.62s-1-1.24-.89-1.31.59.39,1.22.9S258,356.91,258,357.05Z" style="fill:#263238"></path><path d="M259.08,315.94c-.05,0-.06-.18-.17-.48a2.11,2.11,0,0,0-.77-1,1.94,1.94,0,0,0-1.78-.22,1.87,1.87,0,0,0-1.19,1.73,1.85,1.85,0,0,0,1.19,1.73,1.88,1.88,0,0,0,1.78-.22,2.05,2.05,0,0,0,.77-1c.11-.3.12-.49.17-.49s.08.19,0,.54a2.06,2.06,0,0,1-.75,1.27,2.26,2.26,0,0,1-2.16.38,2.32,2.32,0,0,1,0-4.37,2.26,2.26,0,0,1,2.16.38,2.06,2.06,0,0,1,.75,1.27C259.16,315.76,259.1,315.94,259.08,315.94Z" style="fill:#263238"></path><path d="M258.13,314.7c.1.09-.27.66-.84,1.26s-1.1,1-1.21.91.27-.67.84-1.27S258,314.6,258.13,314.7Z" style="fill:#263238"></path><path d="M258.35,316.73c-.05.13-.77-.06-1.46-.62s-1-1.24-.89-1.31.59.39,1.22.9S258.41,316.59,258.35,316.73Z" style="fill:#263238"></path><path d="M274.11,323.35v3.14h6.29v3.12h-6.29v4.88h-4V320.23h11.19v3.12Z" style="fill:#fafafa"></path><path d="M282.3,327.36c0-4.27,3.36-7.41,7.92-7.41s7.92,3.14,7.92,7.41-3.36,7.42-7.92,7.42S282.3,331.64,282.3,327.36Zm11.77,0a3.86,3.86,0,1,0-3.85,4.08A3.82,3.82,0,0,0,294.07,327.36Z" style="fill:#fafafa"></path><path d="M306.5,330.7h-2.2v3.79h-4V320.23h6.52c3.89,0,6.34,2,6.34,5.28a4.72,4.72,0,0,1-2.79,4.5l3.07,4.48h-4.32Zm0-7.29H304.3v4.18h2.24c1.67,0,2.5-.78,2.5-2.08S308.21,323.41,306.54,323.41Z" style="fill:#fafafa"></path><path d="M262.76,353.48l1.39-3.12a9.42,9.42,0,0,0,4.94,1.47c1.75,0,2.43-.49,2.43-1.21,0-2.37-8.5-.64-8.5-6.2,0-2.67,2.18-4.85,6.62-4.85a11.16,11.16,0,0,1,5.43,1.31L273.76,344a8.83,8.83,0,0,0-4.14-1.16c-1.77,0-2.41.6-2.41,1.35,0,2.28,8.48.58,8.48,6.09,0,2.6-2.18,4.82-6.63,4.82A11.81,11.81,0,0,1,262.76,353.48Z" style="fill:#fafafa"></path><path d="M287.65,351.92h-6.32l-1.18,2.91h-4.31l6.6-15h4.17l6.62,15h-4.4Zm-1.24-3.12L284.49,344l-1.92,4.78Z" style="fill:#fafafa"></path><path d="M294.43,339.87h4.22v11.6h7.14v3.36H294.43Z" style="fill:#fafafa"></path><path d="M319.46,351.56v3.27h-12v-15h11.73v3.27h-7.54v2.52h6.64v3.16h-6.64v2.74Z" style="fill:#fafafa"></path></g><g id="freepik--Plants--inject-2"><path d="M377.47,416.66c-6-3.23-8.41-7.79-9.83-14.46a23.93,23.93,0,0,1,4.43-19.31c3.49-4.49,8.61-7.77,11-12.92,2.54-5.5,1.62-12.49,5.49-17.14,2.66-3.2,6.94-4.47,10.35-6.86,2.77-2,4.93-4.64,7.41-7s5.51-4.36,8.9-4.5c5.12-.2,9.64,4.33,10.47,9.38s-1.45,10.24-4.95,14c-2.53,2.71-5.79,4.94-7.26,8.35-2.77,6.41,1.81,14.33-1.23,20.61-2.22,4.59-8.14,7.34-8.41,12.43-.11,1.87.63,3.68.83,5.54.63,5.83-4.27,11.15-9.88,12.84s-11.67.57-17.32-1" style="fill:#F49200"></path><path d="M406.59,356.24a4,4,0,0,1-.53.75l-1.63,2.07c-.72.88-1.59,2-2.52,3.3s-2.08,2.77-3.15,4.5c-.56.85-1.15,1.74-1.75,2.67s-1.16,2-1.78,3c-1.25,2-2.39,4.33-3.64,6.71A112.54,112.54,0,0,0,381,412.47c-.36,2.67-.75,5.2-.9,7.59-.09,1.19-.22,2.34-.27,3.45s-.07,2.18-.11,3.2c-.12,2,0,3.88,0,5.49s.07,3,.16,4.15.1,2,.14,2.63a5.43,5.43,0,0,1,0,.92,4.18,4.18,0,0,1-.14-.91c-.07-.67-.16-1.54-.27-2.62s-.25-2.53-.28-4.15-.17-3.48-.09-5.52c0-1,.05-2.1.07-3.21s.15-2.28.23-3.48c.13-2.4.5-4.95.84-7.64A109.66,109.66,0,0,1,391,378.93c1.27-2.39,2.44-4.68,3.72-6.72.63-1,1.2-2,1.82-3l1.8-2.66c1.11-1.72,2.28-3.16,3.25-4.46s1.86-2.38,2.62-3.24l1.73-2A4,4,0,0,1,406.59,356.24Z" style="fill:#263238"></path><path d="M351.18,394.79a9,9,0,0,1,6.21,3.25,15.75,15.75,0,0,1,3.12,6.43c1.16,4.5.38,9.79-.94,14.24-4.85-1.77-7.8-7-9.13-9.72-2.11-4.33-3.28-13.42.74-14.2" style="fill:#F49200"></path><path d="M366.52,424.22a7.6,7.6,0,0,1-.29-7.66,10.08,10.08,0,0,1,6.14-4.86,4.3,4.3,0,0,1,3.6.2A3.27,3.27,0,0,1,377.2,415a6.59,6.59,0,0,1-1.43,3.13c-2.39,3.18-5.29,5.82-9.25,6.12" style="fill:#F49200"></path><g style="opacity:0.2"><path d="M351.18,394.79a9,9,0,0,1,6.21,3.25,15.75,15.75,0,0,1,3.12,6.43c1.16,4.5.38,9.79-.94,14.24-4.85-1.77-7.8-7-9.13-9.72-2.11-4.33-3.28-13.42.74-14.2"></path></g><g style="opacity:0.2"><path d="M366.52,424.22a7.6,7.6,0,0,1-.29-7.66,10.08,10.08,0,0,1,6.14-4.86,4.3,4.3,0,0,1,3.6.2A3.27,3.27,0,0,1,377.2,415a6.59,6.59,0,0,1-1.43,3.13c-2.39,3.18-5.29,5.82-9.25,6.12"></path></g><g style="opacity:0.2"><path d="M361.47,428.63a17.86,17.86,0,0,0-14.34-7.78c-1.44,0-3.15.32-3.72,1.65s.38,2.8,1.42,3.8A15.27,15.27,0,0,0,361.55,429"></path></g><path d="M361.47,428.63a17.86,17.86,0,0,0-14.34-7.78c-1.44,0-3.15.32-3.72,1.65s.38,2.8,1.42,3.8A15.27,15.27,0,0,0,361.55,429" style="fill:#F49200"></path><path d="M366.56,439.65a3.21,3.21,0,0,1-.24-.94c-.12-.62-.28-1.51-.44-2.62a32.75,32.75,0,0,1-.22-8.78A16.34,16.34,0,0,1,369,419.2a10.44,10.44,0,0,1,1.91-1.87,3.34,3.34,0,0,1,.83-.52,22.51,22.51,0,0,0-2.45,2.61,17.23,17.23,0,0,0-3.07,8,38.17,38.17,0,0,0,.08,8.66A31.41,31.41,0,0,1,366.56,439.65Z" style="fill:#263238"></path><path d="M352.69,401.64a10.79,10.79,0,0,1,.71,1.44c.44.94,1,2.32,1.76,4,1.45,3.41,3.38,8.15,5.38,13.43s3.69,10.12,4.85,13.64c.59,1.75,1,3.18,1.34,4.17a10.51,10.51,0,0,1,.42,1.56,8.88,8.88,0,0,1-.61-1.49c-.38-1.06-.89-2.45-1.5-4.12-1.25-3.49-3-8.29-5-13.57s-3.87-10-5.23-13.48l-1.6-4.08A9.31,9.31,0,0,1,352.69,401.64Z" style="fill:#263238"></path><path d="M349.61,424.38a3.31,3.31,0,0,1,.93,0,7.22,7.22,0,0,1,1.09.13,12.29,12.29,0,0,1,1.43.3,19.55,19.55,0,0,1,3.56,1.29,21.75,21.75,0,0,1,3.92,2.5,21,21,0,0,1,3.24,3.33,18.11,18.11,0,0,1,2,3.22,11.73,11.73,0,0,1,.58,1.33,8.17,8.17,0,0,1,.36,1,3.09,3.09,0,0,1,.2.92c-.09,0-.46-1.25-1.46-3.12a21.66,21.66,0,0,0-2-3.1,23.66,23.66,0,0,0-3.2-3.22,24,24,0,0,0-3.8-2.47,21.93,21.93,0,0,0-3.45-1.37C350.92,424.58,349.6,424.48,349.61,424.38Z" style="fill:#263238"></path></g><g id="freepik--Character--inject-2"><path d="M123,436.44l-.25,2.21s-5.83,13.68-4.75,14.71a5,5,0,0,0,5.59.87c2.58-1.07,12.3-13.49,12.3-13.49l.39-1.82Z" style="fill:#F49200"></path><path d="M118.39,450.48s3.1-2,5.69,2c0,0,1.36-.76,4.83-4.74s6.81-7.85,6.81-7.85.36-.39.29,0-.15.95-.15.95l-6.64,8s-4,4.69-5.1,5.19a5.18,5.18,0,0,1-3.79.65,4.16,4.16,0,0,1-2.5-1.56C117.8,452.89,118.39,450.48,118.39,450.48Z" style="fill:#f0f0f0"></path><path d="M124.75,453.82a6.35,6.35,0,0,0-6.28-3.77,2.65,2.65,0,0,1,1.17-.16,5.42,5.42,0,0,1,2.73.79,5.57,5.57,0,0,1,2,2A2.41,2.41,0,0,1,124.75,453.82Z" style="fill:#263238"></path><path d="M136.28,439.25a7.69,7.69,0,0,1-.6.78L134,442.09l-5.79,6.71a28.81,28.81,0,0,1-3.39,3.54,6.37,6.37,0,0,1-3.7,1.51,3.92,3.92,0,0,1-2.56-.84,2.28,2.28,0,0,1-.64-.76,6.7,6.7,0,0,0,.72.66,3.86,3.86,0,0,0,2.47.72,6.23,6.23,0,0,0,3.53-1.52,29.83,29.83,0,0,0,3.34-3.51l5.85-6.66,1.8-2A5.11,5.11,0,0,1,136.28,439.25Z" style="fill:#263238"></path><path d="M124.92,446.43a6.2,6.2,0,0,1-1.58-.63,7.56,7.56,0,0,1-1.52-.76,3.71,3.71,0,0,1,1.65.47A3.82,3.82,0,0,1,124.92,446.43Z" style="fill:#263238"></path><path d="M126.29,444.37a8.12,8.12,0,0,1-1.87-.42,7.71,7.71,0,0,1-1.83-.56,7.82,7.82,0,0,1,3.7,1Z" style="fill:#263238"></path><path d="M127.58,442.59c-.06.07-.85-.41-1.94-.74s-2-.4-2-.49a5,5,0,0,1,4,1.23Z" style="fill:#263238"></path><path d="M128.18,440.61c-.05.08-.77-.28-1.72-.53a16.83,16.83,0,0,1-1.75-.41,4.53,4.53,0,0,1,3.47.94Z" style="fill:#455a64"></path><path d="M127.52,438.93a2.72,2.72,0,0,1-1.07-.47,6.41,6.41,0,0,1-1-.75c-.17-.16-.35-.34-.53-.53a1.67,1.67,0,0,1-.26-.34.51.51,0,0,1,0-.53.8.8,0,0,1,.88-.25,1.85,1.85,0,0,1,.72.34,2.4,2.4,0,0,1,.76,1.05,2.16,2.16,0,0,1,.2,1.15s-.11-.44-.4-1.06a2.45,2.45,0,0,0-.73-.91c-.32-.24-.93-.44-1.17-.15-.09.11,0,.31.22.5a6.2,6.2,0,0,0,.5.52,9.4,9.4,0,0,0,.94.78C127.14,438.69,127.54,438.89,127.52,438.93Z" style="fill:#455a64"></path><path d="M127.31,438.74a2.05,2.05,0,0,1,.37-1.14,3.26,3.26,0,0,1,.88-1,3,3,0,0,1,.69-.39.93.93,0,0,1,.45-.07.52.52,0,0,1,.45.32,1,1,0,0,1-.21.89,2.77,2.77,0,0,1-.5.61,3,3,0,0,1-1.14.66,1.82,1.82,0,0,1-1.19.08,9.43,9.43,0,0,0,1.12-.29,3.17,3.17,0,0,0,1-.66,2.72,2.72,0,0,0,.44-.56.83.83,0,0,0,.18-.62c-.05-.15-.29-.16-.51-.07a3.08,3.08,0,0,0-.62.34,3.36,3.36,0,0,0-.87.85C127.46,438.3,127.37,438.75,127.31,438.74Z" style="fill:#455a64"></path><path d="M133.93,438.59a2.13,2.13,0,0,0-1.07.25,4.12,4.12,0,0,0-1.64,2.06,4.43,4.43,0,0,0-.11,2.65c.18.67.42,1.05.38,1.08a2.18,2.18,0,0,1-.59-1,4.12,4.12,0,0,1,0-2.82,4,4,0,0,1,1.83-2.15C133.47,438.3,134,438.56,133.93,438.59Z" style="fill:#263238"></path><path d="M130.17,444.35a5.67,5.67,0,0,1-1.08,1.5,5.5,5.5,0,0,1-1.32,1.29,5.67,5.67,0,0,1,1.08-1.5A5.5,5.5,0,0,1,130.17,444.35Z" style="fill:#263238"></path><path d="M131.52,443.11c.09,0,.19.18.28.43s.13.47,0,.51-.25-.13-.34-.41S131.44,443.13,131.52,443.11Z" style="fill:#263238"></path><path d="M131.66,441.13c.08,0,.07.26,0,.52s-.13.47-.22.46-.15-.24-.09-.52S131.58,441.1,131.66,441.13Z" style="fill:#263238"></path><path d="M132.82,439.53c.05.07-.08.26-.26.44s-.37.33-.44.28,0-.28.21-.49S132.76,439.46,132.82,439.53Z" style="fill:#455a64"></path><path d="M134.64,438.76c0,.09-.2.18-.45.25s-.48.1-.51,0,.15-.24.43-.32S134.63,438.68,134.64,438.76Z" style="fill:#455a64"></path><path d="M155.07,441.38l2-9.15-17.11-3.79-3,13.34,1.05.31c4.66,1.31,23.79,6.33,27.16,6.07C168.88,447.88,155.07,441.38,155.07,441.38Z" style="fill:#F49200"></path><path d="M143.14,443a6,6,0,0,0-1.37-4.13,5.92,5.92,0,0,0-3.72-2.14L137,441.54Z" style="fill:#F49200"></path><path d="M161.76,444.81s4.77,2.6,4,3.3-20.35-3.65-28.8-6.33l.11-.37,22.74,5.26S160.75,444.63,161.76,444.81Z" style="fill:#f0f0f0"></path><path d="M136.76,441.34a1.33,1.33,0,0,0,.28.1l.84.23,3.08.83c2.6.68,6.21,1.57,10.22,2.47s7.65,1.62,10.3,2.12l3.14.56.85.14.3,0a1.25,1.25,0,0,0-.29-.07l-.85-.18-3.12-.63c-2.64-.53-6.28-1.29-10.28-2.18S143.61,443,141,442.35l-3.09-.76-.85-.2Z" style="fill:#263238"></path><path d="M159.69,446.94a7.44,7.44,0,0,1,.91-1.36,7.34,7.34,0,0,1,1.33-.95,2.35,2.35,0,0,0-1.48.81A2.37,2.37,0,0,0,159.69,446.94Z" style="fill:#263238"></path><path d="M155.22,443.25c0,.05.35-.19.68-.53s.58-.65.54-.69-.35.2-.69.54S155.18,443.21,155.22,443.25Z" style="fill:#263238"></path><path d="M154,442.21c0,.05.34-.07.7-.26s.61-.41.59-.46-.34.07-.7.27S154,442.16,154,442.21Z" style="fill:#263238"></path><path d="M153.48,440.4c0,.06.37.2.87.32a2,2,0,0,0,.91.1,2.28,2.28,0,0,0-.87-.31A2.13,2.13,0,0,0,153.48,440.4Z" style="fill:#263238"></path><path d="M153.43,439.2a1.75,1.75,0,0,0,.93.51,1.69,1.69,0,0,0,1.06.09,5,5,0,0,0-1-.29A6.31,6.31,0,0,0,153.43,439.2Z" style="fill:#263238"></path><path d="M156.13,441.89a3.24,3.24,0,0,0,1.1.24,7.19,7.19,0,0,0,1.23,0,3.36,3.36,0,0,0,.73-.12.64.64,0,0,0,.35-.29.44.44,0,0,0-.07-.47,2.08,2.08,0,0,0-2.63,0,2.11,2.11,0,0,0-.52.66.65.65,0,0,0-.09.29,3,3,0,0,1,.71-.83A2,2,0,0,1,158,441a1.72,1.72,0,0,1,1.29.38c.15.17,0,.36-.19.43a2.94,2.94,0,0,1-.67.13,8.5,8.5,0,0,1-1.2,0C156.56,442,156.14,441.86,156.13,441.89Z" style="fill:#263238"></path><path d="M156.4,442a1.15,1.15,0,0,0,.3-.74,1.88,1.88,0,0,0-.12-.87,1.16,1.16,0,0,0-.79-.76.44.44,0,0,0-.45.43,1.18,1.18,0,0,0,.07.54,3.55,3.55,0,0,0,.37.78,1.66,1.66,0,0,0,.53.58s-.17-.25-.4-.66a4.27,4.27,0,0,1-.31-.76c-.1-.27-.11-.71.18-.7s.5.37.62.63a1.79,1.79,0,0,1,.15.78A4,4,0,0,1,156.4,442Z" style="fill:#263238"></path><path d="M138.15,436.74s.5.06,1.25.32a5.52,5.52,0,0,1,3.69,4.57c.09.79,0,1.29,0,1.29a1.31,1.31,0,0,0,.08-.34,4.3,4.3,0,0,0,0-1,5.32,5.32,0,0,0-3.78-4.69,4.62,4.62,0,0,0-.95-.19C138.27,436.72,138.15,436.72,138.15,436.74Z" style="fill:#263238"></path><path d="M141.5,430a34.29,34.29,0,0,0-.93,3.48,31.45,31.45,0,0,0-.72,3.53,29.94,29.94,0,0,0,.93-3.48A28.16,28.16,0,0,0,141.5,430Z" style="fill:#455a64"></path><path d="M145.67,441.84a14.6,14.6,0,0,0,5,1.16c0-.06-1.12-.24-2.49-.56S145.69,441.78,145.67,441.84Z" style="fill:#263238"></path><path d="M142.32,441.09c-.06,0,0,.25.09.54s.07.52.13.53.15-.25.08-.58S142.36,441.05,142.32,441.09Z" style="fill:#263238"></path><path d="M141.4,439.23c-.05,0,0,.24.16.46s.29.37.34.34,0-.24-.16-.46S141.45,439.2,141.4,439.23Z" style="fill:#455a64"></path><path d="M139.75,438.11c0,.06.23.11.46.26s.39.32.44.29,0-.3-.33-.47S139.75,438.06,139.75,438.11Z" style="fill:#455a64"></path><path d="M138.54,437.49c0,.05.05.16.18.24s.26.12.29.07,0-.16-.17-.24S138.58,437.44,138.54,437.49Z" style="fill:#455a64"></path><path d="M163.22,286.6,143,279.44h0l-27.9,5.06.8,156.32,26.48-.35s0-1.82-.06-5l15.53,4.25s15.13-51.12,20.29-72.1C182.41,350.1,163.22,286.6,163.22,286.6ZM142,410c-.41-37.82-.95-98.29-.4-106.16,0,0,14.83,52.78,15,57.25C156.67,363.78,148.45,389.91,142,410Z" style="fill:#263238"></path><path d="M142.26,408.54c.14,0,.26,7,.26,15.65s-.11,15.66-.25,15.66-.26-7-.27-15.66S142.12,408.54,142.26,408.54Z" style="fill:#455a64"></path><path d="M148,436.76s0-.12.07-.36.14-.61.25-1c.23-.95.56-2.3,1-4,.89-3.51,2.16-8.54,3.74-14.74,3.21-12.47,7.63-29.64,12.52-48.6,1-3.83,2-7.58,2.9-11.17v.11c-3.25-16.56-6.5-31.05-9.07-41.38l-3-12.14c-.35-1.4-.62-2.5-.82-3.27-.08-.36-.15-.64-.2-.85a1.31,1.31,0,0,1,0-.3,1.71,1.71,0,0,1,.1.28l.24.84c.22.77.52,1.86.91,3.25.77,2.83,1.87,6.95,3.18,12.11,2.66,10.31,6,24.8,9.24,41.36V357l-2.89,11.17c-5,18.95-9.43,36.1-12.68,48.56l-3.9,14.7c-.46,1.71-.83,3.05-1.08,4-.13.44-.22.78-.3,1A1.38,1.38,0,0,1,148,436.76Z" style="fill:#455a64"></path><path d="M127.05,439.52c-.14,0-.26-31.46-.26-70.26s.12-70.26.26-70.26.26,31.45.26,70.26S127.2,439.52,127.05,439.52Z" style="fill:#455a64"></path><path d="M134.4,201.55l16,.79c.17-1.86.31-9.06.31-9.06s6.66-.78,7-7.41-.25-21.88-.25-21.88h0a23,23,0,0,0-23.25,2l-1,.72Z" style="fill:#e6bbac"></path><path d="M154.12,175.32a1,1,0,0,1,0-1.36,1,1,0,1,1,1.38,1.35A1,1,0,0,1,154.12,175.32Z" style="fill:#263238"></path><path d="M157.18,173.87c-.11.11-.74-.41-1.65-.45s-1.59.41-1.69.28.06-.25.36-.46a2.2,2.2,0,0,1,1.36-.37,2.16,2.16,0,0,1,1.31.5C157.14,173.61,157.23,173.82,157.18,173.87Z" style="fill:#263238"></path><path d="M145.67,174.27a1,1,0,1,1-1.33.27A1,1,0,0,1,145.67,174.27Z" style="fill:#263238"></path><path d="M147.24,174.3c-.11.11-.74-.41-1.65-.45s-1.6.41-1.69.29.06-.26.36-.47a2.25,2.25,0,0,1,2.66.13C147.2,174,147.29,174.26,147.24,174.3Z" style="fill:#263238"></path><path d="M150.62,182a4.25,4.25,0,0,1,1.48-.26c.24,0,.43-.06.46-.19a1.42,1.42,0,0,0-.15-.69c-.21-.61-.43-1.23-.65-1.88a25.06,25.06,0,0,1-1.38-4.93,25.73,25.73,0,0,1,1.87,4.76c.21.66.42,1.28.62,1.9a1.57,1.57,0,0,1,.09,1,.61.61,0,0,1-.43.36,1.57,1.57,0,0,1-.41,0A4.4,4.4,0,0,1,150.62,182Z" style="fill:#263238"></path><path d="M147.61,182.87c-.93-.6,2.57,1.49,4.43,1.47a2.52,2.52,0,0,1-3,.89C147.07,184.43,147.61,182.87,147.61,182.87Z" style="fill:#fff"></path><path d="M150.74,193.19a15.47,15.47,0,0,1-8.55-2.78s1.87,4.84,8.5,4.49Z" style="fill:#d88876"></path><path d="M134.46,174c-.15,0-4.93-.56-4.34,5.06s6.06,3.17,6.06,3S134.46,174,134.46,174Z" style="fill:#e6bbac"></path><path d="M134.25,180.31s-.09.08-.25.18a1,1,0,0,1-.73.09,2.46,2.46,0,0,1-1.35-2.06,3.35,3.35,0,0,1,.13-1.43,1.16,1.16,0,0,1,.66-.83.49.49,0,0,1,.6.21c.1.15.07.27.1.27s.11-.1,0-.33a.62.62,0,0,0-.25-.33.8.8,0,0,0-.56-.09,1.39,1.39,0,0,0-.93,1,3.37,3.37,0,0,0-.18,1.6,2.57,2.57,0,0,0,1.68,2.28,1.05,1.05,0,0,0,.88-.24C134.25,180.45,134.27,180.32,134.25,180.31Z" style="fill:#d88876"></path><path d="M156.54,164.4a3.81,3.81,0,0,0,2.64-3.85,4.66,4.66,0,0,0-2.85-3.86,6,6,0,0,0-4.9.19,5.29,5.29,0,0,0-10.43.55c-.19-1.27-1.66-2-2.94-2a4.25,4.25,0,0,0-3.46,1.37,2.6,2.6,0,0,0,.11,3.48,5.9,5.9,0,0,0-4.08,1.08,4.34,4.34,0,0,0-1.73,3.76,3.44,3.44,0,0,0,2.66,3c.48.09,1.07.1,1.34.51a1.46,1.46,0,0,1,.15.8l0,4.76a1.84,1.84,0,0,1,2.33,1,5.27,5.27,0,0,1,.33,2.76c.42.61,1.45.4,1.88-.2a3.5,3.5,0,0,0,.43-2.12l-.09-7.66a2.53,2.53,0,0,0,3.71-2.18,5.06,5.06,0,0,0,7.76-1.14,12.59,12.59,0,0,0,2.55,1.61,4.13,4.13,0,0,0,2.95.18,2.49,2.49,0,0,0,1.67-2.29l-.34-.28" style="fill:#263238"></path><path d="M209.46,220.51a5.47,5.47,0,1,0,5.47,5.47A5.46,5.46,0,0,0,209.46,220.51Zm0,4.48a1.57,1.57,0,1,1,1.57-1.57A1.56,1.56,0,0,1,209.46,225Z" style="fill:#F49200"></path><path d="M207.65,231.05v9.83s2.18,1,2.06,1.13,1.57-1.13,1.57-1.13V239.7l-1-1,1-.91-1-1.25,1-1.11-1.12-1.26,1.12-1.13v-2Z" style="fill:#F49200"></path><path d="M215.55,211.76l-6.25-5.59L203,211.84l1.86.29.16,5.73,8.51.15-.25-6Zm-6.3,5.18a1,1,0,1,1,1.08-1A1,1,0,0,1,209.25,216.94Z" style="fill:#263238"></path><path d="M210.09,216.57s-.19.05-.49.05a2.73,2.73,0,0,0-1.23.19,3.09,3.09,0,0,0-1.42,1.08,3,3,0,0,0-.55,2.08,3,3,0,0,0,1,1.9,3.15,3.15,0,0,0,1.62.76,6.12,6.12,0,0,0,1.73-.14A2.23,2.23,0,0,1,209,223a3.29,3.29,0,0,1-1.9-.76,3.34,3.34,0,0,1-1.19-2.22,3.38,3.38,0,0,1,.69-2.42,3.2,3.2,0,0,1,1.69-1.14,2.56,2.56,0,0,1,1.36-.05C209.93,216.48,210.1,216.54,210.09,216.57Z" style="fill:#455a64"></path><path d="M212.08,221.18c-.13-.07.18-.78.13-1.66s-.38-1.55-.28-1.64.77.55.8,1.61S212.19,221.27,212.08,221.18Z" style="fill:#455a64"></path><path d="M193.66,213.19a30.46,30.46,0,0,1,2.37-5.3,7.9,7.9,0,0,1,3.59-3c1.92-.73,4.06-.44,6.1-.14l4.92.73c.67.1,1.52.41,1.5,1.08a1,1,0,0,1-.76.81,3.17,3.17,0,0,1-1.19,0,17.14,17.14,0,0,0-3.28-.1c-.78.05-1.75.33-1.88,1.1s.62,1.28,1.31,1.3a3.71,3.71,0,0,0,1.94-.71l1.93-1.14a1.67,1.67,0,0,1,1.2-.35c.71.16.88,1.18.5,1.8a5.14,5.14,0,0,1-1.67,1.39c-2.48,1.68-3.63,4.4-4.77,8" style="fill:#e6bbac"></path><path d="M193.71,212.43l-11,28.36-11.44-26.47c-3.58-12.81-19.4-13.65-19.4-13.65l-15.65-2c-5.63-2.29-14.75-.38-18.32,1.59-4.55,2.5-8.59,10.19-9.49,15.86,0,0-15.76,40.75-13.07,45S114.86,282,114.86,282l-2.35,8.58,26.78,1.69L142,281.7l.32,11.31,25.18,1.77c-1.1-9.95-2.88-19.95-3.36-22.8l-2-29.19.26-6,.24-.62c2.36,3.95,5.33,9,9,15.48,7.36,13,14.79,9.68,19.15,4.46a24.5,24.5,0,0,0,4.13-8l10.83-30.44ZM117,261.09c0,.16-2.7-4.81-2.7-4.81l3.94-13S117,260.94,117,261.09Z" style="fill:#F49200"></path><polygon points="134.17 199 142.62 231.45 151.38 200.98 150.41 200.9 150.64 196.89 134.17 194.92 134.17 199" style="fill:#fff"></polygon><path d="M133.72,199.31a1.47,1.47,0,0,1,0,.44c-.06.33-.13.75-.22,1.25-.21,1.15-.51,2.72-.88,4.65s-.86,4.38-1.39,7.06c-.25,1.31-.63,2.82.11,4.06s2.28,1.84,3.8,2.35l.29.1-.16.26c-1.21,2.11-1.11,5-.22,7.49a38.56,38.56,0,0,0,2.06,4.62q1.11,2.24,2.15,4.33c1.36,2.78,2.63,5.35,3.76,7.63l-.4.1c0-3.67,0-6.7,0-8.89,0-1,0-1.83,0-2.45a5.25,5.25,0,0,1,0-.86,3.69,3.69,0,0,1,.08.86c0,.62.05,1.43.09,2.45.05,2.18.13,5.21.22,8.88l0,.92-.42-.82c-1.14-2.28-2.43-4.84-3.83-7.6-.69-1.39-1.41-2.84-2.16-4.32a38.65,38.65,0,0,1-2.09-4.69c-.92-2.62-1-5.61.28-7.9l.14.37a13.76,13.76,0,0,1-2.27-.95,4.53,4.53,0,0,1-1.78-1.64,3.85,3.85,0,0,1-.47-2.27,15.12,15.12,0,0,1,.35-2.12c.57-2.67,1.07-5,1.5-7s.77-3.48,1-4.62c.11-.5.21-.91.29-1.24A1.94,1.94,0,0,1,133.72,199.31Z" style="fill:#263238"></path><path d="M152.91,201.18a10,10,0,0,1,.34,1.51c.18,1,.43,2.41.7,4.21s.59,3.93.78,6.37c0,.61.08,1.23.06,1.89a3.45,3.45,0,0,1-.62,2,8.74,8.74,0,0,1-3.32,2.64l0-.44a5.25,5.25,0,0,1,1.15,1.34c.08.12.15.25.22.38a.89.89,0,0,1,.06.35l0,.24c-.06.31-.14.59-.22.88-1,3.13-2.24,6-3.33,8.59s-2.13,4.93-3,6.87-1.6,3.52-2.11,4.6l-.61,1.24c-.14.28-.22.42-.24.41a1.45,1.45,0,0,1,.15-.46c.14-.34.31-.76.51-1.27l2-4.66c.84-2,1.82-4.33,2.9-6.92s2.28-5.48,3.27-8.55a6.37,6.37,0,0,0,.2-.81l0-.18a.19.19,0,0,1,0-.08l-.21-.36a4.93,4.93,0,0,0-1-1.19l-.32-.27.36-.18a8.24,8.24,0,0,0,3.13-2.44c.78-1,.53-2.36.51-3.55-.15-2.41-.44-4.56-.66-6.36s-.41-3.15-.55-4.22A8.35,8.35,0,0,1,152.91,201.18Z" style="fill:#263238"></path><path d="M142,282.94c-.15,0,0-9.18.31-20.48S143,242,143.18,242s0,9.17-.31,20.48S142.18,282.94,142,282.94Z" style="fill:#263238"></path><path d="M146.11,250.19c-.06,0,.27-.37.81-.12a.93.93,0,0,1-.18,1.77.93.93,0,0,1-1.05-1.45c.34-.48.79-.37.76-.31s-.29.13-.44.49a.69.69,0,0,0,0,.58.49.49,0,0,0,.58.18.5.5,0,0,0,.42-.44.63.63,0,0,0-.28-.5C146.43,250.15,146.15,250.25,146.11,250.19Z" style="fill:#263238"></path><path d="M146.22,260.58c-.07,0,.26-.36.81-.12a1,1,0,0,1,.57.81,1,1,0,0,1-.76,1,1,1,0,0,1-1.14-.46,1,1,0,0,1,.09-1c.35-.49.79-.38.76-.31s-.29.13-.44.49a.69.69,0,0,0,0,.58.57.57,0,0,0,1-.27.65.65,0,0,0-.28-.5C146.53,260.54,146.25,260.65,146.22,260.58Z" style="fill:#263238"></path><path d="M145.77,272.34c-.06,0,.26-.36.81-.12a1,1,0,0,1,.58.8,1,1,0,0,1-.77,1,1,1,0,0,1-1.14-.46,1,1,0,0,1,.09-1c.35-.49.8-.38.76-.31s-.29.12-.44.49a.69.69,0,0,0,0,.58.54.54,0,0,0,.59.18.52.52,0,0,0,.42-.45.69.69,0,0,0-.29-.5C146.08,272.3,145.8,272.41,145.77,272.34Z" style="fill:#263238"></path><polygon points="151.38 232.6 158.74 232.6 158.74 231.45 150.99 231.45 151.38 232.6" style="fill:#263238"></polygon><path d="M203.64,223.29a39.53,39.53,0,0,1-5.92-2.54,40.45,40.45,0,0,1-5.7-3,40,40,0,0,1,5.92,2.55A39.85,39.85,0,0,1,203.64,223.29Z" style="fill:#455a64"></path><path d="M193.66,215.54s.06-.33.5-.49a1.08,1.08,0,0,1,.82,0,.93.93,0,0,1,.52.92.85.85,0,0,1-.68.84.75.75,0,0,1-.77-.43.58.58,0,0,1,0-.57c.08-.12.16-.13.18-.11s-.06.25.15.48.59.23.62-.24-.4-.62-.73-.57S193.72,215.59,193.66,215.54Z" style="fill:#455a64"></path><path d="M182.14,246.74a9.93,9.93,0,0,1,.12-3.23,10.06,10.06,0,0,1,.65-3.17,20.36,20.36,0,0,1-.77,6.4Z" style="fill:#263238"></path><path d="M184.69,246.43a9.62,9.62,0,0,1-1.22-2.82,9.2,9.2,0,0,1-.72-3,17.89,17.89,0,0,1,1.94,5.81Z" style="fill:#263238"></path><path d="M144.66,198.28a11.15,11.15,0,0,1-1.87,3.9l1.47,4h1.25l1.06-3.84s-.74-.59-1.28-4.18Z" style="fill:#455a64"></path><path d="M150.36,200.81s-.12.27-.44.69a3.32,3.32,0,0,1-1.86,1.33,1.92,1.92,0,0,1-1.64-.36,3.42,3.42,0,0,1-.85-1.71,17.94,17.94,0,0,1-.66-4.23l.5.06c-.24.82-.45,1.69-.75,2.56a13.48,13.48,0,0,1-1.11,2.51,2.79,2.79,0,0,1-1,1,2.28,2.28,0,0,1-1.31.3,6.83,6.83,0,0,1-2.24-.64,13.64,13.64,0,0,1-1.76-1,26.52,26.52,0,0,1-2.32-1.7,4,4,0,0,1-.79-.7c.06-.08,1.26.83,3.3,2.08a13.43,13.43,0,0,0,1.74.88,6.66,6.66,0,0,0,2.09.56,2,2,0,0,0,1.84-1.07,13.8,13.8,0,0,0,1-2.4c.28-.85.5-1.71.75-2.54a.25.25,0,0,1,.31-.18.27.27,0,0,1,.19.24,18.54,18.54,0,0,0,.58,4.14,3.15,3.15,0,0,0,.69,1.53,1.57,1.57,0,0,0,1.31.32,3.32,3.32,0,0,0,1.79-1.12A3.38,3.38,0,0,1,150.36,200.81Z" style="fill:#e0e0e0"></path><path d="M144.26,206.17c-.21.52-4.14,15.68-4.14,15.68l2.49,9.6,4.61-16s-1.56-9.79-1.63-9.53S144.26,206.17,144.26,206.17Z" style="fill:#455a64"></path><path d="M129.86,277.17a19.2,19.2,0,0,1-6.17.2,18.88,18.88,0,0,1-6-1.3c0-.15,2.72.48,6.08.78S129.85,277,129.86,277.17Z" style="fill:#263238"></path><path d="M164.59,279.24a17.61,17.61,0,0,1-4.26,0,17,17,0,0,1-4.22-.5,17.88,17.88,0,0,1,4.25,0A18,18,0,0,1,164.59,279.24Z" style="fill:#263238"></path><path d="M118.4,229a1.84,1.84,0,0,1,0,.55q0,.63.06,1.59c0,1.38.07,3.37.08,5.84,0,4.93-.13,11.74-.53,19.25s-1,14.3-1.56,19.2c-.27,2.45-.52,4.43-.71,5.8-.09.63-.17,1.15-.23,1.57a3.36,3.36,0,0,1-.11.54,1.77,1.77,0,0,1,0-.55c0-.42.08-.95.13-1.59.13-1.44.32-3.41.54-5.8.45-4.91,1-11.69,1.41-19.2s.59-14.3.68-19.23c0-2.41.07-4.38.09-5.83,0-.64,0-1.17,0-1.59A1.84,1.84,0,0,1,118.4,229Z" style="fill:#263238"></path><path d="M114.29,256.77a71.81,71.81,0,0,1,2.1-8.3A69.89,69.89,0,0,1,119,240.3a70.84,70.84,0,0,1-2.09,8.31A70.37,70.37,0,0,1,114.29,256.77Z" style="fill:#263238"></path><path d="M117.39,262.05a40.09,40.09,0,0,1-3.33-5.46,38.6,38.6,0,0,1-2.88-5.72,39,39,0,0,1,3.33,5.46A38.6,38.6,0,0,1,117.39,262.05Z" style="fill:#263238"></path></g></svg>