<svg xmlns="http://www.w3.org/2000/svg" viewBox="0 0 750 500"><g id="freepik--background-complete--inject-179"><path d="M62.49,383.77a21.59,21.59,0,0,1,13.37-1.62c2.43.4,5,1.13,6.61,3s2,5,.07,6.59a6.27,6.27,0,0,1-4.17,1.06c-3.53,0-7.45-.66-10.28,1.46-1.61,1.22-2.68,3.24-4.61,3.83a4.55,4.55,0,0,1-5-2.23,7.8,7.8,0,0,1-.57-5.74A8.78,8.78,0,0,1,62.49,383.77Z" style="fill:#ebebeb"></path><path d="M53.17,365.79c2.49,3.55,7.32,2.37,9.56.2s3.19-5.31,4.06-8.3c2-6.85,3.95-14,2.49-21A11.69,11.69,0,0,0,66.59,331a6.08,6.08,0,0,0-5.77-1.92c-2.44.64-4,3-5,5.3a50.15,50.15,0,0,0-5,21.49c0,3.46.4,7.09,2.35,10" style="fill:#ebebeb"></path><path d="M46.34,370.88c2.7-3.2,3.21-7.88,2-11.89a22.87,22.87,0,0,0-7-10.22,37.93,37.93,0,0,0-12.62-7.45,13.51,13.51,0,0,0-5.67-1,5.93,5.93,0,0,0-4.76,2.88c-1.33,2.53-.06,5.6,1.32,8.11A96.55,96.55,0,0,0,27.86,364c2.49,3.2,5.33,6.36,9.12,7.81s7.72,1.27,9.72-1.35" style="fill:#ebebeb"></path><path d="M53,419.37a7,7,0,0,0,.23-1.61c.11-1.18.26-2.65.43-4.41a60.87,60.87,0,0,1,1-6.46A49.09,49.09,0,0,1,57,399.26a28.52,28.52,0,0,1,3.89-6.9,14.57,14.57,0,0,1,4.92-4.09A14,14,0,0,1,70,387a9,9,0,0,0,1.61-.23,6.94,6.94,0,0,0-1.64,0,12.58,12.58,0,0,0-4.32,1.13A14.35,14.35,0,0,0,60.42,392a27.38,27.38,0,0,0-4,7,46.47,46.47,0,0,0-2.33,7.75,53,53,0,0,0-.86,6.54c-.14,1.87-.2,3.39-.22,4.43A8.59,8.59,0,0,0,53,419.37Z" style="fill:#e0e0e0"></path><path d="M53.31,416a4,4,0,0,0,0-.75c0-.56,0-1.27,0-2.14,0-1.86,0-4.55.1-7.87.16-6.64.74-13.79,1.84-23.87,1-9.48,2.45-20.51,3.93-27.68.32-1.63.64-3.1.94-4.39s.54-2.4.77-3.29.37-1.54.5-2.09a2.52,2.52,0,0,0,.13-.73,3.1,3.1,0,0,0-.26.7c-.16.54-.37,1.22-.62,2.05s-.56,2-.88,3.28-.69,2.74-1,4.37a243.54,243.54,0,0,0-4.13,25.68c-1.11,10.11-1.61,19.3-1.65,26,0,3.33,0,6,.12,7.89,0,.87.09,1.58.13,2.14A2.4,2.4,0,0,0,53.31,416Z" style="fill:#e0e0e0"></path><path d="M53.35,398.24a13.59,13.59,0,0,0,0-2.23c-.09-1.44-.28-3.52-.69-6.07a81.24,81.24,0,0,0-2-8.83A73.28,73.28,0,0,0,47,370.66a55.91,55.91,0,0,0-10.85-16.89,29.41,29.41,0,0,0-2.55-2.37c-.39-.33-.74-.66-1.09-.92l-1-.68a13.08,13.08,0,0,0-1.89-1.21,66.88,66.88,0,0,1,6.18,5.51,58.44,58.44,0,0,1,10.57,16.83,82.18,82.18,0,0,1,3.72,10.35c1,3.25,1.61,6.23,2.1,8.75s.73,4.57.89,6A15.11,15.11,0,0,0,53.35,398.24Z" style="fill:#e0e0e0"></path><polygon points="36.21 429.54 37.98 453.89 69.27 453.89 71.05 429.54 36.21 429.54" style="fill:#e0e0e0"></polygon><rect x="33.18" y="419.94" width="41.59" height="9.6" style="fill:#e0e0e0"></rect><polygon points="33.18 452.95 33.18 455.62 35.14 455.62 74.09 455.62 74.09 452.95 33.18 452.95" style="fill:#ebebeb"></polygon><polygon points="37.05 460.3 35.14 455.62 72.6 455.62 70.36 460.3 37.05 460.3" style="fill:#e0e0e0"></polygon><path d="M70.46,437.49s0,.09-.14.23-.28.37-.47.62L68,440.67l-.08.1-.08-.11-4.48-6.19h.26l-4.41,6.24-.14.2-.15-.18-5.23-6.22H54l-.29.36-4.67,5.86-.16.2-.14-.2-4.41-6.24h.26c-2.18,2.47-4,4.57-5.44,6.19l-.09.11-.08-.13c-.71-1.2-1.28-2.16-1.7-2.85l-.43-.77a1.6,1.6,0,0,1-.14-.27,1.86,1.86,0,0,1,.19.24c.12.2.28.44.48.74l1.78,2.8H39c1.4-1.63,3.21-3.76,5.35-6.27l.13-.15.13.17,4.45,6.21h-.3l4.66-5.87.29-.36.15-.19.15.19,5.21,6.23h-.29c1.61-2.24,3.11-4.33,4.45-6.21l.13-.18.13.18L68,440.55h-.16c.8-1,1.44-1.71,1.9-2.27l.51-.59A1.83,1.83,0,0,1,70.46,437.49Z" style="fill:#f5f5f5"></path><path d="M71.48,429.37c0,.11-7.84.2-17.51.2s-17.5-.09-17.5-.2,7.83-.19,17.5-.19S71.48,429.27,71.48,429.37Z" style="fill:#f5f5f5"></path><path d="M73.06,455.88c0,.11-8.52.19-19,.19s-19-.08-19-.19,8.51-.2,19-.2S73.06,455.77,73.06,455.88Z" style="fill:#f5f5f5"></path><path d="M707.6,383.77A21.57,21.57,0,0,1,721,382.15c2.43.4,5,1.13,6.61,3s2,5,.06,6.59a6.25,6.25,0,0,1-4.16,1.06c-3.54,0-7.46-.66-10.28,1.46-1.61,1.22-2.69,3.24-4.61,3.83a4.54,4.54,0,0,1-5-2.23,7.75,7.75,0,0,1-.57-5.74A8.78,8.78,0,0,1,707.6,383.77Z" style="fill:#ebebeb"></path><path d="M698.28,365.79c2.49,3.55,7.32,2.37,9.56.2s3.19-5.31,4-8.3c2-6.85,4-14,2.49-21A11.59,11.59,0,0,0,711.7,331a6.1,6.1,0,0,0-5.78-1.92c-2.43.64-3.95,3-5,5.3a50,50,0,0,0-5,21.49c0,3.46.4,7.09,2.35,10" style="fill:#ebebeb"></path><path d="M691.45,370.88c2.7-3.2,3.21-7.88,2-11.89a22.89,22.89,0,0,0-7.05-10.22,37.89,37.89,0,0,0-12.61-7.45,13.56,13.56,0,0,0-5.68-1,6,6,0,0,0-4.76,2.88c-1.33,2.53-.05,5.6,1.32,8.11A96.62,96.62,0,0,0,673,364c2.48,3.2,5.33,6.36,9.11,7.81s7.72,1.27,9.73-1.35" style="fill:#ebebeb"></path><path d="M698.11,419.37a7.46,7.46,0,0,0,.22-1.61c.12-1.18.26-2.65.43-4.41s.48-4.06,1-6.46a51.35,51.35,0,0,1,2.35-7.63,28.21,28.21,0,0,1,3.9-6.9,14.57,14.57,0,0,1,4.92-4.09,14,14,0,0,1,4.15-1.29,8.72,8.72,0,0,0,1.6-.23,6.82,6.82,0,0,0-1.63,0,12.62,12.62,0,0,0-4.33,1.13,14.44,14.44,0,0,0-5.19,4.13,27.38,27.38,0,0,0-4,7,46.47,46.47,0,0,0-2.33,7.75,55,55,0,0,0-.86,6.54c-.14,1.87-.19,3.39-.21,4.43A6.88,6.88,0,0,0,698.11,419.37Z" style="fill:#e0e0e0"></path><path d="M698.41,416a2.75,2.75,0,0,0,.05-.75c0-.56,0-1.27,0-2.14,0-1.86,0-4.55.1-7.87.16-6.64.73-13.79,1.84-23.87,1-9.48,2.45-20.51,3.93-27.68.32-1.63.64-3.1.94-4.39s.53-2.4.77-3.29.37-1.54.5-2.09a3.06,3.06,0,0,0,.13-.73,3.1,3.1,0,0,0-.26.7c-.16.54-.37,1.22-.62,2.05s-.56,2-.88,3.28-.69,2.74-1,4.37a243.22,243.22,0,0,0-4.14,25.68c-1.1,10.11-1.6,19.3-1.64,26,0,3.33,0,6,.11,7.89,0,.87.1,1.58.13,2.14A3.58,3.58,0,0,0,698.41,416Z" style="fill:#e0e0e0"></path><path d="M698.46,398.24a14.59,14.59,0,0,0,0-2.23c-.08-1.44-.28-3.52-.68-6.07a81.24,81.24,0,0,0-2-8.83,72.51,72.51,0,0,0-3.7-10.45,55.71,55.71,0,0,0-10.84-16.89,28.05,28.05,0,0,0-2.56-2.37c-.39-.33-.73-.66-1.09-.92l-1-.68a13.42,13.42,0,0,0-1.88-1.21,68.51,68.51,0,0,1,6.18,5.51,58.66,58.66,0,0,1,10.57,16.83,82,82,0,0,1,3.71,10.35,87.82,87.82,0,0,1,2.1,8.75c.46,2.52.73,4.57.89,6A14.08,14.08,0,0,0,698.46,398.24Z" style="fill:#e0e0e0"></path><polygon points="681.31 429.54 683.09 453.89 714.37 453.89 716.15 429.54 681.31 429.54" style="fill:#e0e0e0"></polygon><rect x="678.29" y="419.94" width="41.59" height="9.6" style="fill:#e0e0e0"></rect><polygon points="678.29 452.95 678.29 455.62 680.25 455.62 719.2 455.62 719.2 452.95 678.29 452.95" style="fill:#ebebeb"></polygon><polygon points="682.16 460.3 680.25 455.62 717.71 455.62 715.47 460.3 682.16 460.3" style="fill:#e0e0e0"></polygon><path d="M715.57,437.49s0,.09-.15.23l-.46.62-1.83,2.33-.08.1-.08-.11-4.47-6.19h.25l-4.4,6.24-.14.2-.16-.18-5.22-6.22h.3l-.29.36-4.67,5.86-.16.2-.14-.2-4.41-6.24h.25l-5.43,6.19-.1.11-.07-.13-1.7-2.85c-.18-.31-.32-.57-.44-.77a1.13,1.13,0,0,1-.13-.27,1.47,1.47,0,0,1,.18.24l.49.74,1.78,2.8h-.17l5.34-6.27.14-.15.12.17,4.45,6.21h-.3l4.67-5.87.28-.36.15-.19.15.19,5.22,6.23h-.29l4.45-6.21.13-.18.13.18,4.38,6.26H713c.8-1,1.43-1.71,1.89-2.27l.51-.59A1.32,1.32,0,0,1,715.57,437.49Z" style="fill:#f5f5f5"></path><path d="M716.59,429.37c0,.11-7.84.2-17.51.2s-17.51-.09-17.51-.2,7.84-.19,17.51-.19S716.59,429.27,716.59,429.37Z" style="fill:#f5f5f5"></path><path d="M718.17,455.88c0,.11-8.52.19-19,.19s-19-.08-19-.19,8.52-.2,19-.2S718.17,455.77,718.17,455.88Z" style="fill:#f5f5f5"></path><g id="freepik--freepik--background-complete--inject-5--inject-179"><rect x="444.22" y="63.21" width="94.11" height="98.1" style="fill:#e0e0e0"></rect><rect x="437.85" y="63.21" width="94.11" height="98.1" style="fill:#ebebeb"></rect><rect x="450.5" y="76.4" width="68.81" height="71.73" style="fill:#fff"></rect><path d="M519.12,76.59a13.2,13.2,0,0,1,1.71-2c1.11-1.16,2.66-2.72,4.39-4.42s3.32-3.23,4.49-4.31a13.66,13.66,0,0,1,2-1.69,12.65,12.65,0,0,1-1.7,2c-1.11,1.15-2.66,2.72-4.4,4.43s-3.33,3.23-4.5,4.32A12.46,12.46,0,0,1,519.12,76.59Z" style="fill:#e0e0e0"></path><path d="M450.31,76.77a13.34,13.34,0,0,1-1.95-1.72c-1.15-1.11-2.72-2.65-4.43-4.38s-3.23-3.33-4.31-4.49a13.15,13.15,0,0,1-1.68-2,12.49,12.49,0,0,1,1.92,1.71c1.15,1.11,2.72,2.66,4.44,4.4s3.29,3.32,4.34,4.52A12.86,12.86,0,0,1,450.31,76.77Z" style="fill:#e0e0e0"></path><path d="M519.12,148.12v-5.2c0-3.39,0-8.34-.06-14.62,0-12.56-.06-30.47-.11-51.9l.22.23H450.56l.19-.25v71.73l-.21-.22,49.69.11,13.95.06h.1l-13.91.06-49.84.11h-.22V76h69.1v.35c0,21.5-.08,39.45-.11,52.05,0,6.26,0,11.18-.06,14.56v4.8A.52.52,0,0,1,519.12,148.12Z" style="fill:#e0e0e0"></path><rect x="484.41" y="97.63" width="2.82" height="12.59" style="fill:#ebebeb"></rect><path d="M505.73,95.56H465.25a.87.87,0,0,1-.86-.87h0a.87.87,0,0,1,.86-.87h40.48a.87.87,0,0,1,.87.87h0A.87.87,0,0,1,505.73,95.56Z" style="fill:#ebebeb"></path><path d="M499.21,117.08a2.64,2.64,0,0,1,.12-.4c.09-.31.22-.7.38-1.19.36-1.09.86-2.6,1.49-4.48,1.3-3.87,3.09-9.27,5.21-15.52l.19-.55.18.55c.78,2.21,1.55,4.56,2.41,7l5,14.54.08.23H514l-10.81-.09-3,0h-.77a1,1,0,0,1-.25,0h1.07l3,0L514,117l-.17.22c-1.45-4.22-3.17-9.2-5-14.52-.83-2.43-1.64-4.79-2.4-7h.37c-2.14,6.13-4,11.46-5.35,15.3-.67,1.89-1.21,3.41-1.61,4.51-.17.5-.32.9-.44,1.22A2.6,2.6,0,0,1,499.21,117.08Z" style="fill:#e0e0e0"></path><path d="M457.63,117.08a1.4,1.4,0,0,1,.11-.4c.1-.31.23-.7.38-1.19.37-1.09.87-2.6,1.49-4.48l5.22-15.52.18-.55.19.55c.77,2.21,1.54,4.56,2.4,7l5,14.54.09.23h-.25l-10.82-.09-3,0h-.77a1,1,0,0,1-.25,0h1.06l3,0,10.64-.09-.16.22c-1.45-4.22-3.18-9.2-5-14.52-.84-2.43-1.64-4.79-2.4-7h.37c-2.15,6.13-4,11.46-5.36,15.3l-1.6,4.51c-.18.5-.33.9-.44,1.22S457.63,117.07,457.63,117.08Z" style="fill:#e0e0e0"></path><path d="M496.16,130.12v.21a1.08,1.08,0,0,1-1.08,1.08H476.76a1.1,1.1,0,0,1-1.09-1.08h0a1.1,1.1,0,0,1,1.09-1.09H495.3a.86.86,0,0,1,.86.88Z" style="fill:#e0e0e0"></path><path d="M488.27,128.66a3.27,3.27,0,0,1-.39.58H484c-3.09-3.64,0-18.29,0-18.29h3.92S490.72,124.28,488.27,128.66Z" style="fill:#ebebeb"></path><path d="M492.14,128.14h0a1.08,1.08,0,0,1-1.08,1.08H480.8a1.08,1.08,0,0,1-1.08-1.08h0a1.09,1.09,0,0,1,1.08-1.09h10.29A1.08,1.08,0,0,1,492.14,128.14Z" style="fill:#e0e0e0"></path><path d="M472.57,116.76a.26.26,0,0,1,.25.26.27.27,0,0,1-.05.15,10.59,10.59,0,0,1-15,.47c-.16-.15-.32-.31-.47-.47a.26.26,0,0,1,0-.36.27.27,0,0,1,.17-.06Z" style="fill:#e0e0e0"></path><path d="M514.34,117.17a9.9,9.9,0,0,1-7.73,3.35,11.13,11.13,0,0,1-3.53-.55h0a8.85,8.85,0,0,1-4.18-2.79.25.25,0,0,1,0-.36.25.25,0,0,1,.16-.06h15.06a.26.26,0,0,1,.24.27A.24.24,0,0,1,514.34,117.17Z" style="fill:#e0e0e0"></path><path d="M489.1,110.22a3.17,3.17,0,1,1-3.17-3.15h0A3.15,3.15,0,0,1,489.1,110.22Z" style="fill:#e0e0e0"></path><path d="M490.85,95.11a4.9,4.9,0,1,1-4.91-4.89h0a4.89,4.89,0,0,1,4.89,4.89Z" style="fill:#e0e0e0"></path><rect x="473.91" y="131.5" width="23.76" height="4.3" style="fill:#e0e0e0"></rect></g><path d="M649.82,50.82s83,199.83,69.75,218.42-70.32,4.59-70.32,4.59Z" style="fill:#ebebeb"></path><rect x="645.51" y="48.27" width="5.32" height="411.72" style="fill:#f5f5f5"></rect><ellipse cx="648.17" cy="43.15" rx="7.51" ry="7.67" style="fill:#f5f5f5"></ellipse><rect x="640.66" y="50" width="15.01" height="3.47" rx="1.54" style="fill:#f5f5f5"></rect><path d="M650.83,168.54s23.74,7.4,32.56,4.55,10.36-8.72,10.36-8.72l6.09,17.17s-4.78,10.27-19.37,8.53c-13-1.54-29.65-7.82-29.65-7.82Z" style="fill:#f5f5f5"></path><polygon points="686.22 143.58 688.96 151.2 681.25 148.74 674.86 153.71 674.8 145.61 668.1 141.06 675.79 138.51 678.05 130.74 682.85 137.26 683.91 137.49 686.22 143.58" style="fill:#f5f5f5"></polygon><path d="M93.56,251.55s-48.82,12-60.19-3.93S93,60.76,93,60.76Z" style="fill:#f5f5f5"></path><rect x="92.16" y="58.57" width="4.55" height="375.63" style="fill:#fafafa"></rect><path d="M100.85,54.19a6.42,6.42,0,1,1-6.42-6.57A6.49,6.49,0,0,1,100.85,54.19Z" style="fill:#fafafa"></path><path d="M88,61.54h0a1.49,1.49,0,0,1,1.49-1.49h9.89a1.48,1.48,0,0,1,1.47,1.49h0A1.47,1.47,0,0,1,99.37,63H89.49A1.49,1.49,0,0,1,88,61.54Z" style="fill:#fafafa"></path><polygon points="63.85 134.9 64.76 134.7 68.87 129.12 70.8 135.78 77.38 137.96 71.64 141.85 71.6 148.78 66.13 144.53 59.53 146.63 61.88 140.11 63.85 134.9" style="fill:#fafafa"></polygon><polygon points="48.89 176.16 49.8 175.96 53.91 170.38 55.84 177.04 62.42 179.22 56.69 183.11 56.64 190.03 51.17 185.79 44.57 187.89 46.92 181.37 48.89 176.16" style="fill:#fafafa"></polygon><path d="M283.29,231.36l0,0v0H249.64s-1.3,5.12-6,5.12c0,0,6,.9,6,5.12h33.63v0l0,0c0-4.22,6-5.12,6-5.12C284.58,236.48,283.29,231.36,283.29,231.36Z" style="fill:#e0e0e0"></path><rect x="252" y="232.79" width="28.93" height="7.38" style="fill:#f5f5f5"></rect><path d="M277,236.11a105.4,105.4,0,0,1-10.58.26,105.27,105.27,0,0,1-10.57-.26c0-.14,4.73-.26,10.57-.26S277,236,277,236.11Z" style="fill:#fafafa"></path><path d="M271.85,238.21a55.9,55.9,0,0,1-10.77,0,55.9,55.9,0,0,1,10.77,0Z" style="fill:#fafafa"></path><rect x="198.05" y="41.33" width="139.08" height="180.36" style="fill:#f5f5f5"></rect><path d="M337.53,41.33c0,.12-31.21.22-69.69.22s-69.69-.1-69.69-.22,31.19-.23,69.69-.23S337.53,41.2,337.53,41.33Z" style="fill:#fff"></path><path d="M247.07,44.72c0,.12-5.32.22-11.88.22s-11.88-.1-11.88-.22,5.31-.23,11.88-.23S247.07,44.59,247.07,44.72Z" style="fill:#fff"></path><path d="M207.54,178.21a1.2,1.2,0,0,1,.69.1,2.24,2.24,0,0,1,1.21,1.58,2.07,2.07,0,0,1-.2,1.46,2.53,2.53,0,0,1-1.33,1.15,2.57,2.57,0,0,1-2-.07,3.4,3.4,0,0,1-1.59-1.61,5.67,5.67,0,0,1,2.66-7,3.3,3.3,0,0,1,1.53-.34A3.1,3.1,0,0,1,210,174a5.36,5.36,0,0,1,1.92,2.59,10.93,10.93,0,0,1,.66,3.28,12.06,12.06,0,0,1-1.6,6.74,42.82,42.82,0,0,1-4.16,5.54,16.31,16.31,0,0,0-3.15,5.46,7.67,7.67,0,0,0,.35,5.53,4.37,4.37,0,0,0,3.94,2.41,3.48,3.48,0,0,0,2-.62,2.73,2.73,0,0,0,1.05-1.51,3.69,3.69,0,0,0-.53-2.93,2.47,2.47,0,0,0-1.52-1.11,1.44,1.44,0,0,0-.51,0h-.18l.18,0a1.3,1.3,0,0,1,.52,0,2.52,2.52,0,0,1,1.66,1.1,3.89,3.89,0,0,1,.63,3.09,3,3,0,0,1-1.13,1.68,3.82,3.82,0,0,1-2.15.72,4.86,4.86,0,0,1-2.42-.61,4.7,4.7,0,0,1-1.86-2,7.91,7.91,0,0,1-.42-5.81,16.58,16.58,0,0,1,3.2-5.63,44.56,44.56,0,0,0,4.12-5.48,11.74,11.74,0,0,0,1.55-6.5,10.82,10.82,0,0,0-.63-3.14,5,5,0,0,0-1.74-2.4,2.63,2.63,0,0,0-2.65-.16,5,5,0,0,0-2,1.8,4.85,4.85,0,0,0-.56,4.65,3.12,3.12,0,0,0,1.43,1.5,2.29,2.29,0,0,0,1.81.09,2.24,2.24,0,0,0,1.23-1,1.89,1.89,0,0,0,.22-1.33,2.14,2.14,0,0,0-1.08-1.52A2.43,2.43,0,0,0,207.54,178.21Z" style="fill:#e0e0e0"></path><path d="M208.76,161.8a1.2,1.2,0,0,1-.7-.11,2.2,2.2,0,0,1-1.21-1.57,2.11,2.11,0,0,1,.2-1.47,2.46,2.46,0,0,1,1.34-1.14,2.59,2.59,0,0,1,2,.06,3.47,3.47,0,0,1,1.59,1.62,5.19,5.19,0,0,1-.53,5,5.32,5.32,0,0,1-2.13,2,3.16,3.16,0,0,1-1.52.33,3,3,0,0,1-1.53-.5,5.39,5.39,0,0,1-1.92-2.6,10.81,10.81,0,0,1-.66-3.27,12.14,12.14,0,0,1,1.6-6.74,43.64,43.64,0,0,1,4.16-5.55,16.12,16.12,0,0,0,3.15-5.46,7.65,7.65,0,0,0-.35-5.52,4.35,4.35,0,0,0-3.94-2.42,3.56,3.56,0,0,0-2,.63,2.73,2.73,0,0,0-1.05,1.51,3.66,3.66,0,0,0,.53,2.92,2.45,2.45,0,0,0,1.52,1.12,1.72,1.72,0,0,0,.51.05H208l-.18,0a1.53,1.53,0,0,1-.52,0,2.52,2.52,0,0,1-1.66-1.1,3.89,3.89,0,0,1-.63-3.09,3,3,0,0,1,1.13-1.68,3.82,3.82,0,0,1,2.15-.72,4.68,4.68,0,0,1,4.28,2.56,8,8,0,0,1,.43,5.82,16.64,16.64,0,0,1-3.21,5.62,45.45,45.45,0,0,0-4.12,5.49,11.74,11.74,0,0,0-1.55,6.5,10.82,10.82,0,0,0,.63,3.14,5,5,0,0,0,1.74,2.4,2.63,2.63,0,0,0,2.65.16,5.32,5.32,0,0,0,2.54-6.46,3.1,3.1,0,0,0-1.43-1.49,2.29,2.29,0,0,0-1.81-.09,2.24,2.24,0,0,0-1.23,1,1.86,1.86,0,0,0-.22,1.32,2.14,2.14,0,0,0,1.08,1.53A2.86,2.86,0,0,0,208.76,161.8Z" style="fill:#e0e0e0"></path><g style="opacity:0.2"><path d="M209.56,169.68a1.42,1.42,0,1,1-1.42-1.41A1.42,1.42,0,0,1,209.56,169.68Z" style="fill:#e0e0e0"></path></g><g style="opacity:0.2"><path d="M210.17,132a1.42,1.42,0,1,1-1.41-1.41A1.41,1.41,0,0,1,210.17,132Z" style="fill:#e0e0e0"></path></g><path d="M208.15,85.64a2.6,2.6,0,0,0,.66-.18,2.17,2.17,0,0,0,1.07-1.54,1.91,1.91,0,0,0-.21-1.32,2.32,2.32,0,0,0-1.24-1,2.29,2.29,0,0,0-1.81.09,3.12,3.12,0,0,0-1.42,1.51,4.84,4.84,0,0,0,.56,4.66,5,5,0,0,0,2,1.81,2.63,2.63,0,0,0,2.65-.17,5,5,0,0,0,1.74-2.41,10.49,10.49,0,0,0,.62-3.14,11.77,11.77,0,0,0-1.55-6.51,43.84,43.84,0,0,0-4.11-5.51,16.6,16.6,0,0,1-3.21-5.63,8.06,8.06,0,0,1,.42-5.83,4.64,4.64,0,0,1,1.86-2,4.77,4.77,0,0,1,2.42-.62,3.85,3.85,0,0,1,2.16.72,3.07,3.07,0,0,1,1.13,1.68,3.9,3.9,0,0,1-.63,3.1,2.5,2.5,0,0,1-1.66,1.11,1.53,1.53,0,0,1-.53,0l-.17,0s.06,0,.18,0a1.68,1.68,0,0,0,.5,0,2.48,2.48,0,0,0,1.53-1.12,3.74,3.74,0,0,0,.53-2.93,2.71,2.71,0,0,0-1.05-1.51,3.44,3.44,0,0,0-2-.63,4.33,4.33,0,0,0-3.94,2.43,7.62,7.62,0,0,0-.35,5.53,16.16,16.16,0,0,0,3.15,5.47,43.75,43.75,0,0,1,4.16,5.56A12.21,12.21,0,0,1,213.2,84a11.25,11.25,0,0,1-.66,3.28,5.43,5.43,0,0,1-1.91,2.6,3,3,0,0,1-1.53.51,3.29,3.29,0,0,1-1.53-.33,5.68,5.68,0,0,1-2.67-7,3.45,3.45,0,0,1,1.59-1.63,2.57,2.57,0,0,1,2-.07,2.52,2.52,0,0,1,1.34,1.15,2.11,2.11,0,0,1,.2,1.47,2.24,2.24,0,0,1-1.21,1.58A1.13,1.13,0,0,1,208.15,85.64Z" style="fill:#e0e0e0"></path><path d="M208.58,102.1a2.34,2.34,0,0,0-.66.19,2.1,2.1,0,0,0-1.07,1.53,1.88,1.88,0,0,0,.21,1.33,2.26,2.26,0,0,0,1.24,1,2.29,2.29,0,0,0,1.81-.09,3.15,3.15,0,0,0,1.42-1.5A5.33,5.33,0,0,0,209,98.1a2.62,2.62,0,0,0-2.66.16,4.94,4.94,0,0,0-1.73,2.41,11,11,0,0,0-.63,3.15,11.87,11.87,0,0,0,1.56,6.51,43.73,43.73,0,0,0,4.11,5.5,16.65,16.65,0,0,1,3.21,5.64,8,8,0,0,1-.42,5.82,4.65,4.65,0,0,1-4.28,2.58,3.83,3.83,0,0,1-2.16-.72,3,3,0,0,1-1.13-1.68,3.91,3.91,0,0,1,.63-3.1,2.58,2.58,0,0,1,1.66-1.11,1.47,1.47,0,0,1,.52,0q.18,0,.18,0l-.18,0a1.65,1.65,0,0,0-.51,0,2.47,2.47,0,0,0-1.52,1.13,3.68,3.68,0,0,0-.53,2.93,2.73,2.73,0,0,0,1,1.51,3.59,3.59,0,0,0,2,.63,4.36,4.36,0,0,0,3.94-2.43,7.65,7.65,0,0,0,.35-5.54,16.26,16.26,0,0,0-3.15-5.47,43.75,43.75,0,0,1-4.16-5.56,12.21,12.21,0,0,1-1.6-6.76,10.87,10.87,0,0,1,.66-3.27,5.41,5.41,0,0,1,1.91-2.61,3.13,3.13,0,0,1,1.53-.51,3.29,3.29,0,0,1,1.53.33,5.35,5.35,0,0,1,2.13,2,5.21,5.21,0,0,1,.53,5,3.38,3.38,0,0,1-1.59,1.62,2.55,2.55,0,0,1-2,.07,2.48,2.48,0,0,1-1.34-1.15,2.09,2.09,0,0,1-.2-1.47,2.24,2.24,0,0,1,1.21-1.58A1.23,1.23,0,0,1,208.58,102.1Z" style="fill:#e0e0e0"></path><g style="opacity:0.2"><path d="M210.17,94.2a1.42,1.42,0,1,0-1.41,1.41A1.41,1.41,0,0,0,210.17,94.2Z" style="fill:#e0e0e0"></path></g><path d="M326.67,85.53s-.06,0-.18,0a1.16,1.16,0,0,1-.5-.15,2.31,2.31,0,0,1-1.08-1.65,2.43,2.43,0,0,1,.19-1.45,2.39,2.39,0,0,1,1.27-1.21,2.15,2.15,0,0,1,2,.19,3.59,3.59,0,0,1,1.38,1.78,6,6,0,0,1-.6,5,5,5,0,0,1-2,2,2.61,2.61,0,0,1-1.54.27,2.73,2.73,0,0,1-1.44-.71,6.26,6.26,0,0,1-1.59-2.77A13.06,13.06,0,0,1,322,83.6a13.75,13.75,0,0,1,1.45-6.73,44.44,44.44,0,0,1,3.79-5.73,17.7,17.7,0,0,0,2.88-5.56A9.09,9.09,0,0,0,330,60a4.64,4.64,0,0,0-1.45-2,3.67,3.67,0,0,0-2.13-.78,2.92,2.92,0,0,0-1.93.64,2.85,2.85,0,0,0-1,1.55,4.25,4.25,0,0,0,.41,2.95,2.31,2.31,0,0,0,1.4,1.24l.29.06H326l-.18,0-.21,0-.31,0a2.37,2.37,0,0,1-1.53-1.24,4.37,4.37,0,0,1-.51-3.1,3.14,3.14,0,0,1,1-1.72,3.22,3.22,0,0,1,2.13-.73,4.05,4.05,0,0,1,2.34.82,5,5,0,0,1,1.58,2.16,9.43,9.43,0,0,1,.21,5.8,18.2,18.2,0,0,1-2.92,5.71,43.83,43.83,0,0,0-3.75,5.67,13.32,13.32,0,0,0-1.41,6.51,12.49,12.49,0,0,0,.48,3.15,5.86,5.86,0,0,0,1.46,2.59,2.4,2.4,0,0,0,1.22.61,2.1,2.1,0,0,0,1.3-.22,4.65,4.65,0,0,0,1.87-1.86,5.68,5.68,0,0,0,.62-4.69,3.29,3.29,0,0,0-1.22-1.65,1.9,1.9,0,0,0-1.75-.19,2.17,2.17,0,0,0-1.16,1.06,2.13,2.13,0,0,0-.21,1.33,2.19,2.19,0,0,0,1,1.6A1.64,1.64,0,0,0,326.67,85.53Z" style="fill:#e0e0e0"></path><path d="M325.87,102.09a1.2,1.2,0,0,1,.69.1,2.24,2.24,0,0,1,1.21,1.58,2.1,2.1,0,0,1-.19,1.47,2.5,2.5,0,0,1-1.34,1.14,2.61,2.61,0,0,1-2-.06,3.47,3.47,0,0,1-1.59-1.62,5.17,5.17,0,0,1,.54-5,5.23,5.23,0,0,1,2.12-2,3.17,3.17,0,0,1,1.53-.33,3,3,0,0,1,1.53.5,5.39,5.39,0,0,1,1.91,2.59,11.26,11.26,0,0,1,.67,3.28,12.14,12.14,0,0,1-1.6,6.74,42.87,42.87,0,0,1-4.17,5.54,16.66,16.66,0,0,0-3.15,5.46,7.62,7.62,0,0,0,.36,5.53,4.37,4.37,0,0,0,3.94,2.42,3.56,3.56,0,0,0,2-.63,2.8,2.8,0,0,0,1.06-1.51,3.66,3.66,0,0,0-.54-2.92,2.45,2.45,0,0,0-1.52-1.12,1.72,1.72,0,0,0-.51-.05h-.18s.06,0,.18,0a1.53,1.53,0,0,1,.52,0,2.5,2.5,0,0,1,1.66,1.1,3.85,3.85,0,0,1,.63,3.09,2.94,2.94,0,0,1-1.13,1.68,3.79,3.79,0,0,1-2.15.72,4.69,4.69,0,0,1-4.28-2.57,8,8,0,0,1-.42-5.81,16.61,16.61,0,0,1,3.2-5.62,44.42,44.42,0,0,0,4.12-5.49,11.74,11.74,0,0,0,1.55-6.5,10.81,10.81,0,0,0-.62-3.14,5,5,0,0,0-1.74-2.4,2.65,2.65,0,0,0-2.66-.16,5.35,5.35,0,0,0-2.54,6.46,3.14,3.14,0,0,0,1.43,1.49,2.29,2.29,0,0,0,1.81.09,2.24,2.24,0,0,0,1.23-1,1.86,1.86,0,0,0,.22-1.32,2.14,2.14,0,0,0-1.08-1.53A2.43,2.43,0,0,0,325.87,102.09Z" style="fill:#e0e0e0"></path><g style="opacity:0.2"><path d="M325.07,94.21a1.41,1.41,0,1,1,1.41,1.41A1.41,1.41,0,0,1,325.07,94.21Z" style="fill:#e0e0e0"></path></g><g style="opacity:0.2"><path d="M324.45,131.89a1.42,1.42,0,1,1,1.41,1.41A1.41,1.41,0,0,1,324.45,131.89Z" style="fill:#e0e0e0"></path></g><path d="M326.47,178.25a2.06,2.06,0,0,0-.65.18,2.18,2.18,0,0,0-1.08,1.54,1.91,1.91,0,0,0,.21,1.32,2.35,2.35,0,0,0,1.24,1,2.29,2.29,0,0,0,1.81-.09,3.19,3.19,0,0,0,1.43-1.51,5.34,5.34,0,0,0-2.55-6.47,2.63,2.63,0,0,0-2.65.17,5,5,0,0,0-1.74,2.41,10.81,10.81,0,0,0-.62,3.14,11.77,11.77,0,0,0,1.55,6.51,43,43,0,0,0,4.12,5.51,16.65,16.65,0,0,1,3.2,5.63,8,8,0,0,1-.42,5.83,4.64,4.64,0,0,1-1.86,2A4.75,4.75,0,0,1,326,206a3.88,3.88,0,0,1-2.16-.72,3,3,0,0,1-1.12-1.68,3.86,3.86,0,0,1,.63-3.1,2.47,2.47,0,0,1,1.65-1.11,1.59,1.59,0,0,1,.53,0c.12,0,.18,0,.17,0h-.17a1.72,1.72,0,0,0-.51.05,2.48,2.48,0,0,0-1.53,1.12,3.74,3.74,0,0,0-.53,2.93,2.76,2.76,0,0,0,1.06,1.51,3.42,3.42,0,0,0,2,.63,4.36,4.36,0,0,0,3.94-2.43,7.67,7.67,0,0,0,.35-5.53,16.5,16.5,0,0,0-3.15-5.47A42.88,42.88,0,0,1,323,186.7a12.21,12.21,0,0,1-1.6-6.76,11.59,11.59,0,0,1,.66-3.28,5.46,5.46,0,0,1,1.92-2.61,3.09,3.09,0,0,1,1.53-.5,3.25,3.25,0,0,1,1.52.33,5.68,5.68,0,0,1,2.67,7,3.45,3.45,0,0,1-1.59,1.63,2.61,2.61,0,0,1-2,.07,2.56,2.56,0,0,1-1.34-1.15,2,2,0,0,1-.19-1.47,2.19,2.19,0,0,1,1.21-1.58A1.1,1.1,0,0,1,326.47,178.25Z" style="fill:#e0e0e0"></path><path d="M326.05,161.79a2.43,2.43,0,0,0,.65-.19,2.16,2.16,0,0,0,1.08-1.53,1.89,1.89,0,0,0-.22-1.33,2.28,2.28,0,0,0-1.23-1,2.32,2.32,0,0,0-1.82.09,3.15,3.15,0,0,0-1.42,1.5,5.36,5.36,0,0,0,2.54,6.47,2.62,2.62,0,0,0,2.66-.16,5,5,0,0,0,1.74-2.41,10.94,10.94,0,0,0,.62-3.15,11.77,11.77,0,0,0-1.55-6.51,44.79,44.79,0,0,0-4.12-5.5,16.79,16.79,0,0,1-3.2-5.64,8,8,0,0,1,.42-5.82,4.65,4.65,0,0,1,4.28-2.58,3.82,3.82,0,0,1,2.15.72,3,3,0,0,1,1.13,1.68,3.87,3.87,0,0,1-.63,3.1,2.56,2.56,0,0,1-1.66,1.11,1.48,1.48,0,0,1-.52,0,.85.85,0,0,1-.18,0l.18,0a1.65,1.65,0,0,0,.51,0,2.45,2.45,0,0,0,1.52-1.13,3.64,3.64,0,0,0,.53-2.93,2.73,2.73,0,0,0-1.05-1.51,3.56,3.56,0,0,0-2-.63,4.36,4.36,0,0,0-3.94,2.43,7.7,7.7,0,0,0-.35,5.54,16.6,16.6,0,0,0,3.15,5.47,42.83,42.83,0,0,1,4.16,5.56,12.13,12.13,0,0,1,1.61,6.76,11.2,11.2,0,0,1-.67,3.27,5.35,5.35,0,0,1-1.91,2.61,3.13,3.13,0,0,1-1.53.51,3.29,3.29,0,0,1-1.53-.33,5.34,5.34,0,0,1-2.12-2,5.16,5.16,0,0,1-.54-5,3.47,3.47,0,0,1,1.59-1.62,2.55,2.55,0,0,1,2-.07,2.44,2.44,0,0,1,1.34,1.15,2.07,2.07,0,0,1,.2,1.46,2.24,2.24,0,0,1-1.21,1.59A1.2,1.2,0,0,1,326.05,161.79Z" style="fill:#e0e0e0"></path><g style="opacity:0.2"><path d="M324.45,169.69a1.42,1.42,0,1,0,1.41-1.41A1.41,1.41,0,0,0,324.45,169.69Z" style="fill:#e0e0e0"></path></g><path d="M257,51.53a3,3,0,0,0-.19-.66,2.17,2.17,0,0,0-1.53-1.07A1.93,1.93,0,0,0,254,50a2.35,2.35,0,0,0-.92,3.05,3.12,3.12,0,0,0,1.5,1.43A5.34,5.34,0,0,0,261,51.94a2.63,2.63,0,0,0-.16-2.65,5.09,5.09,0,0,0-2.42-1.74,10.49,10.49,0,0,0-3.14-.62,11.77,11.77,0,0,0-6.51,1.55,43,43,0,0,0-5.5,4.11,16.65,16.65,0,0,1-5.64,3.21,8.07,8.07,0,0,1-5.83-.42,4.64,4.64,0,0,1-2-1.86,4.76,4.76,0,0,1-.61-2.42,3.77,3.77,0,0,1,.71-2.16,3.09,3.09,0,0,1,1.69-1.13,3.85,3.85,0,0,1,3.09.64,2.47,2.47,0,0,1,1.11,1.65,1.36,1.36,0,0,1,0,.53c0,.11,0,.17,0,.17a1.23,1.23,0,0,1,0-.18,1.4,1.4,0,0,0,0-.5,2.44,2.44,0,0,0-1.12-1.53,3.72,3.72,0,0,0-2.93-.53,2.78,2.78,0,0,0-1.51,1,3.51,3.51,0,0,0-.63,2A4.34,4.34,0,0,0,232,55a7.62,7.62,0,0,0,5.53.35A16.3,16.3,0,0,0,243,52.24a43.64,43.64,0,0,1,5.55-4.16,12.23,12.23,0,0,1,6.76-1.6,11.25,11.25,0,0,1,3.28.66,5.5,5.5,0,0,1,2.61,1.91,3.05,3.05,0,0,1,.5,1.53,3.17,3.17,0,0,1-.33,1.53,5.68,5.68,0,0,1-7,2.67,3.49,3.49,0,0,1-1.63-1.59,2.61,2.61,0,0,1-.07-2,2.52,2.52,0,0,1,1.15-1.34,2.11,2.11,0,0,1,1.47-.2,2.24,2.24,0,0,1,1.58,1.21A1.2,1.2,0,0,1,257,51.53Z" style="fill:#e0e0e0"></path><path d="M296.6,51.1a1.2,1.2,0,0,1-.11.7A2.22,2.22,0,0,1,294.91,53a2.07,2.07,0,0,1-1.46-.2,2.48,2.48,0,0,1-1.15-1.34,2.54,2.54,0,0,1,.06-2A3.4,3.4,0,0,1,294,47.86a5.19,5.19,0,0,1,5,.53,5.37,5.37,0,0,1,2,2.13,3.29,3.29,0,0,1,.33,1.53,3.13,3.13,0,0,1-.51,1.53,5.44,5.44,0,0,1-2.61,1.91,10.87,10.87,0,0,1-3.28.66,12.17,12.17,0,0,1-6.75-1.6,43.75,43.75,0,0,1-5.56-4.16,16.36,16.36,0,0,0-5.47-3.15,7.64,7.64,0,0,0-5.54.35,4.36,4.36,0,0,0-2.43,3.94,3.59,3.59,0,0,0,.63,2,2.73,2.73,0,0,0,1.51,1,3.68,3.68,0,0,0,2.93-.53,2.45,2.45,0,0,0,1.12-1.52,1.44,1.44,0,0,0,.05-.51c0-.12,0-.18,0-.18l0,.18a1.47,1.47,0,0,1,0,.52,2.56,2.56,0,0,1-1.12,1.66,3.88,3.88,0,0,1-3.09.63,3,3,0,0,1-1.68-1.13,3.68,3.68,0,0,1-.72-2.15,4.69,4.69,0,0,1,2.57-4.29,8.07,8.07,0,0,1,5.83-.42A16.82,16.82,0,0,1,282.87,50a43,43,0,0,0,5.5,4.11,11.87,11.87,0,0,0,6.51,1.56,11,11,0,0,0,3.15-.63,4.94,4.94,0,0,0,2.41-1.73,2.62,2.62,0,0,0,.16-2.66,5.33,5.33,0,0,0-6.47-2.54,3.1,3.1,0,0,0-1.5,1.42,2.29,2.29,0,0,0-.09,1.81,2.22,2.22,0,0,0,1,1.24,1.88,1.88,0,0,0,1.33.21,2.12,2.12,0,0,0,1.53-1.07A2.34,2.34,0,0,0,296.6,51.1Z" style="fill:#e0e0e0"></path><g style="opacity:0.2"><path d="M265.58,49.51A1.42,1.42,0,1,0,267,50.92,1.42,1.42,0,0,0,265.58,49.51Z" style="fill:#e0e0e0"></path></g><g style="opacity:0.2"><path d="M310.4,49.51a1.42,1.42,0,1,0,1.42,1.41A1.42,1.42,0,0,0,310.4,49.51Z" style="fill:#e0e0e0"></path></g><g style="opacity:0.2"><path d="M223,49.51a1.42,1.42,0,1,0,1.42,1.41A1.41,1.41,0,0,0,223,49.51Z" style="fill:#e0e0e0"></path></g><path d="M257.93,211.62a2.6,2.6,0,0,0-.18-.66,2.17,2.17,0,0,0-1.54-1.07,2,2,0,0,0-1.33.21,2.38,2.38,0,0,0-.92,3.05,3.17,3.17,0,0,0,1.51,1.42,4.87,4.87,0,0,0,4.66-.56,5,5,0,0,0,1.81-2,2.65,2.65,0,0,0-.17-2.66,5,5,0,0,0-2.41-1.73,10.88,10.88,0,0,0-3.14-.63,11.9,11.9,0,0,0-6.52,1.56,44.47,44.47,0,0,0-5.5,4.11,16.6,16.6,0,0,1-5.63,3.21,8.06,8.06,0,0,1-5.83-.42,4.7,4.7,0,0,1-2-1.86,4.77,4.77,0,0,1-.62-2.42,3.85,3.85,0,0,1,.72-2.16,3.07,3.07,0,0,1,1.68-1.13,3.9,3.9,0,0,1,3.1.63,2.54,2.54,0,0,1,1.11,1.66,1.53,1.53,0,0,1,0,.53c0,.11,0,.17,0,.17s0-.06,0-.18a2.07,2.07,0,0,0,0-.5,2.48,2.48,0,0,0-1.12-1.53,3.74,3.74,0,0,0-2.93-.53,2.72,2.72,0,0,0-1.52,1,3.51,3.51,0,0,0-.62,2,4.34,4.34,0,0,0,2.43,3.94,7.62,7.62,0,0,0,5.53.35,16.16,16.16,0,0,0,5.47-3.15,43.75,43.75,0,0,1,5.56-4.16,12.21,12.21,0,0,1,6.76-1.6,11.32,11.32,0,0,1,3.28.66,5.43,5.43,0,0,1,2.6,1.91,3,3,0,0,1,.51,1.53,3.29,3.29,0,0,1-.33,1.53,5.28,5.28,0,0,1-2,2.13,5.16,5.16,0,0,1-5,.53,3.39,3.39,0,0,1-1.63-1.58,2.57,2.57,0,0,1-.07-2,2.52,2.52,0,0,1,1.15-1.34,2.11,2.11,0,0,1,1.47-.2,2.24,2.24,0,0,1,1.58,1.21A1.13,1.13,0,0,1,257.93,211.62Z" style="fill:#e0e0e0"></path><path d="M297.5,211.19a1.13,1.13,0,0,1-.1.7,2.24,2.24,0,0,1-1.58,1.21,2.11,2.11,0,0,1-1.47-.2,2.52,2.52,0,0,1-1.15-1.34,2.61,2.61,0,0,1,.07-2A3.39,3.39,0,0,1,294.9,208a5.19,5.19,0,0,1,5,.53,5.28,5.28,0,0,1,2,2.13,3.29,3.29,0,0,1,.33,1.53,3.12,3.12,0,0,1-.5,1.53,5.5,5.5,0,0,1-2.61,1.91,10.93,10.93,0,0,1-3.28.66,12.21,12.21,0,0,1-6.76-1.6,42.94,42.94,0,0,1-5.55-4.16,16.3,16.3,0,0,0-5.48-3.15,7.62,7.62,0,0,0-5.53.35,4.36,4.36,0,0,0-2.43,3.94,3.44,3.44,0,0,0,.63,2,2.69,2.69,0,0,0,1.51,1,3.74,3.74,0,0,0,2.93-.53,2.48,2.48,0,0,0,1.12-1.53,1.66,1.66,0,0,0,.05-.5c0-.12,0-.18,0-.18s0,.06,0,.17a1.59,1.59,0,0,1,0,.53,2.5,2.5,0,0,1-1.11,1.66,3.9,3.9,0,0,1-3.1.63,3.07,3.07,0,0,1-1.68-1.13,3.83,3.83,0,0,1-.72-2.16,4.7,4.7,0,0,1,2.58-4.28,8.06,8.06,0,0,1,5.83-.42,16.51,16.51,0,0,1,5.63,3.21,43.84,43.84,0,0,0,5.51,4.11,11.87,11.87,0,0,0,6.51,1.56,10.82,10.82,0,0,0,3.14-.63,5,5,0,0,0,2.41-1.73,2.65,2.65,0,0,0,.17-2.66,5,5,0,0,0-1.81-2,4.87,4.87,0,0,0-4.66-.56,3.17,3.17,0,0,0-1.51,1.42,2.37,2.37,0,0,0,.93,3.05,1.86,1.86,0,0,0,1.32.21,2.17,2.17,0,0,0,1.54-1.07A2.08,2.08,0,0,0,297.5,211.19Z" style="fill:#e0e0e0"></path><g style="opacity:0.2"><path d="M266.49,209.6A1.41,1.41,0,1,0,267.9,211,1.41,1.41,0,0,0,266.49,209.6Z" style="fill:#e0e0e0"></path></g><g style="opacity:0.2"><path d="M311.31,209.6a1.41,1.41,0,1,0,1.42,1.41A1.42,1.42,0,0,0,311.31,209.6Z" style="fill:#e0e0e0"></path></g><g style="opacity:0.2"><path d="M223.88,209.6A1.41,1.41,0,1,0,225.3,211,1.42,1.42,0,0,0,223.88,209.6Z" style="fill:#e0e0e0"></path></g><path d="M281.17,57c0,.12-4.54.22-10.12.22s-10.12-.1-10.12-.22,4.53-.23,10.12-.23S281.17,56.91,281.17,57Z" style="fill:#e0e0e0"></path><path d="M337.1,41.44a36.07,36.07,0,0,0-3.62,2,40.69,40.69,0,0,0-7.27,6.85c-2.58,3-4.72,5.81-6.36,7.8-.82,1-1.51,1.79-2,2.32a4.64,4.64,0,0,1-.84.75,4.43,4.43,0,0,1,.69-.88c.45-.57,1.09-1.38,1.87-2.41,1.56-2,3.66-4.94,6.25-7.92a36.4,36.4,0,0,1,7.47-6.82,11.07,11.07,0,0,1,1.53-.86l.64-.33.57-.21A4.78,4.78,0,0,1,337.1,41.44Z" style="fill:#e0e0e0"></path><path d="M337.57,222.52a5,5,0,0,1-.77-.84l-2-2.35c-1.69-2-4.09-4.66-6.91-7.47s-5.5-5.19-7.49-6.88L318,203a5.1,5.1,0,0,1-.83-.77,4.84,4.84,0,0,1,1,.61c.6.42,1.44,1.06,2.47,1.87a93.08,93.08,0,0,1,7.62,6.79,90.68,90.68,0,0,1,6.82,7.6c.82,1,1.46,1.87,1.88,2.47A4.25,4.25,0,0,1,337.57,222.52Z" style="fill:#e0e0e0"></path><path d="M197.67,222.25a4.75,4.75,0,0,1,.55-1c.38-.62,1-1.49,1.74-2.54a61.6,61.6,0,0,1,14.48-14.1c1.07-.74,2-1.3,2.59-1.67a4.77,4.77,0,0,1,1-.52c0,.07-1.3.95-3.37,2.49a74.38,74.38,0,0,0-14.41,14C198.65,221,197.74,222.3,197.67,222.25Z" style="fill:#e0e0e0"></path><path d="M198,41.44a4.83,4.83,0,0,1,.85.73l2.18,2.1c1.84,1.76,4.43,4.16,7.3,6.8s5.42,5.08,7.2,6.92c.89.92,1.6,1.67,2.07,2.21a4.6,4.6,0,0,1,.69.87,4.38,4.38,0,0,1-.84-.73l-2.18-2.09c-1.84-1.77-4.43-4.16-7.3-6.8s-5.42-5.08-7.2-6.92c-.89-.92-1.6-1.68-2.07-2.22A5.22,5.22,0,0,1,198,41.44Z" style="fill:#e0e0e0"></path><path d="M331.63,45.6c.14,0,.26,38.23.26,85.39s-.12,85.4-.26,85.4-.26-38.23-.26-85.4S331.48,45.6,331.63,45.6Z" style="fill:#e0e0e0"></path><path d="M329.66,45.2c0,.15-28.55.27-63.75.27s-63.75-.12-63.75-.27,28.54-.26,63.75-.26S329.66,45.06,329.66,45.2Z" style="fill:#e0e0e0"></path><path d="M202.55,213.63c-.14,0-.26-37.62-.26-84s.12-84,.26-84,.26,37.61.26,84S202.69,213.63,202.55,213.63Z" style="fill:#e0e0e0"></path><path d="M331.63,216.78c0,.15-28.2.26-63,.26s-63-.11-63-.26,28.18-.26,63-.26S331.63,216.64,331.63,216.78Z" style="fill:#e0e0e0"></path><path d="M317,202.05s0-.24,0-.68,0-1.12,0-2c0-1.75,0-4.33,0-7.69,0-6.72,0-16.53-.06-28.94,0-24.81-.06-60-.1-101.56l.21.21-98.88,0h0l.23-.23c0,52.83,0,101.67,0,140.86l-.19-.19L290,202,310,202l5.23,0c1.18,0,1.8,0,1.8,0l-1.76,0-5.2,0-19.88,0-72.05.1h-.18v-.18c0-39.19,0-88-.05-140.86V61h.24L317,61h.21v.21c0,41.62-.08,76.86-.11,101.69,0,12.4,0,22.19-.05,28.9,0,3.34,0,5.91,0,7.65,0,.86,0,1.51,0,2S317,202.05,317,202.05Z" style="fill:#e0e0e0"></path><path d="M320.9,205.15s0-.25,0-.71,0-1.17,0-2.08c0-1.83,0-4.53,0-8.05,0-7,0-17.3-.08-30.31-.05-26-.11-62.88-.19-106.53l.2.21-107-.38.23-.23v.16c.16,55.46.31,106.77.43,148.22l-.18-.19,77.51-.12H319l1.95,0-1.91,0-5.61,0-21.46.11-77.63.31h-.19v-.18c-.14-41.45-.32-92.76-.52-148.22v-.39h.23l107,.42h.2v.2c0,43.71,0,80.65,0,106.67,0,13,0,23.24,0,30.26,0,3.5,0,6.19,0,8,0,.9,0,1.58,0,2.05S320.9,205.15,320.9,205.15Z" style="fill:#e0e0e0"></path><path d="M222.64,205.42c-.13,0-.26-.74-.23-1.65s.11-1.63.23-1.64.26.74.23,1.65S222.76,205.41,222.64,205.42Z" style="fill:#e0e0e0"></path><path d="M219.17,205.47c-.14,0-.27-.75-.23-1.66s.11-1.63.23-1.64.26.75.22,1.66A4,4,0,0,1,219.17,205.47Z" style="fill:#e0e0e0"></path><path d="M226.58,205.27c-.13,0-.26-.7-.29-1.58s.05-1.59.18-1.59.25.7.28,1.58S226.7,205.27,226.58,205.27Z" style="fill:#e0e0e0"></path><path d="M230.18,205.27c-.12,0-.25-.7-.28-1.58s0-1.59.17-1.59.25.7.29,1.58S230.31,205.27,230.18,205.27Z" style="fill:#e0e0e0"></path><path d="M233.79,205.27c-.13,0-.25-.7-.28-1.58s0-1.59.17-1.59.25.7.28,1.58S233.91,205.27,233.79,205.27Z" style="fill:#e0e0e0"></path><path d="M237.39,205.27c-.12,0-.25-.7-.28-1.58s0-1.59.17-1.59.26.7.29,1.58S237.52,205.27,237.39,205.27Z" style="fill:#e0e0e0"></path><path d="M241,205.27c-.13,0-.25-.7-.28-1.58s0-1.59.17-1.59.25.7.28,1.58S241.13,205.27,241,205.27Z" style="fill:#e0e0e0"></path><path d="M244.61,205.27c-.13,0-.26-.7-.29-1.58s.05-1.59.17-1.59.26.7.29,1.58S244.73,205.27,244.61,205.27Z" style="fill:#e0e0e0"></path><path d="M248.21,205.27c-.12,0-.25-.7-.28-1.58s0-1.59.17-1.59.25.7.28,1.58S248.34,205.27,248.21,205.27Z" style="fill:#e0e0e0"></path><path d="M251.82,205.27c-.13,0-.26-.7-.29-1.58s.05-1.59.18-1.59.25.7.28,1.58S251.94,205.27,251.82,205.27Z" style="fill:#e0e0e0"></path><path d="M255.42,205.27c-.12,0-.25-.7-.28-1.58s.05-1.59.17-1.59.25.7.29,1.58S255.55,205.27,255.42,205.27Z" style="fill:#e0e0e0"></path><path d="M259,205.27c-.13,0-.25-.7-.29-1.58s.05-1.59.18-1.59.25.7.28,1.58S259.15,205.27,259,205.27Z" style="fill:#e0e0e0"></path><path d="M262.63,205.27c-.12,0-.25-.7-.28-1.58s0-1.59.17-1.59.26.7.29,1.58S262.76,205.27,262.63,205.27Z" style="fill:#e0e0e0"></path><path d="M266.24,205.27c-.13,0-.25-.7-.28-1.58s0-1.59.17-1.59.25.7.28,1.58S266.37,205.27,266.24,205.27Z" style="fill:#e0e0e0"></path><path d="M269.85,205.27c-.13,0-.26-.7-.29-1.58s.05-1.59.17-1.59.26.7.29,1.58S270,205.27,269.85,205.27Z" style="fill:#e0e0e0"></path><path d="M273.45,205.27c-.13,0-.25-.7-.28-1.58s0-1.59.17-1.59.25.7.28,1.58S273.58,205.27,273.45,205.27Z" style="fill:#e0e0e0"></path><path d="M277.06,205.27c-.13,0-.26-.7-.29-1.58s.05-1.59.18-1.59.25.7.28,1.58S277.18,205.27,277.06,205.27Z" style="fill:#e0e0e0"></path><path d="M280.66,205.27c-.12,0-.25-.7-.28-1.58s.05-1.59.17-1.59.25.7.28,1.58S280.79,205.27,280.66,205.27Z" style="fill:#e0e0e0"></path><path d="M284.27,205.27c-.13,0-.26-.7-.29-1.58s0-1.59.18-1.59.25.7.28,1.58S284.39,205.27,284.27,205.27Z" style="fill:#e0e0e0"></path><path d="M287.87,205.27c-.12,0-.25-.7-.28-1.58s.05-1.59.17-1.59.26.7.29,1.58S288,205.27,287.87,205.27Z" style="fill:#e0e0e0"></path><path d="M291.48,205.27c-.13,0-.25-.7-.28-1.58s0-1.59.17-1.59.25.7.28,1.58S291.6,205.27,291.48,205.27Z" style="fill:#e0e0e0"></path><path d="M295.08,205.27c-.12,0-.25-.7-.28-1.58s.05-1.59.17-1.59.26.7.29,1.58S295.21,205.27,295.08,205.27Z" style="fill:#e0e0e0"></path><path d="M298.69,205.27c-.13,0-.25-.7-.28-1.58s0-1.59.17-1.59.25.7.28,1.58S298.82,205.27,298.69,205.27Z" style="fill:#e0e0e0"></path><path d="M302.3,205.27c-.13,0-.26-.7-.29-1.58s.05-1.59.18-1.59.25.7.28,1.58S302.42,205.27,302.3,205.27Z" style="fill:#e0e0e0"></path><path d="M305.9,205.27c-.12,0-.25-.7-.28-1.58s0-1.59.17-1.59.25.7.28,1.58S306,205.27,305.9,205.27Z" style="fill:#e0e0e0"></path><path d="M309.51,205.27c-.13,0-.26-.7-.29-1.58s0-1.59.18-1.59.25.7.28,1.58S309.63,205.27,309.51,205.27Z" style="fill:#e0e0e0"></path><path d="M313.11,205.27c-.12,0-.25-.7-.28-1.58s.05-1.59.17-1.59.25.7.29,1.58S313.24,205.27,313.11,205.27Z" style="fill:#e0e0e0"></path><path d="M316.72,205.27c-.13,0-.25-.7-.28-1.58s0-1.59.17-1.59.25.7.28,1.58S316.84,205.27,316.72,205.27Z" style="fill:#e0e0e0"></path><path d="M320.77,201.09a8,8,0,0,1-3.8,0,8,8,0,0,1,3.8,0Z" style="fill:#e0e0e0"></path><path d="M320.77,197.08a8,8,0,0,1-3.8,0,8,8,0,0,1,3.8,0Z" style="fill:#e0e0e0"></path><path d="M320.77,193.06a8,8,0,0,1-3.8,0,8.31,8.31,0,0,1,3.8,0Z" style="fill:#e0e0e0"></path><path d="M320.77,189.05a8,8,0,0,1-3.8,0,8,8,0,0,1,3.8,0Z" style="fill:#e0e0e0"></path><path d="M320.77,185a8.31,8.31,0,0,1-3.8,0,8,8,0,0,1,3.8,0Z" style="fill:#e0e0e0"></path><path d="M320.77,181a8,8,0,0,1-3.8,0,8,8,0,0,1,3.8,0Z" style="fill:#e0e0e0"></path><path d="M320.77,177a8,8,0,0,1-3.8,0,8,8,0,0,1,3.8,0Z" style="fill:#e0e0e0"></path><path d="M320.77,173a8,8,0,0,1-3.8,0,8.31,8.31,0,0,1,3.8,0Z" style="fill:#e0e0e0"></path><path d="M320.77,169a8,8,0,0,1-3.8,0,8,8,0,0,1,3.8,0Z" style="fill:#e0e0e0"></path><path d="M320.77,165a8,8,0,0,1-3.8,0,8,8,0,0,1,3.8,0Z" style="fill:#e0e0e0"></path><path d="M320.77,161a8,8,0,0,1-3.8,0,8.31,8.31,0,0,1,3.8,0Z" style="fill:#e0e0e0"></path><path d="M320.77,156.94a8,8,0,0,1-3.8,0,8,8,0,0,1,3.8,0Z" style="fill:#e0e0e0"></path><path d="M320.77,152.93a8.31,8.31,0,0,1-3.8,0,8,8,0,0,1,3.8,0Z" style="fill:#e0e0e0"></path><path d="M320.77,148.91a8,8,0,0,1-3.8,0,8.31,8.31,0,0,1,3.8,0Z" style="fill:#e0e0e0"></path><path d="M320.77,144.9a8,8,0,0,1-3.8,0,8,8,0,0,1,3.8,0Z" style="fill:#e0e0e0"></path><path d="M320.77,140.89a8.31,8.31,0,0,1-3.8,0,8,8,0,0,1,3.8,0Z" style="fill:#e0e0e0"></path><path d="M320.77,136.87a8,8,0,0,1-3.8,0,8,8,0,0,1,3.8,0Z" style="fill:#e0e0e0"></path><path d="M320.77,132.86a8,8,0,0,1-3.8,0,8,8,0,0,1,3.8,0Z" style="fill:#e0e0e0"></path><path d="M320.77,128.84a8,8,0,0,1-3.8,0,8.31,8.31,0,0,1,3.8,0Z" style="fill:#e0e0e0"></path><path d="M320.77,124.83a8,8,0,0,1-3.8,0,8,8,0,0,1,3.8,0Z" style="fill:#e0e0e0"></path><path d="M320.77,120.82a8,8,0,0,1-3.8,0,8,8,0,0,1,3.8,0Z" style="fill:#e0e0e0"></path><path d="M320.77,116.8a8,8,0,0,1-3.8,0,8.31,8.31,0,0,1,3.8,0Z" style="fill:#e0e0e0"></path><path d="M320.77,112.79a8,8,0,0,1-3.8,0,8,8,0,0,1,3.8,0Z" style="fill:#e0e0e0"></path><path d="M320.77,108.78a8.31,8.31,0,0,1-3.8,0,8,8,0,0,1,3.8,0Z" style="fill:#e0e0e0"></path><path d="M320.77,104.76a8,8,0,0,1-3.8,0,8,8,0,0,1,3.8,0Z" style="fill:#e0e0e0"></path><path d="M320.77,100.75a8,8,0,0,1-3.8,0,8,8,0,0,1,3.8,0Z" style="fill:#e0e0e0"></path><path d="M320.77,96.74a8.31,8.31,0,0,1-3.8,0,8,8,0,0,1,3.8,0Z" style="fill:#e0e0e0"></path><path d="M320.77,92.72a8,8,0,0,1-3.8,0,8,8,0,0,1,3.8,0Z" style="fill:#e0e0e0"></path><path d="M320.77,88.71a8,8,0,0,1-3.8,0,8,8,0,0,1,3.8,0Z" style="fill:#e0e0e0"></path><path d="M320.77,84.69a8,8,0,0,1-3.8,0,8.31,8.31,0,0,1,3.8,0Z" style="fill:#e0e0e0"></path><path d="M320.77,80.68a8,8,0,0,1-3.8,0,8,8,0,0,1,3.8,0Z" style="fill:#e0e0e0"></path><path d="M320.77,76.67a8,8,0,0,1-3.8,0,8,8,0,0,1,3.8,0Z" style="fill:#e0e0e0"></path><path d="M320.77,72.65a8,8,0,0,1-3.8,0,8.31,8.31,0,0,1,3.8,0Z" style="fill:#e0e0e0"></path><path d="M320.77,68.64a8,8,0,0,1-3.8,0,8,8,0,0,1,3.8,0Z" style="fill:#e0e0e0"></path><path d="M320.77,64.63a8.31,8.31,0,0,1-3.8,0,8,8,0,0,1,3.8,0Z" style="fill:#e0e0e0"></path><path d="M320.77,60.61a8,8,0,0,1-3.8,0,8,8,0,0,1,3.8,0Z" style="fill:#e0e0e0"></path><path d="M316.43,61.19a4,4,0,0,1-.23-1.88,4,4,0,0,1,.23-1.88,4.14,4.14,0,0,1,.23,1.88A4.14,4.14,0,0,1,316.43,61.19Z" style="fill:#e0e0e0"></path><path d="M312.6,61.19a4.23,4.23,0,0,1-.22-1.88,4.23,4.23,0,0,1,.22-1.88,4,4,0,0,1,.23,1.88A4,4,0,0,1,312.6,61.19Z" style="fill:#e0e0e0"></path><path d="M308.78,61.19a4,4,0,0,1-.23-1.88,4,4,0,0,1,.23-1.88,4,4,0,0,1,.23,1.88A4,4,0,0,1,308.78,61.19Z" style="fill:#e0e0e0"></path><path d="M305,61.19a4,4,0,0,1-.23-1.88,4,4,0,0,1,.23-1.88,4.23,4.23,0,0,1,.22,1.88A4.23,4.23,0,0,1,305,61.19Z" style="fill:#e0e0e0"></path><path d="M301.13,61.19a4.14,4.14,0,0,1-.23-1.88,4.14,4.14,0,0,1,.23-1.88,4,4,0,0,1,.23,1.88A4,4,0,0,1,301.13,61.19Z" style="fill:#e0e0e0"></path><path d="M297.31,61.19a4,4,0,0,1-.23-1.88,4,4,0,0,1,.23-1.88,4,4,0,0,1,.23,1.88A4,4,0,0,1,297.31,61.19Z" style="fill:#e0e0e0"></path><path d="M293.49,61.19a4,4,0,0,1-.23-1.88,4,4,0,0,1,.23-1.88,4.23,4.23,0,0,1,.22,1.88A4.23,4.23,0,0,1,293.49,61.19Z" style="fill:#e0e0e0"></path><path d="M289.66,61.19a4.14,4.14,0,0,1-.23-1.88,4.14,4.14,0,0,1,.23-1.88,4,4,0,0,1,.23,1.88A4,4,0,0,1,289.66,61.19Z" style="fill:#e0e0e0"></path><path d="M285.84,61.19a4,4,0,0,1-.23-1.88,4,4,0,0,1,.23-1.88,4.14,4.14,0,0,1,.23,1.88A4.14,4.14,0,0,1,285.84,61.19Z" style="fill:#e0e0e0"></path><path d="M282,61.19a4.23,4.23,0,0,1-.22-1.88,4.23,4.23,0,0,1,.22-1.88,4,4,0,0,1,.23,1.88A4,4,0,0,1,282,61.19Z" style="fill:#e0e0e0"></path><path d="M278.19,61.19a4,4,0,0,1-.23-1.88,4,4,0,0,1,.23-1.88,4,4,0,0,1,.23,1.88A4,4,0,0,1,278.19,61.19Z" style="fill:#e0e0e0"></path><path d="M274.37,61.19a4,4,0,0,1-.23-1.88,4,4,0,0,1,.23-1.88,4.23,4.23,0,0,1,.22,1.88A4.23,4.23,0,0,1,274.37,61.19Z" style="fill:#e0e0e0"></path><path d="M270.54,61.19a4.14,4.14,0,0,1-.23-1.88,4.14,4.14,0,0,1,.23-1.88,4,4,0,0,1,.23,1.88A4,4,0,0,1,270.54,61.19Z" style="fill:#e0e0e0"></path><path d="M266.72,61.19a4,4,0,0,1-.23-1.88,4,4,0,0,1,.23-1.88,4.14,4.14,0,0,1,.23,1.88A4.14,4.14,0,0,1,266.72,61.19Z" style="fill:#e0e0e0"></path><path d="M262.89,61.19a4.23,4.23,0,0,1-.22-1.88,4.23,4.23,0,0,1,.22-1.88,4,4,0,0,1,.23,1.88A4,4,0,0,1,262.89,61.19Z" style="fill:#e0e0e0"></path><path d="M259.07,61.19a4,4,0,0,1-.23-1.88,4,4,0,0,1,.23-1.88,4,4,0,0,1,.23,1.88A4,4,0,0,1,259.07,61.19Z" style="fill:#e0e0e0"></path><path d="M255.25,61.19a4,4,0,0,1-.23-1.88,4,4,0,0,1,.23-1.88,4.23,4.23,0,0,1,.22,1.88A4.23,4.23,0,0,1,255.25,61.19Z" style="fill:#e0e0e0"></path><path d="M251.42,61.19a4.14,4.14,0,0,1-.23-1.88,4.14,4.14,0,0,1,.23-1.88,4,4,0,0,1,.23,1.88A4,4,0,0,1,251.42,61.19Z" style="fill:#e0e0e0"></path><path d="M247.6,61.19a4,4,0,0,1-.23-1.88,4,4,0,0,1,.23-1.88,4.14,4.14,0,0,1,.23,1.88A4.14,4.14,0,0,1,247.6,61.19Z" style="fill:#e0e0e0"></path><path d="M243.78,61.19a4,4,0,0,1-.23-1.88,4,4,0,0,1,.23-1.88,4.23,4.23,0,0,1,.22,1.88A4.23,4.23,0,0,1,243.78,61.19Z" style="fill:#e0e0e0"></path><path d="M240,61.19a4.14,4.14,0,0,1-.23-1.88,4.14,4.14,0,0,1,.23-1.88,4,4,0,0,1,.23,1.88A4,4,0,0,1,240,61.19Z" style="fill:#e0e0e0"></path><path d="M236.13,61.19a4,4,0,0,1-.23-1.88,4,4,0,0,1,.23-1.88,4.14,4.14,0,0,1,.23,1.88A4.14,4.14,0,0,1,236.13,61.19Z" style="fill:#e0e0e0"></path><path d="M232.3,61.19a4.23,4.23,0,0,1-.22-1.88,4.23,4.23,0,0,1,.22-1.88,4,4,0,0,1,.23,1.88A4,4,0,0,1,232.3,61.19Z" style="fill:#e0e0e0"></path><path d="M228.48,61.19a4,4,0,0,1-.23-1.88,4,4,0,0,1,.23-1.88,4,4,0,0,1,.23,1.88A4,4,0,0,1,228.48,61.19Z" style="fill:#e0e0e0"></path><path d="M224.66,61.19a4,4,0,0,1-.23-1.88,4,4,0,0,1,.23-1.88,4.23,4.23,0,0,1,.22,1.88A4.23,4.23,0,0,1,224.66,61.19Z" style="fill:#e0e0e0"></path><path d="M220.83,61.19a4.14,4.14,0,0,1-.23-1.88,4.14,4.14,0,0,1,.23-1.88,4,4,0,0,1,.23,1.88A4,4,0,0,1,220.83,61.19Z" style="fill:#e0e0e0"></path><path d="M218.07,62.51a10.71,10.71,0,0,1-4.32,0,10.26,10.26,0,0,1,4.32,0Z" style="fill:#e0e0e0"></path><path d="M218.07,65.7a10.26,10.26,0,0,1-4.32,0,10.26,10.26,0,0,1,4.32,0Z" style="fill:#e0e0e0"></path><path d="M218.07,68.9a10.26,10.26,0,0,1-4.32,0,10.26,10.26,0,0,1,4.32,0Z" style="fill:#e0e0e0"></path><path d="M218.07,72.1a10.71,10.71,0,0,1-4.32,0,10.26,10.26,0,0,1,4.32,0Z" style="fill:#e0e0e0"></path><path d="M218.07,75.29a10.26,10.26,0,0,1-4.32,0,10.71,10.71,0,0,1,4.32,0Z" style="fill:#e0e0e0"></path><path d="M218.07,78.49a10.26,10.26,0,0,1-4.32,0,10.26,10.26,0,0,1,4.32,0Z" style="fill:#e0e0e0"></path><path d="M218.07,81.69a10.26,10.26,0,0,1-4.32,0,10.26,10.26,0,0,1,4.32,0Z" style="fill:#e0e0e0"></path><path d="M218.07,84.88a10.26,10.26,0,0,1-4.32,0,10.71,10.71,0,0,1,4.32,0Z" style="fill:#e0e0e0"></path><path d="M218.07,88.08a10.26,10.26,0,0,1-4.32,0,10.26,10.26,0,0,1,4.32,0Z" style="fill:#e0e0e0"></path><path d="M218.07,91.28a10.26,10.26,0,0,1-4.32,0,10.26,10.26,0,0,1,4.32,0Z" style="fill:#e0e0e0"></path><path d="M218.07,94.48a10.71,10.71,0,0,1-4.32,0,10.26,10.26,0,0,1,4.32,0Z" style="fill:#e0e0e0"></path><path d="M218.07,97.67a10.26,10.26,0,0,1-4.32,0,10.26,10.26,0,0,1,4.32,0Z" style="fill:#e0e0e0"></path><path d="M218.07,100.87a10.26,10.26,0,0,1-4.32,0,10.26,10.26,0,0,1,4.32,0Z" style="fill:#e0e0e0"></path><path d="M218.07,104.07a10.71,10.71,0,0,1-4.32,0,10.26,10.26,0,0,1,4.32,0Z" style="fill:#e0e0e0"></path><path d="M218.07,107.26a10.26,10.26,0,0,1-4.32,0,10.71,10.71,0,0,1,4.32,0Z" style="fill:#e0e0e0"></path><path d="M218.07,110.46a10.26,10.26,0,0,1-4.32,0,10.26,10.26,0,0,1,4.32,0Z" style="fill:#e0e0e0"></path><path d="M218.07,113.66a10.26,10.26,0,0,1-4.32,0,10.26,10.26,0,0,1,4.32,0Z" style="fill:#e0e0e0"></path><path d="M218.07,116.85a10.26,10.26,0,0,1-4.32,0,10.71,10.71,0,0,1,4.32,0Z" style="fill:#e0e0e0"></path><path d="M218.07,120.05a10.26,10.26,0,0,1-4.32,0,10.26,10.26,0,0,1,4.32,0Z" style="fill:#e0e0e0"></path><path d="M218.07,123.25a10.26,10.26,0,0,1-4.32,0,10.26,10.26,0,0,1,4.32,0Z" style="fill:#e0e0e0"></path><path d="M218.07,126.45a10.71,10.71,0,0,1-4.32,0,10.26,10.26,0,0,1,4.32,0Z" style="fill:#e0e0e0"></path><path d="M218.07,129.64a10.26,10.26,0,0,1-4.32,0,10.26,10.26,0,0,1,4.32,0Z" style="fill:#e0e0e0"></path><path d="M218.07,132.84a10.26,10.26,0,0,1-4.32,0,10.26,10.26,0,0,1,4.32,0Z" style="fill:#e0e0e0"></path><path d="M218.07,136a10.71,10.71,0,0,1-4.32,0,10.26,10.26,0,0,1,4.32,0Z" style="fill:#e0e0e0"></path><path d="M218.07,139.23a10.26,10.26,0,0,1-4.32,0,10.71,10.71,0,0,1,4.32,0Z" style="fill:#e0e0e0"></path><path d="M218.07,142.43a10.26,10.26,0,0,1-4.32,0,10.26,10.26,0,0,1,4.32,0Z" style="fill:#e0e0e0"></path><path d="M218.07,145.63a10.26,10.26,0,0,1-4.32,0,10.26,10.26,0,0,1,4.32,0Z" style="fill:#e0e0e0"></path><path d="M218.07,148.82a10.26,10.26,0,0,1-4.32,0,10.71,10.71,0,0,1,4.32,0Z" style="fill:#e0e0e0"></path><path d="M218.07,152a10.26,10.26,0,0,1-4.32,0,10.26,10.26,0,0,1,4.32,0Z" style="fill:#e0e0e0"></path><path d="M218.07,155.22a10.26,10.26,0,0,1-4.32,0,10.26,10.26,0,0,1,4.32,0Z" style="fill:#e0e0e0"></path><path d="M218.07,158.42a10.71,10.71,0,0,1-4.32,0,10.26,10.26,0,0,1,4.32,0Z" style="fill:#e0e0e0"></path><path d="M218.07,161.61a10.26,10.26,0,0,1-4.32,0,10.26,10.26,0,0,1,4.32,0Z" style="fill:#e0e0e0"></path><path d="M218.07,164.81a10.26,10.26,0,0,1-4.32,0,10.26,10.26,0,0,1,4.32,0Z" style="fill:#e0e0e0"></path><path d="M218.07,168a10.71,10.71,0,0,1-4.32,0,10.26,10.26,0,0,1,4.32,0Z" style="fill:#e0e0e0"></path><path d="M218.07,171.2a10.26,10.26,0,0,1-4.32,0,10.71,10.71,0,0,1,4.32,0Z" style="fill:#e0e0e0"></path><path d="M218.07,174.4a10.26,10.26,0,0,1-4.32,0,10.26,10.26,0,0,1,4.32,0Z" style="fill:#e0e0e0"></path><path d="M218.07,177.6a10.26,10.26,0,0,1-4.32,0,10.26,10.26,0,0,1,4.32,0Z" style="fill:#e0e0e0"></path><path d="M218.07,180.79a10.26,10.26,0,0,1-4.32,0,10.71,10.71,0,0,1,4.32,0Z" style="fill:#e0e0e0"></path><path d="M218.07,184a10.26,10.26,0,0,1-4.32,0,10.26,10.26,0,0,1,4.32,0Z" style="fill:#e0e0e0"></path><path d="M218.07,187.19a10.26,10.26,0,0,1-4.32,0,10.26,10.26,0,0,1,4.32,0Z" style="fill:#e0e0e0"></path><path d="M218.07,190.39a10.71,10.71,0,0,1-4.32,0,10.26,10.26,0,0,1,4.32,0Z" style="fill:#e0e0e0"></path><path d="M218.07,193.58a10.26,10.26,0,0,1-4.32,0,10.26,10.26,0,0,1,4.32,0Z" style="fill:#e0e0e0"></path><path d="M218.07,196.78a10.26,10.26,0,0,1-4.32,0,10.26,10.26,0,0,1,4.32,0Z" style="fill:#e0e0e0"></path><path d="M218.07,200a10.71,10.71,0,0,1-4.32,0,10.26,10.26,0,0,1,4.32,0Z" style="fill:#e0e0e0"></path><path d="M222,84.86a7.88,7.88,0,0,1,2.56,4.81A17.93,17.93,0,0,0,226.1,95c2.54-.75,5.29.9,6.68,3.16s1.73,5,2,7.61a1.7,1.7,0,0,1,2.18-1.12,4.19,4.19,0,0,1,2.06,1.76,17.29,17.29,0,0,1,3.09,9.66c6.3,5,11.32,11.48,16.2,17.91a15.43,15.43,0,0,1,18.76-2.39,35.17,35.17,0,0,1,15.22-19.18,8.92,8.92,0,0,1,10.16-9.8,6.44,6.44,0,0,1,6.69-9.07,14.94,14.94,0,0,1,4.71-12.05A4.83,4.83,0,0,1,317,80.11V61.19H218.11V84.57A3.72,3.72,0,0,1,222,84.86Z" style="fill:#fafafa"></path><path d="M238.67,113.6c1.2.76,2.35,1.6,3.47,2.47a17.29,17.29,0,0,0-3.09-9.66,4.19,4.19,0,0,0-2.06-1.76,1.7,1.7,0,0,0-2.18,1.12c-.3-2.63-.65-5.36-2-7.61s-4.14-3.91-6.68-3.16a17.93,17.93,0,0,1-1.57-5.33A7.88,7.88,0,0,0,222,84.86a3.72,3.72,0,0,0-3.86-.29v24.21C225.06,107.64,232.62,109.74,238.67,113.6Z" style="fill:#e0e0e0"></path><path d="M313.88,81.49a14.94,14.94,0,0,0-4.71,12.05,6.44,6.44,0,0,0-6.69,9.07,8.92,8.92,0,0,0-10.16,9.8c.58-.35,1.17-.69,1.77-1A35.29,35.29,0,0,1,317,108.12v-28A4.83,4.83,0,0,0,313.88,81.49Z" style="fill:#e0e0e0"></path><path d="M294.09,111.4c-.6.32-1.19.66-1.77,1a35.17,35.17,0,0,0-15.22,19.18A15.43,15.43,0,0,0,258.34,134c-4.88-6.43-9.9-13-16.2-17.91-1.12-.87-2.27-1.71-3.47-2.47-6-3.86-13.61-6-20.56-4.82v93.27H317V108.12A35.29,35.29,0,0,0,294.09,111.4Z" style="fill:#ebebeb"></path><path d="M284.84,171.09l-52.57,9.06c-4.57,5.6-10.05,14.66-10.4,22.09l90.12.06C310.07,188.48,297.75,172.77,284.84,171.09Z" style="fill:#e0e0e0"></path><path d="M258.42,183.39l-9.56,3.46-4,3.66a1.62,1.62,0,0,0-.41,1.5c.32,1.37,1,3.89,1.31,4a16.57,16.57,0,0,0,2,.28s.79,1.33,1.24,1.34l.46.87a1.45,1.45,0,0,0,1.86.65l2.56-1.12s.36-.71-.18-.89a4.55,4.55,0,0,0-2.08.27s-.59-1.41-.39-1.81a3.41,3.41,0,0,1,1.9-2.1c1.15-.36,8.06-3.24,8.06-3.24Z" style="fill:#fafafa"></path><path d="M247.24,196.24c0,.07-.5,0-.92-.61a2.32,2.32,0,0,1-.45-1.15A4.56,4.56,0,0,1,246,193a7,7,0,0,1,1.41-3.35c.14.06-.5,1.54-.9,3.45a3.1,3.1,0,0,0,.13,2.32C246.91,196,247.26,196.17,247.24,196.24Z" style="fill:#e0e0e0"></path><path d="M247.78,196.46c-.06,0-.23-.25-.36-.74a4.2,4.2,0,0,1,0-2,5,5,0,0,1,1.28-2.45c.16.07-.38,1.19-.77,2.57A16.65,16.65,0,0,0,247.78,196.46Z" style="fill:#e0e0e0"></path><path d="M249.09,198a2.61,2.61,0,0,1-.47-2.38,3,3,0,0,1,1.15-2.13c.14.08-.42,1-.64,2.22A21.46,21.46,0,0,0,249.09,198Z" style="fill:#e0e0e0"></path><path d="M250.53,86.56c-1.68,2.71-3.66,12.7-3,16.15s2,6.72,1.67,10.15c-.44,4.27-3.55,8.21-2.79,12.43.66,3.67,4.1,6.21,7.62,7.44a8.45,8.45,0,0,0,5.05.47c2.44-.7,4-3,5.22-5.22a16.88,16.88,0,0,0,2.23-6.1,21.32,21.32,0,0,0-.95-7.15A126.4,126.4,0,0,1,262,86.47" style="fill:#e0e0e0"></path><path d="M285.84,127.64s2.73,2.08,4.71,8.56c1.2,3.92,5.61,17.94,8.14,27.81,1.65,6.45-1.8,12.64-7.86,15.74l-31.42,12.12-3.71-9.59,25.06-16.47-6.06-22.44c-1-3.41-1.42-6.88-.17-10.21S280.57,127,285.84,127.64Z" style="fill:#f5f5f5"></path><path d="M298.14,172.37a1.88,1.88,0,0,1-.13.44,6.14,6.14,0,0,1-.54,1.18,13,13,0,0,1-3.13,3.62,28.22,28.22,0,0,1-6,3.7c-2.42,1.17-5.23,2-8.09,3.09-5.75,2.12-10.91,4.2-14.74,5.44-1.91.64-3.47,1.09-4.55,1.4a11.58,11.58,0,0,1-1.7.41,11.07,11.07,0,0,1,1.64-.6c1.06-.37,2.6-.88,4.49-1.56,3.79-1.32,8.92-3.45,14.68-5.58,2.88-1.08,5.68-1.91,8.07-3a28.46,28.46,0,0,0,6-3.56,13.52,13.52,0,0,0,3.19-3.43,7.7,7.7,0,0,0,.62-1.12A1.42,1.42,0,0,1,298.14,172.37Z" style="fill:#e0e0e0"></path><path d="M269.12,118.21s14.12,6.35,16.72,9.43c5.78,6.84,2,42.66,2,42.66l-25.35,12.2H249.4s-3.58-14.84-6.47-24.73a30,30,0,0,1,0-17.56Z" style="fill:#f5f5f5"></path><path d="M250.39,88.23a10.2,10.2,0,0,1,4.85-8,16.89,16.89,0,0,1,9.26-2.37c4.93,0,10.15,1.79,13,5.81,2.05,2.86,2.66,6.46,3.23,9.94,1.6,9.89,3.2,20,1.39,29.88a10.63,10.63,0,0,1-1.47,4.16,4.29,4.29,0,0,1-3.74,2" style="fill:#e0e0e0"></path><path d="M275.91,84.28l-.05,2.56-.51,38.46c-.06,4.47-4,8-8.73,7.87h0c-4.83-.1-8.75-3.84-8.76-8.35,0-4.73-.12-9.72-.12-9.72s-6.1-1-7.36-9c-.63-4-.43-10.45-.1-15.75a8.41,8.41,0,0,1,9.27-7.84Z" style="fill:#fafafa"></path><path d="M253,97.5a1,1,0,0,0,1,1,1,1,0,0,0,1-.92,1,1,0,0,0-1-1A1,1,0,0,0,253,97.5Z" style="fill:#e0e0e0"></path><path d="M251.69,93.76c.12.13.9-.44,2-.44s1.9.55,2,.42-.07-.3-.42-.56a2.88,2.88,0,0,0-1.62-.5,2.7,2.7,0,0,0-1.59.52C251.74,93.46,251.63,93.7,251.69,93.76Z" style="fill:#e0e0e0"></path><path d="M263.07,97.5a1,1,0,0,0,1,1,1,1,0,0,0,1.06-.92,1,1,0,0,0-1-1A1,1,0,0,0,263.07,97.5Z" style="fill:#e0e0e0"></path><path d="M262.48,94c.13.13.91-.44,2-.44s1.91.56,2,.42-.07-.3-.43-.55a2.75,2.75,0,0,0-1.61-.5,2.69,2.69,0,0,0-1.6.51C262.54,93.66,262.42,93.9,262.48,94Z" style="fill:#e0e0e0"></path><path d="M258.5,102.11a7.17,7.17,0,0,0-1.79-.33c-.28,0-.54-.08-.59-.27a1.44,1.44,0,0,1,.19-.83l.83-2.14A36.86,36.86,0,0,0,259,93a37.45,37.45,0,0,0-2.31,5.43c-.27.75-.54,1.46-.79,2.15a1.62,1.62,0,0,0-.15,1.1.71.71,0,0,0,.46.41,1.75,1.75,0,0,0,.48.06A7.62,7.62,0,0,0,258.5,102.11Z" style="fill:#e0e0e0"></path><path d="M257.74,115.1a20.22,20.22,0,0,0,10.66-2.84s-2.59,5.47-10.55,4.72Z" style="fill:#ebebeb"></path><path d="M264.8,103.81c0,.14-.73.31-1.6,0s-1.34-.9-1.24-1,.67.25,1.42.51S264.79,103.66,264.8,103.81Z" style="fill:#e0e0e0"></path><path d="M259.31,82.29c-1.73,3-6.68,5.54-9.91,6.83a12.08,12.08,0,0,1,1.88-4.39,7.33,7.33,0,0,1,3.8-2.8c.78-.23,2.76-.46,3.32.13" style="fill:#e0e0e0"></path><path d="M261.29,104.5a.88.88,0,0,0-1-.47,11.22,11.22,0,0,1-1.13.33,6.06,6.06,0,0,0-.74,0,.7.7,0,0,0-.58.52,1.48,1.48,0,0,0,.44,1.41,1.2,1.2,0,0,0,.82.29,3.15,3.15,0,0,0,1.21-.21,1.65,1.65,0,0,0,.87-.64A1.4,1.4,0,0,0,261.29,104.5Z" style="fill:#ebebeb"></path><path d="M262.1,104.61a3.62,3.62,0,0,1-2.3,1,3.36,3.36,0,0,1-2.44-.43c0-.14,1.09.14,2.39,0S262,104.48,262.1,104.61Z" style="fill:#e0e0e0"></path><path d="M250.75,132a219.61,219.61,0,0,0-3.19,24.49c-.17,2.28-1.31,11.5-1.31,11.5l9.5,6.91-2,8.45c-6.18-1.18-13.66-.49-19.77-2-2-.47-4-1-5.33-2.55-1.78-2.06-1.57-5.11-1.25-7.81.42-3.59,1-7.44,3.43-10.07,2.09-2.22,5.32-3.26,7-5.77,1.57-2.28,1.55-5.25,1.9-8a27.45,27.45,0,0,1,12.53-19.57" style="fill:#f5f5f5"></path><path d="M257.74,121.38S243.9,136,242.93,140.21s14.56,10.58,22.79,7.53,10.4-7.11,10.19-10.87-4.86-15.49-4.86-15.49Z" style="fill:#fafafa"></path><path d="M279.15,91.88c0,.27.05.54.08.8.93,10,1.16,20.06,1.39,30.1.06,2.78,0,5.84-1.81,7.93a7.77,7.77,0,0,1-4.53,2.29,5.18,5.18,0,0,1-4.55-.93c-1.45-1.4-1.29-3.73-1-5.73,1.26-10.27,3-20.88,2.84-31.22a5.87,5.87,0,0,0-.36-2.28c-.49-1.07-2.8-1.49-3.73-2.2-2.75-2.08-6-5.32-7-8.62l12.89-.25,4.45,2.34" style="fill:#e0e0e0"></path><path d="M246.75,167.22a4.15,4.15,0,0,1-.64-.82,23.64,23.64,0,0,1-1.47-2.42,29.44,29.44,0,0,1-3-8.83,32.72,32.72,0,0,1-.13-9.33c.16-1.18.33-2.13.49-2.78a3.59,3.59,0,0,1,.29-1c.09,0-.19,1.46-.41,3.82a37.27,37.27,0,0,0,.28,9.2,32.27,32.27,0,0,0,2.8,8.75C246,165.94,246.83,167.17,246.75,167.22Z" style="fill:#e0e0e0"></path><path d="M255.29,175.55a22.86,22.86,0,0,1-1.69-1.94,41.58,41.58,0,0,0-4.41-4.33,34.7,34.7,0,0,0-5-3.58c-1.37-.79-2.28-1.16-2.25-1.24a8,8,0,0,1,2.43.91,27.06,27.06,0,0,1,5.18,3.51,31.58,31.58,0,0,1,4.35,4.49A8.67,8.67,0,0,1,255.29,175.55Z" style="fill:#e0e0e0"></path><path d="M252.07,176l3.34-.41,12.94,5.26s-.83,1-1.42.83a11.16,11.16,0,0,1-1.33-.5s5.84,4.68,5.43,5.35-1.51-.17-2.84-.67a51,51,0,0,1-4.85-2.59s6.27,6.26,6.18,7-.91,1.25-1.42.83-1.75-1.34-1.75-1.34-.58.92-1.42.84a6.51,6.51,0,0,1-1.75-.5s-2,1-2.76.5-7.1-7.19-7.1-7.19l-2.75-.66S248.9,177.13,252.07,176Z" style="fill:#fafafa"></path><path d="M261.12,179.43a11.71,11.71,0,0,1,4.59,1.81,6.05,6.05,0,0,1-2.39-.66A6.13,6.13,0,0,1,261.12,179.43Z" style="fill:#e0e0e0"></path><path d="M260.84,184.55a44.37,44.37,0,0,1,5.26,5.24,11.18,11.18,0,0,1-2.89-2.36A11.34,11.34,0,0,1,260.84,184.55Z" style="fill:#e0e0e0"></path><path d="M260,188.08c.11-.09.7.39,1.43.95s1.33,1,1.26,1.15-.82-.13-1.58-.73S259.92,188.18,260,188.08Z" style="fill:#e0e0e0"></path><path d="M245.47,166.51a15,15,0,0,0-2.33-3.48,15.31,15.31,0,0,0-3.48-2.31,2.46,2.46,0,0,1,1.26.25,7.58,7.58,0,0,1,2.59,1.7,7.32,7.32,0,0,1,1.7,2.58C245.49,166,245.53,166.49,245.47,166.51Z" style="fill:#e0e0e0"></path><path d="M248.86,164.4s-.21-.2-.51-.61a15.94,15.94,0,0,1-1.12-1.85A20.82,20.82,0,0,1,245.39,148a14.36,14.36,0,0,1,.6-2.08,2.39,2.39,0,0,1,.33-.72c.09,0-.27,1.09-.57,2.87a23.17,23.17,0,0,0,1.81,13.7C248.32,163.41,248.94,164.35,248.86,164.4Z" style="fill:#e0e0e0"></path><path d="M253.74,165.81a8.79,8.79,0,0,1-1.29-2.34,21,21,0,0,1-1.54-6.27,20.54,20.54,0,0,1,.45-6.44,8.72,8.72,0,0,1,.86-2.53,30.81,30.81,0,0,0-.79,8.92A30.71,30.71,0,0,0,253.74,165.81Z" style="fill:#e0e0e0"></path><path d="M259.21,167.51s-.2-.19-.48-.58a12.23,12.23,0,0,1-1-1.77,17.63,17.63,0,0,1-1.69-6.53,17.84,17.84,0,0,1,.88-6.68,12.35,12.35,0,0,1,.8-1.88,2.33,2.33,0,0,1,.4-.64c.09,0-.38,1-.85,2.63a20,20,0,0,0-.71,6.54A20.29,20.29,0,0,0,258,165C258.71,166.57,259.28,167.46,259.21,167.51Z" style="fill:#e0e0e0"></path><path d="M264.56,166.09a8.22,8.22,0,0,1-1.31-2.19,20.77,20.77,0,0,1-1.67-12.07,8.53,8.53,0,0,1,.66-2.46,32.9,32.9,0,0,0-.22,8.55A32.41,32.41,0,0,0,264.56,166.09Z" style="fill:#e0e0e0"></path><path d="M305.27,166.24c-.73-2.26-2.31-4.12-3.52-6.17-2-3.39-3-7.29-3.81-11.14s-1.57-7.77-3.2-11.36-3.81-8.78-7.88-8.44h0c-4.22.17-8.43,2.48-11.49,5.38a34.07,34.07,0,0,0-9.48,16.13c-1.57,6.12,0,17.36,1.91,23.38l8.3-5.68a23.51,23.51,0,0,1-1.06-19.8c2.58-6.3,8.62-11.3,15.13-13.3,2.23,6.56,4.22,13.57,6.08,19.91,1.64,5.55,3.78,11.35,2,16.89-.45,1.41-2.39,3.68-1.21,4.57,1.49,1.14,3.71.53,5.2-.63A9.15,9.15,0,0,0,305.27,166.24Z" style="fill:#ebebeb"></path><path d="M278,146.86a11.66,11.66,0,0,1,.38,1.55c.23,1,.58,2.44,1.05,4.22s1.08,3.88,1.51,6.3q.15.9.27,1.86l.09,1a7,7,0,0,1-.06,1,4.89,4.89,0,0,1-.63,2,6.65,6.65,0,0,1-1.59,1.46c-4.51,3.33-8.61,6.33-11.6,8.47l-3.55,2.52a8.92,8.92,0,0,1-1.34.87,7.83,7.83,0,0,1,1.22-1l3.45-2.65c2.93-2.23,7-5.27,11.51-8.6a6.14,6.14,0,0,0,1.47-1.33,4.46,4.46,0,0,0,.55-1.8,5,5,0,0,0,.06-.93c0-.32-.05-.64-.08-.95-.07-.63-.15-1.24-.24-1.84-.4-2.38-1-4.49-1.39-6.28s-.73-3.25-.9-4.27c-.08-.51-.13-.91-.16-1.17A1.23,1.23,0,0,1,278,146.86Z" style="fill:#e0e0e0"></path><path d="M287.91,167.27a11.6,11.6,0,0,0-3-2.37,11.85,11.85,0,0,0-3.73-.81c0-.06.42-.22,1.16-.25a6.09,6.09,0,0,1,2.79.59,6.19,6.19,0,0,1,2.23,1.78C287.82,166.8,288,167.24,287.91,167.27Z" style="fill:#e0e0e0"></path><path d="M292.71,133.41a4.72,4.72,0,0,0-1.77-.6,8.73,8.73,0,0,0-4.9,1.33,29,29,0,0,0-6.13,4.63A33.44,33.44,0,0,0,274,146.1a22.73,22.73,0,0,0-2.57,9,26.76,26.76,0,0,0,.47,7.66,27.43,27.43,0,0,0,1.51,5c.46,1.14.76,1.76.72,1.78a2.46,2.46,0,0,1-.26-.42c-.15-.29-.4-.71-.65-1.28a24.73,24.73,0,0,1-1.68-5A26.14,26.14,0,0,1,271,155a22.68,22.68,0,0,1,2.6-9.18,32.74,32.74,0,0,1,6-7.42,28.56,28.56,0,0,1,6.29-4.61,8.69,8.69,0,0,1,5.09-1.2,3.54,3.54,0,0,1,1.36.49A1.88,1.88,0,0,1,292.71,133.41Z" style="fill:#f5f5f5"></path><path d="M290.83,130.53a28.76,28.76,0,0,0-7.43,2.31,26.55,26.55,0,0,0-6.88,4.83,28.46,28.46,0,0,0-5.95,8.37A31.62,31.62,0,0,0,268,156a35.6,35.6,0,0,0,.18,8.44,39.88,39.88,0,0,0,1.15,5.6,20.8,20.8,0,0,1,.56,2,2.08,2.08,0,0,1-.23-.5c-.12-.34-.33-.83-.52-1.48a33.94,33.94,0,0,1-1.33-5.6,35.36,35.36,0,0,1-.29-8.54,31.28,31.28,0,0,1,2.63-10.12,27.92,27.92,0,0,1,6.09-8.5,26.14,26.14,0,0,1,7.05-4.83,22.47,22.47,0,0,1,5.49-1.74,13.64,13.64,0,0,1,1.55-.2A1.91,1.91,0,0,1,290.83,130.53Z" style="fill:#f5f5f5"></path></g><g id="freepik--Floor--inject-179"><path d="M732.3,460.56c0,.14-160,.26-357.28.26S17.7,460.7,17.7,460.56s160-.26,357.32-.26S732.3,460.41,732.3,460.56Z" style="fill:#263238"></path></g><g id="freepik--character-3--inject-179"><path d="M539,267.72c-.5-1.54-16.08-105.28-10.71-112.77,11.67-16.27,110.19-13.16,120.07-1.3s-10.16,114.07-10.16,114.07Z" style="fill:#F49200"></path><g style="opacity:0.30000000000000004"><path d="M634.73,203.64c-7-6-15.5-9.73-23.89-13.42A32.42,32.42,0,0,0,619.77,174a34.36,34.36,0,0,1,1.69-6.82c1.25-2.85,3.6-5,5.4-7.58,2.32-3.26,3.5-8.31.44-10.91-2.57-2.19-6.78-1.09-9,1.42s-3.08,6-3.81,9.28a26,26,0,0,0-44.93,26.21,8,8,0,0,1,1.1,4.13c-.19,6-2.78,6.23-5.27,7-9,2.82-17.22,7.05-21.84,15.25s-6.18,14.86-8.23,24l111.56-8.72C647,218.18,641.7,209.6,634.73,203.64Z"></path></g><path d="M558.15,251.36s5.27-22.28,5.9-22.5-9.81-21.85-13.27-20.73c-4.66,1.5-20,34.45-21.84,37.91-7.72,14.3-3.71,21.08-3.71,21.08L565.32,269c1.89-.44,8.85-15.89,8.85-15.89Z" style="fill:#263238"></path><path d="M581.75,195.43c-.62.24-31,12.58-31,12.58s4.06,39.18,4.06,39.82,1.85,13.79,1.85,13.79l75.47-1.44L628,220.06l5.81-15.19-28.75-10.62Z" style="fill:#263238"></path><path d="M572.77,269.78s8.26-6.68,11.83-7.94a139,139,0,0,1,13.82-3.75c2.38-.41,13.12-1.77,13.12-1.77s5.56.32,5.46,5.62-5.26,6.24-5.26,6.24-5.57.1-5.87.21-2.48,2.39-5.17,2.08a33.48,33.48,0,0,1-6.76-2,74.58,74.58,0,0,1-7.25,2.91c-1.49.32-4.57-.83-4.57-.83a5.28,5.28,0,0,1-3.46,1.41,2.38,2.38,0,0,1-2-1S573.84,271,572.77,269.78Z" style="fill:#ffbf9d"></path><path d="M607.52,256.11s3.33-2.83,5.08-3.29,15.14-1.06,15.14-1.06l4.65-2.89-2.5-7.36L627,222.19l6.86-17.32s5.57,2.77,7.9,6.42,18,36.36,18.16,41.23-4.52,14-4.52,14-47,3.14-47,2.49S607.52,256.11,607.52,256.11Z" style="fill:#263238"></path><path d="M633.18,247.19a11.33,11.33,0,0,1,1.3-2.54,29.92,29.92,0,0,1,4.29-5.4,28.77,28.77,0,0,1,5.42-4.26,10.78,10.78,0,0,1,2.55-1.28,25.3,25.3,0,0,1-2.35,1.59,35.6,35.6,0,0,0-5.25,4.32,38,38,0,0,0-4.35,5.23A23.84,23.84,0,0,1,633.18,247.19Z" style="fill:#455a64"></path><path d="M627.58,229.21a9.28,9.28,0,0,1,.44,1.49l1,4.12c.85,3.48,2,8.3,3.2,13.63,0,.15.07.31.11.45l-.32-.19A14.71,14.71,0,0,1,647.79,255a8.81,8.81,0,0,1,.57,1,1.54,1.54,0,0,1,.16.36,20.9,20.9,0,0,0-3.7-4.18,14.75,14.75,0,0,0-5.32-2.79,14.48,14.48,0,0,0-7.33-.13l-.26.06-.06-.26-.11-.46c-1.22-5.32-2.29-10.16-3-13.66l-.86-4.15A7.81,7.81,0,0,1,627.58,229.21Z" style="fill:#455a64"></path><path d="M550.93,208.56a1.69,1.69,0,0,1,.27.32l.71,1,2.62,3.77c2.27,3.3,5.45,8,9.25,13.49l-.19-.1,20.93,0,30.77.08,9.32.08,2.54.05a6,6,0,0,1,.88,0,4.59,4.59,0,0,1-.88.05l-2.54.05-9.32.09-30.77.07-20.93,0h-.13l-.06-.1-9.09-13.6L551.79,210l-.65-1A1.79,1.79,0,0,1,550.93,208.56Z" style="fill:#455a64"></path><path d="M552.49,220.84a5.8,5.8,0,0,1,1.41-2.59,5.94,5.94,0,0,1,2.19-2,14.6,14.6,0,0,1-1.78,2.3A15.52,15.52,0,0,1,552.49,220.84Z" style="fill:#455a64"></path><path d="M550.46,218.11a4.15,4.15,0,0,1,1.35-2.82,4.07,4.07,0,0,1,2.71-1.55,22.78,22.78,0,0,0-2.33,1.9C551.06,216.85,550.61,218.16,550.46,218.11Z" style="fill:#455a64"></path><path d="M538.15,245.35s.1-.06.3-.13.5-.17.9-.25a12.44,12.44,0,0,1,3.46-.24,13.48,13.48,0,0,1,5,1.33,13.88,13.88,0,0,1,5,4.07l-.16-.1c.7.13,1.41.29,2.15.46,5,1.14,9.44,2.25,12.68,3.06l3.84,1a7.78,7.78,0,0,1,1.39.4,7.56,7.56,0,0,1-1.44-.2c-.92-.18-2.24-.45-3.87-.81L554.74,251c-.73-.17-1.45-.34-2.12-.46l-.1,0-.06-.08a13.78,13.78,0,0,0-4.82-4,14,14,0,0,0-4.86-1.4A18,18,0,0,0,538.15,245.35Z" style="fill:#455a64"></path><path d="M569.5,252.9c-.14,0-.26-5.6-.26-12.51s.12-12.5.26-12.5.26,5.6.26,12.5S569.64,252.9,569.5,252.9Z" style="fill:#455a64"></path><path d="M595.69,251.88c-.15,0-.26-5.45-.26-12.18s.11-12.19.26-12.19S596,233,596,239.7,595.83,251.88,595.69,251.88Z" style="fill:#455a64"></path><path d="M612.58,252.26c-.14,0-.26-5.31-.26-11.87s.12-11.87.26-11.87.27,5.32.27,11.87S612.73,252.26,612.58,252.26Z" style="fill:#455a64"></path><path d="M635.93,218.63c-.13.09-.89-.83-2-1.72s-2.21-1.41-2.16-1.55a4.27,4.27,0,0,1,2.48,1.14A4.4,4.4,0,0,1,635.93,218.63Z" style="fill:#455a64"></path><path d="M638.63,215.42c-.12.1-1.1-1-2.59-1.91s-2.89-1.33-2.86-1.48a5.33,5.33,0,0,1,3.13,1A5.46,5.46,0,0,1,638.63,215.42Z" style="fill:#455a64"></path><path d="M581.75,195.43c-.43.18-1.43,4-1,7.67.63,5.82,14.46,19.53,14.46,19.53s9.62-15,10.63-19-.74-9.08-.74-9.08Z" style="fill:#fff"></path><path d="M592,210.05l4.28-.12,2.06,2.74-2.6,4.18,1.79,2.11-2.31,3.67c-1-1-2.14-2.16-3.33-3.46l1.7-2.19-3.69-4.37Z" style="fill:#F49200"></path><path d="M600,214.81a12.91,12.91,0,0,1-1.7-1.9l-1.74-2.15a7,7,0,0,0-1-1.18,2.47,2.47,0,0,0-1.46-.52,1.9,1.9,0,0,0-1.39.6c-.4.37-.76.78-1.11,1.16l-1.79,2.09a14.86,14.86,0,0,1-1.71,1.9,10.55,10.55,0,0,1,1.42-2.13c.47-.63,1-1.37,1.72-2.17a15.52,15.52,0,0,1,1.12-1.22,2.38,2.38,0,0,1,1.74-.75,2.88,2.88,0,0,1,1.77.64,7.31,7.31,0,0,1,1.1,1.28l1.65,2.22A12.92,12.92,0,0,1,600,214.81Z" style="fill:#263238"></path><path d="M569.37,256.37l8.25-2.71s8.45-5.61,9.55-5.82,10.73,2.39,12.12,4.26,5.47,7.49,5.47,7.49.3,2.19-1.69,1.46c0,0-.5,2.18-2.48,2.18a5,5,0,0,1-3-.8s.3,1.84-1.29,1.95-9.23-2.53-9.23-2.53l-2.79,0s-6.86,5.28-8.16,5.39-11.13,0-11.13,0-2-.68-.4-4.86A12.57,12.57,0,0,1,569.37,256.37Z" style="fill:#ffbf9d"></path><path d="M599.29,252.1a2.84,2.84,0,0,1,.44.48l1.13,1.42,4,5.21,0,0v.06a1.66,1.66,0,0,1-1.9,1.84l.28-.27a1.78,1.78,0,0,1-.58,1.61,2.39,2.39,0,0,1-1.65.6c-1.2,0-2.28-.58-3.37-.54l.14-.46a1.4,1.4,0,0,1,0,2.08,2.31,2.31,0,0,1-2.07.46c-3-.81-5.75-1.68-8.3-2.43a7.12,7.12,0,0,0-1.83-.38,3.07,3.07,0,0,0-1.63.44,24.75,24.75,0,0,0-2.57,2,20.8,20.8,0,0,1-4.08,2.49c-.51.23-.92.39-1.19.49s-.43.14-.44.12.56-.28,1.54-.8a23.45,23.45,0,0,0,3.94-2.59,24,24,0,0,1,2.58-2.06,3.62,3.62,0,0,1,1.85-.52,7.56,7.56,0,0,1,2,.38c2.54.72,5.36,1.59,8.26,2.38a1.78,1.78,0,0,0,1.62-.33.9.9,0,0,0,0-1.3l-.6-.45h.75c1.29,0,2.35.58,3.38.56a1.87,1.87,0,0,0,1.34-.45,1.31,1.31,0,0,0,.45-1.17l-.07-.36.35.09a1.23,1.23,0,0,0,1.38-1.33l0,.09-3.89-5.32c-.42-.59-.76-1.09-1-1.49A2.06,2.06,0,0,1,599.29,252.1Z" style="fill:#ff9a6c"></path><path d="M592.29,252.55a5.29,5.29,0,0,1,2,.37,13.76,13.76,0,0,1,4.3,2.29,14.61,14.61,0,0,1,3.28,3.62,5.1,5.1,0,0,1,.86,1.82,23.73,23.73,0,0,0-4.46-5A22.06,22.06,0,0,0,592.29,252.55Z" style="fill:#ff9a6c"></path><path d="M587.6,256.15a3.37,3.37,0,0,1,1.76,0,10.08,10.08,0,0,1,3.87,1.76,18.63,18.63,0,0,1,3.1,2.89,5.16,5.16,0,0,1,1,1.4,6.78,6.78,0,0,1-1.31-1.15,28,28,0,0,0-3.13-2.72,11.91,11.91,0,0,0-3.66-1.82C588.26,256.26,587.6,256.23,587.6,256.15Z" style="fill:#ff9a6c"></path><path d="M552.67,250.28a2.46,2.46,0,0,1,.15-.83c.13-.52.36-1.27.69-2.18.64-1.83,1.71-4.27,3-6.94s2.36-5.07,3.09-6.85,1.1-2.9,1.18-2.88a2.43,2.43,0,0,1-.15.83,22.5,22.5,0,0,1-.69,2.18c-.64,1.83-1.71,4.28-2.95,6.94s-2.36,5.07-3.09,6.85S552.75,250.3,552.67,250.28Z" style="fill:#455a64"></path><path d="M632.14,248.92a3.12,3.12,0,0,1-.8.63,11.81,11.81,0,0,1-2.55,1.16,18.47,18.47,0,0,1-4.07.79c-1.55.15-3.25.17-5,.22a31.07,31.07,0,0,0-5,.47,14.69,14.69,0,0,0-3.82,1.31,13.81,13.81,0,0,0-3,2.23,2.79,2.79,0,0,1,.61-.82,9,9,0,0,1,2.2-1.74,13.75,13.75,0,0,1,3.89-1.45,28.06,28.06,0,0,1,5-.52c1.79,0,3.48,0,5-.18a20.81,20.81,0,0,0,4-.66A20,20,0,0,0,632.14,248.92Z" style="fill:#455a64"></path><path d="M625.84,227c-.13,0,1.5-4.92,3.65-10.88s4-10.75,4.13-10.7-1.49,4.92-3.64,10.88S626,227,625.84,227Z" style="fill:#455a64"></path><path d="M613.7,148a27.57,27.57,0,0,0-20.85-11.57c-4.84-.29-6.88.63-10.41,1.41a15.37,15.37,0,0,0-9,5.38c-2.62,3.39-4.88,7.23-5.53,11.47a36.6,36.6,0,0,0,.14,12.23A48.45,48.45,0,0,0,574,181.6l7.39,1.23c6.17.49,12.42,1,18.5-.17s12.07-4.11,15.53-9.24C620.19,166.29,618.84,154.86,613.7,148Z" style="fill:#263238"></path><path d="M603.75,147.45l-14.64-6.59-3.91.28c-8.77-.36-15.24,9-15.62,16.13-.41,7.88-.61,17.52.38,23.39,2,11.79,11.93,13.21,11.93,13.21l-.32,3.5,12.73,10.86L605,195.89l2.52-44.26A4.15,4.15,0,0,0,603.75,147.45Z" style="fill:#ffbf9d"></path><path d="M587.61,178.7a2.45,2.45,0,0,0-.79-1.57,2.52,2.52,0,0,0-3.07-.31,3.4,3.4,0,0,0-1.44,3.14h0a3.11,3.11,0,0,0,2.16,1.38,2.73,2.73,0,0,0,.41,0,2.77,2.77,0,0,0,1.91-.66A2.44,2.44,0,0,0,587.61,178.7Z" style="fill:#ff9a6c"></path><path d="M574.85,166.92a1.51,1.51,0,0,0,1.47,1.52,1.44,1.44,0,0,0,1.55-1.38,1.52,1.52,0,0,0-1.47-1.52A1.44,1.44,0,0,0,574.85,166.92Z" style="fill:#263238"></path><path d="M572.08,161.33c.19.19,1.33-.67,3-.68s2.83.79,3,.59-.11-.45-.64-.82a4.18,4.18,0,0,0-2.41-.72,4,4,0,0,0-2.35.79C572.15,160.88,572,161.24,572.08,161.33Z" style="fill:#263238"></path><path d="M582,174.55a11.38,11.38,0,0,0-2.65-.45c-.42,0-.81-.11-.89-.4a2.08,2.08,0,0,1,.27-1.23l1.2-3.19c1.66-4.53,2.86-8.26,2.68-8.32s-1.68,3.55-3.35,8.09c-.4,1.11-.78,2.18-1.14,3.2a2.34,2.34,0,0,0-.2,1.63,1,1,0,0,0,.69.61,2.76,2.76,0,0,0,.71.09A10.06,10.06,0,0,0,582,174.55Z" style="fill:#263238"></path><path d="M581.87,193.86a30.12,30.12,0,0,0,15.79-4.38s-4.19,8.2-16,7.22Z" style="fill:#ff9a6c"></path><path d="M571.85,156.34c.28.4,1.52.12,3,.22s2.68.48,3,.12c.15-.18,0-.56-.53-1a4.42,4.42,0,0,0-2.37-.81,4.29,4.29,0,0,0-2.44.54C571.93,155.78,571.73,156.15,571.85,156.34Z" style="fill:#263238"></path><path d="M592.2,167a1.51,1.51,0,0,1-1.5,1.49,1.45,1.45,0,0,1-1.52-1.41,1.51,1.51,0,0,1,1.5-1.49A1.45,1.45,0,0,1,592.2,167Z" style="fill:#263238"></path><path d="M594.12,161.68c-.19.19-1.32-.69-3-.73s-2.84.75-3,.54.11-.44.64-.81a4.23,4.23,0,0,1,2.43-.67,4,4,0,0,1,2.34.82C594.06,161.23,594.22,161.6,594.12,161.68Z" style="fill:#263238"></path><path d="M591.72,156c-.32.37-1.58,0-3.09-.06s-2.79.22-3.09-.17c-.12-.19.08-.56.65-.9a4.67,4.67,0,0,1,2.52-.59,4.77,4.77,0,0,1,2.46.77C591.7,155.47,591.87,155.85,591.72,156Z" style="fill:#263238"></path><path d="M604.6,171.35c0-.88,1-3,1.86-3.11,2.32-.39,6.5-.24,6.6,5.65.14,8.06-8,6.53-8,6.3S604.63,174.39,604.6,171.35Z" style="fill:#ffbf9d"></path><path d="M607.24,177.21s.14.1.38.2a1.43,1.43,0,0,0,1,0c.84-.33,1.54-1.69,1.55-3.15a4.59,4.59,0,0,0-.42-2,1.63,1.63,0,0,0-1.08-1.06.71.71,0,0,0-.82.4c-.1.23,0,.39-.09.4s-.18-.13-.12-.47A.89.89,0,0,1,608,171a1,1,0,0,1,.77-.21,2,2,0,0,1,1.49,1.22,4.75,4.75,0,0,1,.52,2.24c0,1.62-.83,3.16-2,3.51a1.46,1.46,0,0,1-1.28-.19C607.25,177.41,607.21,177.23,607.24,177.21Z" style="fill:#ff9a6c"></path><path d="M606.79,168.28l-2.14,2c-13.18-7.86-27.22-30.21-23.82-29.42a25.66,25.66,0,0,1,12.66-.81c6.5,1.41,18.79,5.25,18.26,13S606.79,168.28,606.79,168.28Z" style="fill:#263238"></path><path d="M609.13,135.94c-3,2-5.58,7.4-4.16,10.72A10.6,10.6,0,0,0,619,157.9a10.18,10.18,0,0,0,5.54-4.68,12.24,12.24,0,0,0,.88-8.57,13.61,13.61,0,0,0-6-8.66A10,10,0,0,0,609.13,135.94Z" style="fill:#263238"></path><path d="M611.26,168.1a7.16,7.16,0,0,1-1.49-.57c-.95-.41-2.3-1-3.94-1.88a57.82,57.82,0,0,1-11.91-8,38.57,38.57,0,0,1-8.87-11.29,26.71,26.71,0,0,1-1.67-4,7.6,7.6,0,0,1-.4-1.55c.12,0,.72,2.17,2.45,5.38a41.35,41.35,0,0,0,8.89,11A64.72,64.72,0,0,0,606,165.27c1.6.89,2.92,1.57,3.83,2A8.15,8.15,0,0,1,611.26,168.1Z" style="fill:#455a64"></path><path d="M618,161.75c-.11,0-.22-1.5-.77-3.84a30.46,30.46,0,0,0-9.52-15.84c-1.8-1.59-3.08-2.4-3-2.49s.36.14.95.49a19.15,19.15,0,0,1,2.35,1.67,27.76,27.76,0,0,1,9.66,16.08,20.3,20.3,0,0,1,.36,2.87A3,3,0,0,1,618,161.75Z" style="fill:#455a64"></path><path d="M610.29,180.79a3,3,0,1,1-3.15-2.88A3,3,0,0,1,610.29,180.79Z" style="fill:#263238"></path><path d="M581.83,180.24c0-.29,1.92,0,3.48-1.49s1.61-3.49,1.88-3.47c.12,0,.31.5.22,1.35a4.75,4.75,0,0,1-1.46,2.91,4.11,4.11,0,0,1-2.9,1.13C582.25,180.64,581.81,180.37,581.83,180.24Z" style="fill:#263238"></path><rect x="481.62" y="267.1" width="208.75" height="12.93" rx="5.58" transform="translate(1171.99 547.13) rotate(180)" style="fill:#F49200"></rect><rect x="487.29" y="280.03" width="190.59" height="180.28" transform="translate(1165.16 740.34) rotate(180)" style="fill:#F49200"></rect><path d="M515.89,407.65s0-.61,0-1.81,0-3-.07-5.34c-.07-4.71-.15-11.6-.27-20.38-.2-17.62-.49-42.83-.85-73.22v-.22h.22l121.91,0h1.07v.26c0,36.27,0,70.48,0,100.19v.23h-.23l-88.1.29-24.83.06h-8.19l1.7,0,6.59-.06,24.87-.18,88-.52-.23.23c0-29.71,0-63.92,0-100.19l.26.26h-.81l-121.91,0,.22-.22c.26,30.33.47,55.49.62,73.08.07,8.81.12,15.71.15,20.43,0,2.35,0,4.15,0,5.38S515.89,407.65,515.89,407.65Z" style="fill:#263238"></path><path d="M520,402.57s0-.54,0-1.62,0-2.71,0-4.8c0-4.23,0-10.42,0-18.31,0-15.85-.07-38.52-.12-65.86v-.22H520l113.23,0h.27V312c0,32.72,0,63.63,0,90.59v.24h-.23l-81.94-.12-23.12-.06-6.1,0h-1.56l-.52,0h2.13l6.15,0,23.17-.06,81.79-.12-.23.23c0-27,0-57.87,0-90.59l.26.26h0L520,312.2l.22-.22c0,27.29-.09,49.91-.12,65.72,0,7.91,0,14.12,0,18.36,0,2.11,0,3.73,0,4.84S520,402.57,520,402.57Z" style="fill:#263238"></path><path d="M514.87,307.92a10,10,0,0,1,2.7,1.82A10.45,10.45,0,0,1,520,312a20.77,20.77,0,0,1-5.08-4.06Z" style="fill:#263238"></path><path d="M637.59,306.9a10.51,10.51,0,0,1-1.83,2.7,10,10,0,0,1-2.24,2.38,10.51,10.51,0,0,1,1.83-2.7A10.21,10.21,0,0,1,637.59,306.9Z" style="fill:#263238"></path><path d="M637.59,407.09a19.14,19.14,0,0,1-4.4-4.52,9.77,9.77,0,0,1,2.38,2.08A9.9,9.9,0,0,1,637.59,407.09Z" style="fill:#263238"></path><path d="M515.89,407.65a10,10,0,0,1,1.82-2.7,10.72,10.72,0,0,1,2.24-2.38,10.65,10.65,0,0,1-1.83,2.71A10.37,10.37,0,0,1,515.89,407.65Z" style="fill:#263238"></path><path d="M488.09,280c0-.14,43-.26,96-.26s96,.12,96,.26-43,.26-96,.26S488.09,280.18,488.09,280Z" style="fill:#263238"></path><path d="M487.21,267.1a5.58,5.58,0,0,0-5.59,5.58v1.77a5.58,5.58,0,0,0,5.59,5.58h0l.08,180.27h15.09l.07-193.23Z" style="opacity:0.3"></path></g><g id="freepik--character-1--inject-179"><path d="M223.31,267.72c.5-1.54,16.08-105.28,10.71-112.77-11.66-16.27-110.18-13.16-120.07-1.3s10.16,114.07,10.16,114.07Z" style="fill:#F49200"></path><g style="opacity:0.30000000000000004"><path d="M176.16,198.44q-5.67-23-11.36-46l-12.7-.71c-2.32,10.36,5.05,21.48,1.45,31.47-2.12,5.89-7.54,9.83-12.54,13.6s-10.18,8.22-11.4,14.36c13.29-.47,26.64-.94,39.72-3.3,2.76-.5,5.92-1.4,7-4C177,202.18,176.61,200.24,176.16,198.44Z"></path></g><path d="M208.92,251.36s-5.52-22.28-6.18-22.5S213,207,216.63,208.13c4.87,1.5,20.89,34.45,22.85,37.91,8.07,14.3,3.88,21.08,3.88,21.08l-42,1.89c-2-.44-9.26-15.89-9.26-15.89Z" style="fill:#263238"></path><path d="M184.55,195.56c.65.24,32.08,12.45,32.08,12.45s-4.25,39.18-4.25,39.82-1.94,13.79-1.94,13.79l-79-1.44,4.32-40.12-6.08-15.19,29.41-10.38Z" style="fill:#263238"></path><path d="M193.61,269.78s-8.64-6.68-12.38-7.94-11.95-3.33-14.45-3.75-13.73-1.77-13.73-1.77-5.82.32-5.72,5.62,5.52,6.24,5.52,6.24,5.82.1,6.13.21,2.6,2.39,5.41,2.08a36,36,0,0,0,7.07-2,80.22,80.22,0,0,0,7.59,2.91c1.56.32,4.79-.83,4.79-.83a5.58,5.58,0,0,0,3.61,1.41,2.49,2.49,0,0,0,2.11-1S192.5,271,193.61,269.78Z" style="fill:#ae7461"></path><path d="M157.26,256.11s-3.49-2.83-5.32-3.29-15.83-1.06-15.83-1.06l-4.88-2.89,2.62-7.36,3.05-19.32-7.18-17.32s-5.83,2.77-8.26,6.42-18.85,36.36-19,41.23,4.72,14,4.72,14,49.18,3.14,49.18,2.49S157.26,256.11,157.26,256.11Z" style="fill:#263238"></path><path d="M130.41,247.19a26.61,26.61,0,0,1-1.7-2.36,36.86,36.86,0,0,0-10.05-9.55,26.12,26.12,0,0,1-2.44-1.57,11.93,11.93,0,0,1,2.63,1.26,30.27,30.27,0,0,1,5.65,4.23,30.9,30.9,0,0,1,4.52,5.42A11.41,11.41,0,0,1,130.41,247.19Z" style="fill:#455a64"></path><path d="M136.27,229.21a8.3,8.3,0,0,1-.27,1.56c-.24,1.09-.55,2.51-.93,4.22-.8,3.56-1.95,8.47-3.25,13.88l0,.15-.06.25-.25-.05a15.93,15.93,0,0,0-7.6.11,15.42,15.42,0,0,0-5.58,2.76,20.85,20.85,0,0,0-3.94,4.23,1.52,1.52,0,0,1,.17-.37,7.94,7.94,0,0,1,.61-1,15.31,15.31,0,0,1,2.93-3.16,15.47,15.47,0,0,1,5.69-2.93,16,16,0,0,1,7.83-.16l-.31.19,0-.15c1.3-5.41,2.5-10.31,3.4-13.84.44-1.7.8-3.11,1.08-4.18A9.79,9.79,0,0,1,136.27,229.21Z" style="fill:#455a64"></path><path d="M216.46,208.56a1.62,1.62,0,0,1-.21.36l-.68,1c-.64.92-1.53,2.21-2.64,3.84l-9.52,13.6-.07.1h-.11l-22.26,0L149,227.45l-9.68-.09-2.63-.05-.68,0a.75.75,0,0,1-.24,0l.24,0,.68,0,2.63-.05,9.68-.08L181,227l22.26,0-.19.1,9.67-13.5,2.74-3.76.74-1A1.69,1.69,0,0,1,216.46,208.56Z" style="fill:#455a64"></path><path d="M214.84,220.84a15,15,0,0,1-1.9-2.27,16.56,16.56,0,0,1-1.88-2.29,8.94,8.94,0,0,1,3.78,4.56Z" style="fill:#455a64"></path><path d="M217,218.11a24.87,24.87,0,0,0-1.82-2.48,24.36,24.36,0,0,0-2.43-1.89,4.32,4.32,0,0,1,2.81,1.52A4.26,4.26,0,0,1,217,218.11Z" style="fill:#455a64"></path><path d="M229.84,245.35a19.47,19.47,0,0,0-4.81-.28,14.88,14.88,0,0,0-5.07,1.38,14.44,14.44,0,0,0-5.11,4l-.06.08-.1,0c-.72.13-1.49.3-2.26.47l-13.28,2.9c-1.7.36-3.08.63-4,.81a8,8,0,0,1-1.5.2,9.11,9.11,0,0,1,1.46-.4l4-1c3.39-.8,8.06-1.91,13.25-3.05.78-.17,1.54-.34,2.29-.47l-.16.09a14.45,14.45,0,0,1,5.32-4.09,14.7,14.7,0,0,1,5.24-1.3,13.32,13.32,0,0,1,3.58.24c.42.08.73.2.94.25S229.85,245.33,229.84,245.35Z" style="fill:#455a64"></path><path d="M197,252.9c-.15,0-.26-5.6-.26-12.51s.11-12.5.26-12.5.26,5.6.26,12.5S197.18,252.9,197,252.9Z" style="fill:#455a64"></path><path d="M169.64,251.88c-.15,0-.26-5.45-.26-12.18s.11-12.19.26-12.19.26,5.46.26,12.19S169.78,251.88,169.64,251.88Z" style="fill:#455a64"></path><path d="M152,252.26c-.15,0-.26-5.31-.26-11.87s.11-11.87.26-11.87.26,5.32.26,11.87S152.1,252.26,152,252.26Z" style="fill:#455a64"></path><path d="M127.53,218.63a6.23,6.23,0,0,1,4.38-3.27,25.5,25.5,0,0,1-2.26,1.55C128.46,217.79,127.66,218.73,127.53,218.63Z" style="fill:#455a64"></path><path d="M124.71,215.42a7.47,7.47,0,0,1,5.7-3.39c0,.15-1.42.54-3,1.48S124.82,215.53,124.71,215.42Z" style="fill:#455a64"></path><path d="M184.55,195.56c.45.17,1.16,3.84.75,7.54-.66,5.82-15.14,19.53-15.14,19.53s-10-15-11.12-19,.09-9.1.09-9.1Z" style="fill:#fff"></path><path d="M173.54,210.05l-4.48-.12-2.15,2.74,2.72,4.18L167.75,219l2.41,3.67c1.07-1,2.25-2.16,3.49-3.46L171.88,217l3.86-4.37Z" style="fill:#F49200"></path><path d="M165.11,214.81a13.12,13.12,0,0,1,1.5-2.14l1.73-2.23.51-.64a3.29,3.29,0,0,1,.65-.64,3,3,0,0,1,1.82-.62,2.58,2.58,0,0,1,1.79.72,16.47,16.47,0,0,1,1.17,1.23c.71.8,1.32,1.55,1.82,2.18a10.9,10.9,0,0,1,1.49,2.14,16.88,16.88,0,0,1-1.78-1.91l-1.88-2.09c-.36-.38-.74-.79-1.16-1.17a2.06,2.06,0,0,0-1.45-.58,2.64,2.64,0,0,0-1.52.51,6.38,6.38,0,0,0-1.08,1.17l-1.83,2.16A12.09,12.09,0,0,1,165.11,214.81Z" style="fill:#263238"></path><path d="M197.17,256.37l-8.63-2.71s-8.84-5.61-10-5.82-11.22,2.39-12.68,4.26-5.72,7.49-5.72,7.49-.32,2.19,1.76,1.46a2.83,2.83,0,0,0,2.6,2.18,5.37,5.37,0,0,0,3.12-.8s-.31,1.84,1.35,1.95,9.67-2.53,9.67-2.53l2.91,0s7.18,5.28,8.54,5.39,11.64,0,11.64,0,2.08-.68.42-4.86A12.73,12.73,0,0,0,197.17,256.37Z" style="fill:#ae7461"></path><path d="M165.87,252.1a2.67,2.67,0,0,1-.36.55l-1.1,1.49c-1,1.34-2.4,3.15-4.07,5.32l0-.09a1.26,1.26,0,0,0,1.45,1.33l.35-.08-.07.35a1.28,1.28,0,0,0,.5,1.19,2.07,2.07,0,0,0,1.41.43c1.08,0,2.18-.57,3.51-.56h.78l-.64.46a.89.89,0,0,0,.12,1.35,2.15,2.15,0,0,0,1.79.24l8.56-2.37a7.72,7.72,0,0,1,2-.36,3.91,3.91,0,0,1,1.9.52,25.31,25.31,0,0,1,2.72,2.07,24.83,24.83,0,0,0,4.11,2.59c1,.52,1.62.76,1.61.79s-.16,0-.45-.12-.71-.25-1.25-.49a21.82,21.82,0,0,1-4.25-2.47,26.82,26.82,0,0,0-2.69-2,3.56,3.56,0,0,0-1.7-.44,6.94,6.94,0,0,0-1.89.37c-2.64.74-5.5,1.58-8.58,2.41a2.63,2.63,0,0,1-2.22-.35,1.38,1.38,0,0,1-.1-2.17l.14.47c-1.14,0-2.26.53-3.49.53a2.51,2.51,0,0,1-1.72-.56,1.75,1.75,0,0,1-.64-1.64l.28.27a1.7,1.7,0,0,1-2-1.85v-.05l0,0,4.21-5.21,1.19-1.42A2.59,2.59,0,0,1,165.87,252.1Z" style="fill:#6f4439"></path><path d="M173.19,252.55a24,24,0,0,0-6.21,3,23.68,23.68,0,0,0-4.7,5.06,5.38,5.38,0,0,1,.93-1.85,14.71,14.71,0,0,1,3.46-3.63,14.57,14.57,0,0,1,4.48-2.26A5.38,5.38,0,0,1,173.19,252.55Z" style="fill:#6f4439"></path><path d="M178.1,256.15c0,.08-.68.11-1.73.4a12.51,12.51,0,0,0-3.82,1.8,28,28,0,0,0-3.3,2.73,6.67,6.67,0,0,1-1.38,1.16,5.75,5.75,0,0,1,1.12-1.42,18.9,18.9,0,0,1,3.26-2.9,10.86,10.86,0,0,1,4-1.73A3.59,3.59,0,0,1,178.1,256.15Z" style="fill:#6f4439"></path><path d="M214.65,250.28c-.08,0-.47-1.11-1.24-2.88s-1.92-4.18-3.21-6.84-2.42-5.11-3.1-6.94c-.34-.91-.58-1.66-.72-2.19a2.91,2.91,0,0,1-.17-.83c.08,0,.47,1.11,1.24,2.88s1.92,4.19,3.21,6.85,2.42,5.1,3.1,6.93c.34.91.58,1.66.72,2.19A3,3,0,0,1,214.65,250.28Z" style="fill:#455a64"></path><path d="M131.49,248.92a21.81,21.81,0,0,0,3.63,1.44,22.38,22.38,0,0,0,4.17.66c1.6.12,3.36.13,5.22.18a30.45,30.45,0,0,1,5.25.51,15,15,0,0,1,4.08,1.44,9.49,9.49,0,0,1,2.33,1.74,3.05,3.05,0,0,1,.66.84,14.47,14.47,0,0,0-3.16-2.25,15.66,15.66,0,0,0-4-1.3,32.69,32.69,0,0,0-5.17-.46c-1.85-.05-3.63-.07-5.25-.22a20.78,20.78,0,0,1-4.23-.78,12.24,12.24,0,0,1-2.67-1.17A3.34,3.34,0,0,1,131.49,248.92Z" style="fill:#455a64"></path><path d="M138.08,227c-.13.05-2.06-4.74-4.31-10.7s-4-10.83-3.82-10.88,2.06,4.74,4.31,10.69S138.22,226.92,138.08,227Z" style="fill:#455a64"></path><path d="M157.72,173.38a84.36,84.36,0,0,1-4-13.9,29.33,29.33,0,0,1,.81-14.3c.24-.69,2.31-5.34,3-5.28.52,0-.72,4.36-.45,4.8,2.61,4.25,3.41,9.42,3.13,14.4a65.47,65.47,0,0,1-2.57,14.28" style="fill:#263238"></path><path d="M159.13,194.49l-1.38-39.2c-.68-12.08,4.87-22.84,17-23.18l1.32,0a21.43,21.43,0,0,1,20.74,20.34c.53,10.52,1,22.21.74,27.85-.5,11.59-12.16,13-12.16,13s.06,2.93.06,2.93-12.74,11.24-13.85,11.29S159.13,194.49,159.13,194.49Z" style="fill:#ae7461"></path><path d="M185.35,193.39a28.08,28.08,0,0,1-15-4.93s3.42,8.55,15,7.86Z" style="fill:#6f4439"></path><path d="M191.57,162.77a1.66,1.66,0,0,1-1.65,1.62,1.58,1.58,0,0,1-1.66-1.55,1.65,1.65,0,0,1,1.64-1.62A1.59,1.59,0,0,1,191.57,162.77Z" style="fill:#263238"></path><path d="M193.76,158.85c-.21.21-1.44-.76-3.23-.81s-3.11.81-3.3.58.13-.48.71-.88a4.53,4.53,0,0,1,2.66-.73,4.37,4.37,0,0,1,2.55.91C193.69,158.36,193.86,158.76,193.76,158.85Z" style="fill:#263238"></path><path d="M176,162.77a1.65,1.65,0,0,1-1.65,1.62,1.59,1.59,0,0,1-1.66-1.55,1.67,1.67,0,0,1,1.65-1.62A1.58,1.58,0,0,1,176,162.77Z" style="fill:#263238"></path><path d="M177.45,158.9c-.21.21-1.44-.75-3.22-.8s-3.12.8-3.3.57.12-.48.71-.88a4.57,4.57,0,0,1,2.65-.73,4.36,4.36,0,0,1,2.56.92C177.38,158.41,177.56,158.81,177.45,158.9Z" style="fill:#263238"></path><path d="M182.7,172.76a11.83,11.83,0,0,1,2.91-.43c.46,0,.9-.11,1-.42a2.33,2.33,0,0,0-.26-1.36c-.4-1.12-.81-2.28-1.24-3.51-1.72-5-3-9.09-2.75-9.16s1.76,3.92,3.48,8.92c.41,1.23.81,2.4,1.18,3.53a2.56,2.56,0,0,1,.18,1.79,1.12,1.12,0,0,1-.76.64,3.39,3.39,0,0,1-.78.09A11.75,11.75,0,0,1,182.7,172.76Z" style="fill:#263238"></path><path d="M177.32,153.28c-.19.48-2,.21-4.06.4s-3.81.73-4.08.28c-.11-.21.19-.66.89-1.11a6.81,6.81,0,0,1,3-1,6.69,6.69,0,0,1,3.15.45C177,152.66,177.4,153.06,177.32,153.28Z" style="fill:#263238"></path><path d="M194.48,152.74c-.34.42-1.79.07-3.51.13s-3.15.41-3.51,0c-.15-.2.06-.61.67-1a5.57,5.57,0,0,1,2.83-.8,5.33,5.33,0,0,1,2.83.69C194.42,152.13,194.63,152.54,194.48,152.74Z" style="fill:#263238"></path><path d="M158.43,163.83c-.2-.1-7.9-2.61-7.89,5.33s8,6.3,8,6.07S158.43,163.83,158.43,163.83Z" style="fill:#ae7461"></path><path d="M156,172.25s-.14.1-.37.21a1.42,1.42,0,0,1-1,0c-.84-.31-1.55-1.64-1.59-3.07a4.67,4.67,0,0,1,.38-2,1.59,1.59,0,0,1,1-1.06.7.7,0,0,1,.82.38c.1.22.05.38.1.39s.17-.13.1-.46a.84.84,0,0,0-.31-.5,1.08,1.08,0,0,0-.77-.2,1.94,1.94,0,0,0-1.44,1.23,4.83,4.83,0,0,0-.48,2.22c.06,1.6.88,3.09,2,3.42a1.45,1.45,0,0,0,1.26-.21C156,172.45,156,172.27,156,172.25Z" style="fill:#6f4439"></path><path d="M191.51,139.58c1.27-.72-2.63-4.84-5.8-6.24-4.79-2.12-12.09-3.38-16.48-2.09-5.29,1.56-9.66,4.24-12.27,9.09a31.25,31.25,0,0,0-3.34,16,9.46,9.46,0,0,0,1.17,4.84c1.12,1.75,3.26,2.83,3.2,5.25a3.31,3.31,0,0,0,.84,2.42c1.47,1.53,3.24.06,4-1.4,1.71-3.13,1.87-6.85,2-10.41a23,23,0,0,0-.58-7.55c-.4-1.32-1-2.56-1.36-3.9a4,4,0,0,1,1.16-4.63,8.28,8.28,0,0,1,8.2-1.65c4.48,1.54,12.14,3.82,14.12,2.28,2.85-2.21,3.52-3.64,3.52-3.64Z" style="fill:#263238"></path><path d="M181.29,178.12c0,.14-.49.28-1.29.17a5.58,5.58,0,0,1-2.81-1.28,5.77,5.77,0,0,1-1.77-2.55c-.24-.76-.19-1.26-.06-1.29.29-.07.83,1.69,2.5,3S181.3,177.82,181.29,178.12Z" style="fill:#263238"></path><path d="M153.35,156.2l11.43,3.48.12-5.55-11.4-4.41S152.94,154.34,153.35,156.2Z" style="fill:#e0e0e0"></path><path d="M175.44,168.55c0-.05.43-.05,1.16-.23a5.64,5.64,0,0,0,3.89-3.33c.07-.18.13-.37.19-.56a3.13,3.13,0,0,0,.11-.53.31.31,0,0,0-.23-.26c-.1,0-.41,0-.61,0l-5.89,0h-5.13a.3.3,0,0,0-.21.28,5.58,5.58,0,0,0,1,2.2,5.52,5.52,0,0,0,1.57,1.46,5.84,5.84,0,0,0,3,.86,4.93,4.93,0,0,1,1.19.1,4.93,4.93,0,0,1-1.19.1,5.68,5.68,0,0,1-3.19-.75,5.79,5.79,0,0,1-2.82-4,.77.77,0,0,1,.56-.75,1.6,1.6,0,0,1,.41,0h4.85l5.89,0a4.87,4.87,0,0,1,.73,0,.77.77,0,0,1,.57.66,4.08,4.08,0,0,1-.37,1.3,5.73,5.73,0,0,1-4.24,3.37,4,4,0,0,1-.89.07C175.55,168.58,175.44,168.57,175.44,168.55Z" style="fill:#263238"></path><path d="M192.26,168.55c0-.05.43-.05,1.16-.23a5.71,5.71,0,0,0,2.7-1.54A5.47,5.47,0,0,0,197.3,165a5.31,5.31,0,0,0,.2-.56,3.13,3.13,0,0,0,.11-.53.31.31,0,0,0-.23-.26c-.1,0-.41,0-.61,0l-5.89,0h-5.13a.29.29,0,0,0-.21.28,5.44,5.44,0,0,0,1,2.2,5.52,5.52,0,0,0,1.57,1.46,5.84,5.84,0,0,0,3,.86,4.93,4.93,0,0,1,1.19.1,4.93,4.93,0,0,1-1.19.1,5.68,5.68,0,0,1-3.19-.75,5.79,5.79,0,0,1-2.82-4,.77.77,0,0,1,.56-.75,1.6,1.6,0,0,1,.41,0h4.85l5.89,0a4.7,4.7,0,0,1,.72,0,.77.77,0,0,1,.58.66,4.08,4.08,0,0,1-.37,1.3,6,6,0,0,1-1.32,1.89,5.62,5.62,0,0,1-2.92,1.48,4,4,0,0,1-.89.07C192.36,168.58,192.26,168.57,192.26,168.55Z" style="fill:#263238"></path><path d="M185.65,163.76a4.41,4.41,0,0,0-4.72,0c-.05,0,.11-.32.52-.61a3.17,3.17,0,0,1,1.85-.58,3.26,3.26,0,0,1,1.84.6C185.55,163.44,185.7,163.72,185.65,163.76Z" style="fill:#263238"></path><path d="M174.88,167.3c-.09-.12.61-.84,1.57-1.62s1.81-1.33,1.9-1.22-.61.84-1.57,1.62S175,167.41,174.88,167.3Z" style="fill:#fff"></path><path d="M174.31,166.38c-.1-.1.07-.44.38-.75s.65-.48.75-.38-.07.44-.38.75S174.41,166.48,174.31,166.38Z" style="fill:#fff"></path><path d="M155.88,163.29a39.31,39.31,0,0,1,6.31-.11,37.42,37.42,0,0,1,6.31.41,39.4,39.4,0,0,1-6.32.11A37.24,37.24,0,0,1,155.88,163.29Z" style="fill:#263238"></path><rect x="58.87" y="267.1" width="208.75" height="12.93" rx="5.58" style="fill:#F49200"></rect><rect x="71.37" y="280.03" width="190.59" height="180.28" style="fill:#F49200"></rect><path d="M262,267.1h-13V460.3H262V280H262a5.58,5.58,0,0,0,5.58-5.58v-1.77A5.58,5.58,0,0,0,262,267.1Z" style="opacity:0.3"></path><path d="M233.36,407.65s0-.64,0-1.86,0-3,0-5.38c0-4.72.09-11.62.15-20.43.15-17.59.37-42.75.62-73.08l.22.22-121.91,0h-.8l.26-.26c0,36.27,0,70.48,0,100.19l-.23-.23,88,.52,24.87.18,6.59.06,1.7,0h-8.19l-24.82-.06-88.11-.29h-.23v-.23c0-29.71,0-63.92,0-100.19v-.26h1.06l121.91,0h.22v.22c-.35,30.39-.65,55.6-.85,73.22-.11,8.78-.2,15.67-.26,20.38,0,2.33-.06,4.12-.08,5.34S233.36,407.65,233.36,407.65Z" style="fill:#263238"></path><path d="M229.29,402.57s0-.57,0-1.67,0-2.73,0-4.84c0-4.24,0-10.45-.05-18.36,0-15.81-.07-38.43-.11-65.72l.21.22-113.23,0h0l.26-.26c0,32.72,0,63.63,0,90.59l-.24-.23,81.79.12,23.18.06,6.14,0h2.13l-.52,0h-1.56l-6.09,0-23.13.06-81.94.12h-.23v-.24c0-27,0-57.87,0-90.59v-.26h.27l113.23,0h.22V312c0,27.34-.09,50-.11,65.86,0,7.89-.05,14.08-.06,18.31,0,2.09,0,3.7,0,4.8S229.29,402.57,229.29,402.57Z" style="fill:#263238"></path><path d="M234.37,307.92a10.37,10.37,0,0,1-2.37,2.23,10.65,10.65,0,0,1-2.71,1.83,10.72,10.72,0,0,1,2.38-2.24A10,10,0,0,1,234.37,307.92Z" style="fill:#263238"></path><path d="M111.66,306.9a10.29,10.29,0,0,1,2.23,2.38,10.51,10.51,0,0,1,1.83,2.7,10.45,10.45,0,0,1-2.24-2.38A10,10,0,0,1,111.66,306.9Z" style="fill:#263238"></path><path d="M111.66,407.09a9.45,9.45,0,0,1,2-2.44,9.77,9.77,0,0,1,2.38-2.08,9.27,9.27,0,0,1-2,2.44A9.77,9.77,0,0,1,111.66,407.09Z" style="fill:#263238"></path><path d="M233.36,407.65a10,10,0,0,1-2.24-2.37,10.65,10.65,0,0,1-1.83-2.71,10.22,10.22,0,0,1,2.24,2.38A10.51,10.51,0,0,1,233.36,407.65Z" style="fill:#263238"></path><path d="M261.15,280c0,.15-43,.26-96,.26s-96-.11-96-.26,43-.26,96-.26S261.15,279.89,261.15,280Z" style="fill:#263238"></path></g><g id="freepik--character-2--inject-179"><path d="M328.86,257.2c-.55-1.67-17.34-113.5-11.55-121.58,12.57-17.53,118.78-14.18,129.44-1.4s-11,123-11,123Z" style="fill:#F49200"></path><g style="opacity:0.30000000000000004"><path d="M425.83,181c-3.55-2.51-7.81-4.38-10.08-8.09-1.83-3-2-6.68-2-10.18.14-6.76,1.11-13.56.22-20.26s-4.06-13.58-10-16.77l-22.63,70.54a112.65,112.65,0,0,1,56.83,11.58A30.06,30.06,0,0,0,425.83,181Z"></path></g><path d="M344.37,239.56s5.95-24,6.66-24.26S340,191.75,336.06,193c-5.25,1.62-22.53,37.14-24.64,40.88-8.7,15.41-4.18,22.72-4.18,22.72l45.22,2c2.14-.48,10-17.13,10-17.13Z" style="fill:#263238"></path><path d="M370.64,179.41c-.7.26-34.58,13.42-34.58,13.42s4.58,42.23,4.58,42.92,2.09,14.87,2.09,14.87l85.12-1.56-4.66-43.24,6.55-16.37L398,178.25Z" style="fill:#263238"></path><path d="M360.87,259.41s9.31-7.19,13.34-8.55a160.74,160.74,0,0,1,15.58-4c2.69-.45,14.8-1.91,14.8-1.91s6.28.34,6.17,6.06-5.95,6.72-5.95,6.72-6.27.11-6.61.23-2.8,2.57-5.83,2.24a39.37,39.37,0,0,1-7.62-2.13s-6.51,2.8-8.19,3.14-5.15-.9-5.15-.9a6.11,6.11,0,0,1-3.9,1.52,2.71,2.71,0,0,1-2.28-1.07S362.07,260.68,360.87,259.41Z" style="fill:#ffbf9d"></path><path d="M400.06,244.68s3.76-3.05,5.73-3.54S422.86,240,422.86,240l5.25-3.12-2.82-7.93L422,208.12l7.74-18.67s6.29,3,8.91,6.92,20.32,39.19,20.49,44.44-5.09,15.1-5.09,15.1-53,3.38-53,2.68S400.06,244.68,400.06,244.68Z" style="fill:#263238"></path><path d="M429,235.06a2.75,2.75,0,0,1,.34-.77c.25-.49.64-1.17,1.17-2a33.34,33.34,0,0,1,4.88-5.83,33,33,0,0,1,6.08-4.57,21.39,21.39,0,0,1,2-1.07c.49-.22.78-.33.79-.29s-1,.63-2.64,1.67a39.11,39.11,0,0,0-10.84,10.3A29.8,29.8,0,0,1,429,235.06Z" style="fill:#455a64"></path><path d="M422.68,215.68a10.37,10.37,0,0,1,.5,1.64c.3,1.15.69,2.67,1.17,4.51,1,3.81,2.25,9.08,3.65,14.92l0,.16-.31-.19a17.35,17.35,0,0,1,8.44.17,16.7,16.7,0,0,1,6.12,3.15,16.52,16.52,0,0,1,3.16,3.4c.31.45.53.82.67,1.07s.2.39.18.4-.35-.49-1-1.35a17.62,17.62,0,0,0-3.23-3.23,16.87,16.87,0,0,0-6-3,17.09,17.09,0,0,0-8.19-.12l-.25.06-.07-.25,0-.17c-1.4-5.83-2.64-11.12-3.51-15-.41-1.85-.75-3.39-1-4.55A12.55,12.55,0,0,1,422.68,215.68Z" style="fill:#455a64"></path><path d="M336.23,193.42a2.05,2.05,0,0,1,.3.35l.79,1.06,2.95,4.06c2.54,3.56,6.13,8.57,10.42,14.56l-.18-.1,24,0,34.43.08,10.44.08,2.84.05.74,0a.87.87,0,0,1,.25,0l-.25,0-.74,0-2.84.05-10.44.09-34.43.07-24,0h-.12l-.07-.1-10.27-14.66c-1.2-1.76-2.16-3.15-2.85-4.14l-.73-1.1A1.94,1.94,0,0,1,336.23,193.42Z" style="fill:#455a64"></path><path d="M338,206.66a6.65,6.65,0,0,1,1.62-2.79,6.81,6.81,0,0,1,2.44-2.12,20.06,20.06,0,0,1-2,2.45A20.24,20.24,0,0,1,338,206.66Z" style="fill:#455a64"></path><path d="M335.7,203.71a4.66,4.66,0,0,1,1.57-3.05,4.79,4.79,0,0,1,3-1.66,26.19,26.19,0,0,0-2.63,2A23.88,23.88,0,0,0,335.7,203.71Z" style="fill:#455a64"></path><path d="M321.81,233.08s.11-.06.34-.13a9.49,9.49,0,0,1,1-.27,14.42,14.42,0,0,1,3.86-.26,15.9,15.9,0,0,1,5.65,1.41,15.51,15.51,0,0,1,5.72,4.41l-.16-.1c.81.15,1.63.33,2.47.51,5.59,1.23,10.63,2.42,14.28,3.29l4.31,1a13.92,13.92,0,0,1,1.58.42,7.61,7.61,0,0,1-1.62-.22c-1-.19-2.52-.49-4.35-.87l-14.31-3.14c-.84-.18-1.67-.37-2.44-.51l-.1,0-.06-.07a15.36,15.36,0,0,0-5.52-4.31,15.93,15.93,0,0,0-5.47-1.48A20.83,20.83,0,0,0,321.81,233.08Z" style="fill:#455a64"></path><path d="M357.18,241.21c-.15,0-.27-6-.27-13.47s.12-13.48.27-13.48.26,6,.26,13.48S357.32,241.21,357.18,241.21Z" style="fill:#455a64"></path><path d="M386.71,240.13c-.14,0-.26-5.89-.26-13.14s.12-13.14.26-13.14.26,5.88.26,13.14S386.86,240.13,386.71,240.13Z" style="fill:#455a64"></path><path d="M405.77,240.53c-.14,0-.26-5.73-.26-12.79s.12-12.8.26-12.8.26,5.73.26,12.8S405.92,240.53,405.77,240.53Z" style="fill:#455a64"></path><path d="M432.1,204.28c-.12.09-1-.92-2.27-1.88s-2.5-1.5-2.45-1.65a5,5,0,0,1,2.76,1.24A4.93,4.93,0,0,1,432.1,204.28Z" style="fill:#455a64"></path><path d="M435.15,200.82c-.12.1-1.23-1.09-2.92-2.08s-3.26-1.43-3.23-1.58a8.27,8.27,0,0,1,6.15,3.66Z" style="fill:#455a64"></path><path d="M370.64,179.41c-.49.18-1.26,4.13-.81,8.13.71,6.27,16.32,21.05,16.32,21.05s10.84-16.15,12-20.53-.09-9.81-.09-9.81Z" style="fill:#fff"></path><path d="M382.5,195l4.84-.13,2.31,2.95-2.93,4.51,2,2.27-2.6,4c-1.16-1.05-2.43-2.33-3.76-3.74l1.91-2.36-4.17-4.7Z" style="fill:#F49200"></path><path d="M392.15,119.65c-.83-4.12-3.74-6.31-7.62-7.92a13.11,13.11,0,0,0-12,1.16c-2.34,1.55-4.25,3.91-7,4.65-4.46,1.23-9.36-2.36-13.67-.68a6,6,0,0,0,2.08,11.52c-2.91.86-4.06,4.86-2.56,7.5s4.85,3.82,7.86,3.46a16.7,16.7,0,0,0,8.11-3.88c2.39-1.88,4.56-4,7.08-5.72s5.54-2.88,8.55-2.52c4.08.49,7.4,3.8,9,7.59s1.74,8,1.7,12.13-.24,8.27.72,12.27c.11.47.29,1,.74,1.17.66.25,1.27-.42,1.64-1a60.51,60.51,0,0,0,8.33-21.93c.76-4.51.92-8.81-1.32-12.79s-8.37-7.21-11.62-5" style="fill:#e0e0e0"></path><path d="M398,181.13l.82-42c.55-12.12-6.05-22.54-18.18-22.75l-1.12,0a21.68,21.68,0,0,0-20.79,20.79c-.41,10.51-.74,22.13-.44,27.75.62,11.63,12.33,13,12.33,13h0c0,1.33-.05,2.74-.08,4.17l13.87,12.06Z" style="fill:#ffbf9d"></path><path d="M370.63,178a28.1,28.1,0,0,0,15-5.1s-3.29,9.17-14.94,8.6Z" style="fill:#ff9a6c"></path><path d="M363.89,148.28a1.65,1.65,0,0,0,1.67,1.61,1.6,1.6,0,0,0,1.65-1.57,1.65,1.65,0,0,0-1.67-1.61A1.59,1.59,0,0,0,363.89,148.28Z" style="fill:#263238"></path><path d="M361.47,142.87c.22.2,1.44-.78,3.23-.85s3.13.78,3.31.55-.13-.48-.72-.88a4.57,4.57,0,0,0-2.67-.7,4.37,4.37,0,0,0-2.55.94C361.54,142.37,361.37,142.77,361.47,142.87Z" style="fill:#263238"></path><path d="M380.66,148.28a1.66,1.66,0,0,0,1.67,1.61,1.59,1.59,0,0,0,1.65-1.57,1.65,1.65,0,0,0-1.67-1.61A1.6,1.6,0,0,0,380.66,148.28Z" style="fill:#263238"></path><path d="M379.06,142.48c.21.21,1.43-.77,3.22-.84s3.13.77,3.32.54-.13-.48-.73-.87a4.53,4.53,0,0,0-2.66-.71,4.38,4.38,0,0,0-2.56.94C379.12,142,379,142.39,379.06,142.48Z" style="fill:#263238"></path><path d="M373.11,156a11.61,11.61,0,0,0-2.92-.4c-.46,0-.9-.1-1-.41a2.34,2.34,0,0,1,.25-1.37c.39-1.12.79-2.3,1.21-3.53,1.67-5,2.86-9.15,2.66-9.21s-1.72,3.95-3.39,9c-.41,1.23-.79,2.42-1.15,3.54a2.63,2.63,0,0,0-.17,1.81,1.14,1.14,0,0,0,.78.63,3.27,3.27,0,0,0,.78.08A11.75,11.75,0,0,0,373.11,156Z" style="fill:#263238"></path><path d="M378.31,135.49c.19.48,2,.18,4.08.35s3.82.67,4.08.22c.12-.21-.19-.66-.9-1.1a6.67,6.67,0,0,0-3.06-.93,6.79,6.79,0,0,0-3.16.5C378.59,134.87,378.22,135.27,378.31,135.49Z" style="fill:#e0e0e0"></path><path d="M361.92,137.67c.33.39,1.54-.08,3-.16s2.75.16,3-.28c.12-.21-.1-.61-.66-1a4.41,4.41,0,0,0-4.87.35C361.93,137.05,361.77,137.47,361.92,137.67Z" style="fill:#e0e0e0"></path><path d="M398.23,147.82c.2-.09,7.9-2.69,8,5.27s-7.94,6.39-7.95,6.17S398.23,147.82,398.23,147.82Z" style="fill:#ffbf9d"></path><path d="M400.65,156.22s.14.09.38.2a1.38,1.38,0,0,0,1,0c.84-.32,1.54-1.66,1.56-3.09a4.54,4.54,0,0,0-.4-2,1.59,1.59,0,0,0-1.06-1,.7.7,0,0,0-.81.39c-.11.22-.05.38-.1.39s-.17-.13-.11-.46a1,1,0,0,1,.31-.5,1,1,0,0,1,.77-.21,2,2,0,0,1,1.46,1.22,4.81,4.81,0,0,1,.5,2.22c0,1.6-.85,3.11-2,3.45a1.47,1.47,0,0,1-1.27-.2C400.67,156.41,400.62,156.23,400.65,156.22Z" style="fill:#ff9a6c"></path><path d="M358.16,126.44a15.14,15.14,0,0,1,4.65-5.83,25.93,25.93,0,0,1,14.81-6,21.11,21.11,0,0,1,15,5,22.25,22.25,0,0,1,6.58,11,32.72,32.72,0,0,1,.61,12.89,9.83,9.83,0,0,1-1.95,5.28c-.78.89-2.17,1.51-3.14.83a3.23,3.23,0,0,1-1-1.8c-1.78-6.07-3.56-12.61-1.55-18.61a18.26,18.26,0,0,0-5.69-4.81,9.44,9.44,0,0,0-7.26-.7c-3.5,1.24-5.54,4.78-8.28,7.29a16.8,16.8,0,0,1-14.78,4Z" style="fill:#e0e0e0"></path><path d="M349.47,118.83a2.26,2.26,0,0,0-.08.53,5.44,5.44,0,0,0,.17,1.55,7.27,7.27,0,0,0,3.51,4.4,10.84,10.84,0,0,0,8.34.51c3.11-.88,6.06-2.86,9.19-4.7s6.39-3.24,9.52-3.11a12.41,12.41,0,0,1,7.53,3,16.64,16.64,0,0,1,3.64,4.23c.67,1.15.95,1.84,1,1.82a1.79,1.79,0,0,0-.17-.51,14.44,14.44,0,0,0-.65-1.4,16,16,0,0,0-3.58-4.42,12.68,12.68,0,0,0-7.76-3.2c-3.27-.15-6.66,1.3-9.79,3.15s-6.06,3.8-9.07,4.68a10.48,10.48,0,0,1-8-.37,7.23,7.23,0,0,1-3.5-4.13A8.15,8.15,0,0,1,349.47,118.83Z" style="fill:#fff"></path><path d="M404.17,135.34a5.8,5.8,0,0,0-.61-2.11,13.67,13.67,0,0,0-3-4.37,13.53,13.53,0,0,0-2.34-1.81,5.06,5.06,0,0,0-2.3-.82,2.6,2.6,0,0,0-1.6.42c-.33.23-.43.43-.41.45a3,3,0,0,1,2-.5c1.28.14,2.84,1.26,4.31,2.63a15.89,15.89,0,0,1,3.06,4.15C403.84,134.57,404.08,135.37,404.17,135.34Z" style="fill:#e0e0e0"></path><path d="M372.39,162c0,.12.36.42,1.13.61a5.83,5.83,0,0,0,5.59-1.92c.49-.62.62-1.11.51-1.18s-1.36,1.27-3.38,1.93S372.48,161.75,372.39,162Z" style="fill:#263238"></path><path d="M383.61,157.91c.22.2.46.43.39.7s-.58.49-1,.56a142.07,142.07,0,0,0-13.94,3.33,1.16,1.16,0,0,1-.55.06c-.43-.09-.51-.56-.46-.92a5.71,5.71,0,0,1,2-3.62,8.83,8.83,0,0,1,4.15-1.9S380.2,154.68,383.61,157.91Z" style="fill:#e0e0e0"></path><path d="M391.59,200.16a15.39,15.39,0,0,1-1.91-2.07l-2-2.33a7.12,7.12,0,0,0-1.17-1.27,2.91,2.91,0,0,0-1.65-.55c-1.26-.05-2,1.11-2.83,1.89s-1.45,1.62-2,2.27a19.24,19.24,0,0,1-1.9,2.06,12.34,12.34,0,0,1,1.62-2.3c.54-.68,1.19-1.48,2-2.35.38-.43.79-.88,1.26-1.32a2.79,2.79,0,0,1,1.92-.77,3.32,3.32,0,0,1,2,.66,3.53,3.53,0,0,1,.7.69l.55.69c.67.87,1.3,1.67,1.87,2.4A14.72,14.72,0,0,1,391.59,200.16Z" style="fill:#263238"></path><path d="M357,245l9.31-2.92s9.53-6,10.76-6.28,12.1,2.58,13.68,4.6,6.17,8.07,6.17,8.07.33,2.36-1.91,1.57a3.05,3.05,0,0,1-2.8,2.36,5.76,5.76,0,0,1-3.37-.87s.34,2-1.45,2.1S377,250.86,377,250.86l-3.14.06s-7.75,5.7-9.2,5.81-12.56,0-12.56,0-2.24-.73-.45-5.24A13.81,13.81,0,0,1,357,245Z" style="fill:#ffbf9d"></path><path d="M390.78,240.36a4.36,4.36,0,0,1,.48.51l1.28,1.54,4.53,5.62,0,0v.06a1.8,1.8,0,0,1-2.1,2l.27-.27a1.88,1.88,0,0,1-.68,1.76,2.75,2.75,0,0,1-1.85.6c-1.31,0-2.52-.62-3.76-.58l.14-.46a1.46,1.46,0,0,1-.11,2.3,2.83,2.83,0,0,1-2.37.38c-3.32-.9-6.4-1.8-9.25-2.61a7.64,7.64,0,0,0-2-.39,3.66,3.66,0,0,0-1.84.48,30,30,0,0,0-2.91,2.14,23.41,23.41,0,0,1-4.57,2.67c-.57.26-1,.43-1.34.54a1.71,1.71,0,0,1-.49.13s.63-.29,1.74-.85a27.26,27.26,0,0,0,4.44-2.78,27.22,27.22,0,0,1,2.93-2.23,4.07,4.07,0,0,1,2-.56,8.46,8.46,0,0,1,2.17.39l9.23,2.56a2.34,2.34,0,0,0,1.94-.27,1,1,0,0,0,.13-1.49l-.63-.45H389c1.43,0,2.62.61,3.79.6a2.23,2.23,0,0,0,1.53-.48,1.41,1.41,0,0,0,.55-1.29l-.08-.36.35.09a1.39,1.39,0,0,0,1.59-1.46l0,.1-4.39-5.74-1.19-1.6A2.56,2.56,0,0,1,390.78,240.36Z" style="fill:#ff9a6c"></path><path d="M382.88,240.84a6.72,6.72,0,0,1,2.2.4,16,16,0,0,1,4.82,2.44,16.22,16.22,0,0,1,3.73,3.9,6.57,6.57,0,0,1,1,2,20.16,20.16,0,0,0-11.77-8.73Z" style="fill:#ff9a6c"></path><path d="M377.59,244.72a4.33,4.33,0,0,1,2,.06,11.62,11.62,0,0,1,4.34,1.87,20.89,20.89,0,0,1,3.52,3.12,6.43,6.43,0,0,1,1.21,1.52,8.31,8.31,0,0,1-1.47-1.26,29.85,29.85,0,0,0-3.55-2.95,13.64,13.64,0,0,0-4.13-1.94C378.33,244.83,377.59,244.81,377.59,244.72Z" style="fill:#ff9a6c"></path><path d="M341.69,239.13a13.92,13.92,0,0,1,.68-2.78c.5-1.7,1.26-4,2.15-6.55s1.66-4.68,2.3-6.5a18,18,0,0,1,1-2.67,13.76,13.76,0,0,1-.68,2.78c-.5,1.7-1.26,4-2.15,6.56s-1.66,4.67-2.3,6.49A17.47,17.47,0,0,1,341.69,239.13Z" style="fill:#455a64"></path><path d="M427.83,236.93a3.63,3.63,0,0,1-.92.67,12.9,12.9,0,0,1-2.88,1.25,22.38,22.38,0,0,1-4.57.84c-1.74.16-3.65.18-5.65.24a36.37,36.37,0,0,0-5.57.5,16.36,16.36,0,0,0-4.32,1.4,15,15,0,0,0-3.4,2.44,3.6,3.6,0,0,1,.71-.9,10.6,10.6,0,0,1,2.52-1.87,16.17,16.17,0,0,1,4.39-1.54,33.12,33.12,0,0,1,5.66-.55c2-.06,3.91-.06,5.62-.2a24.7,24.7,0,0,0,4.51-.71A21.94,21.94,0,0,0,427.83,236.93Z" style="fill:#455a64"></path><path d="M420.73,213.27c-.14-.05,1.72-5.3,4.14-11.72S429.37,190,429.5,190s-1.72,5.3-4.14,11.72S420.86,213.32,420.73,213.27Z" style="fill:#455a64"></path><rect x="261.96" y="267.1" width="229.41" height="193.21" style="fill:#F49200"></rect><path d="M262,434.2c-.15,0-.26-36.53-.26-81.59S261.81,271,262,271s.26,36.52.26,81.58S262.1,434.2,262,434.2Z" style="fill:#263238"></path><path d="M456.32,417.07v-2.3c0-1.51,0-3.74.05-6.65,0-5.82.11-14.35.19-25.22.2-21.74.47-52.83.8-90.33l.22.22-150.64,0h-1l.26-.26c0,44.81,0,87.09,0,123.79l-.23-.23,108.69.62,30.73.2,8.14.07,2.1,0,.71,0H445.47L414.79,417,306,416.6h-.23v-.23c0-36.7,0-79,0-123.79v-.26h1.25l150.64,0h.22v.22c-.43,37.55-.78,68.69-1,90.45-.13,10.86-.24,19.37-.31,25.18,0,2.89-.07,5.11-.09,6.61S456.32,417.07,456.32,417.07Z" style="fill:#263238"></path><path d="M451.3,410.79s0-.71,0-2.06,0-3.37,0-6c0-5.23,0-12.9-.05-22.68,0-19.53-.07-47.49-.11-81.22l.21.22-139.9,0h0l.26-.26c0,40.43,0,78.63,0,111.94l-.23-.23,101.07.11,28.63.07,7.59,0,1.95,0h0l-1.93,0-7.54,0-28.58.06L311.39,411h-.24v-.23c0-33.31,0-71.51,0-111.94v-.26h.28l139.9.05h.22v.21c0,33.78-.09,61.79-.11,81.36,0,9.75-.05,17.41-.06,22.63,0,2.59,0,4.58,0,5.93S451.3,410.79,451.3,410.79Z" style="fill:#263238"></path><path d="M457.58,293.83a15.49,15.49,0,0,1-3,2.71,15.67,15.67,0,0,1-3.3,2.31,15.87,15.87,0,0,1,3-2.71A15.67,15.67,0,0,1,457.58,293.83Z" style="fill:#263238"></path><path d="M306,292.58a31.24,31.24,0,0,1,5,6.27,15.6,15.6,0,0,1-2.71-3A16,16,0,0,1,306,292.58Z" style="fill:#263238"></path><path d="M306,416.37a14.92,14.92,0,0,1,2.53-3,14.57,14.57,0,0,1,2.91-2.61,14.79,14.79,0,0,1-2.54,3A15,15,0,0,1,306,416.37Z" style="fill:#263238"></path><path d="M456.32,417.07a16.27,16.27,0,0,1-2.71-3,15.67,15.67,0,0,1-2.31-3.3,30.74,30.74,0,0,1,5,6.28Z" style="fill:#263238"></path><rect x="252.9" y="254.34" width="252.69" height="16.68" rx="7.2" style="fill:#F49200"></rect><path d="M261.24,271.18c0-.15,51.65-.27,115.35-.27S492,271,492,271.18s-51.64.26-115.36.26S261.24,271.32,261.24,271.18Z" style="fill:#263238"></path><g style="opacity:0.4"><path d="M428.49,368.47l-15.3-50,.25-.08a2.51,2.51,0,0,0,1.54-2.13h5.6v-1.93h-6.26a2.37,2.37,0,0,0-.73-.55,2.41,2.41,0,0,0-1.13-.26,2.5,2.5,0,0,0-1.29.36,2.36,2.36,0,0,0-.55.45H383.77a3.42,3.42,0,0,0-.25-.57,3.37,3.37,0,0,0-.86-1,3.53,3.53,0,0,0-1.47-.7,3.33,3.33,0,0,0-1.86.16,3,3,0,0,0-.88.5,3.39,3.39,0,0,0-.74.77,3.77,3.77,0,0,0-.45.87H353.15l0-.12a2.06,2.06,0,0,0-.18-.58,2.44,2.44,0,0,0-1.15-1.2,2.69,2.69,0,0,0-1.13-.26,2.51,2.51,0,0,0-1.29.37,2.41,2.41,0,0,0-.56.46,2.24,2.24,0,0,0-.42.63,2.18,2.18,0,0,0-.21.7h-4.47v1.93h5a2.21,2.21,0,0,0,.29.32,2.57,2.57,0,0,0,.63.42l.18.07-18,51.2.11,0a16.46,16.46,0,0,0,11.56,4.81h13.49s6.92-.41,10.09-4.58l.11,0-15.72-51.39.22-.07a2.48,2.48,0,0,0,.94-.68l.08-.11h24.47a2,2,0,0,0,.1.42,3.79,3.79,0,0,0,.48,1,3.61,3.61,0,0,0,.74.77,3.18,3.18,0,0,0,.43.28l-1.59,45.12,1.54,2.45-4.78,6.75v0h0l4.75,6.37,0,0s0,0,0,0a4.35,4.35,0,0,0-2.48,4,4.39,4.39,0,0,0,1.08,2.9l0,0h0v0c-.14-.14-.21-.22-.22-.21a2,2,0,0,0,.2.26c-1.56,3.78-6.68,6.62-7.95,7.07h-.07q-.19.06-.21,0c-1.83,4.8-6.93,5.53-7.19,5.57h0v1.92h37.39v-1.93s-5.33-.65-7.2-5.57c0,0-.09,0-.21,0h.21l-.29,0c-1.27-.45-6.43-3.31-8-7.11a1.86,1.86,0,0,0,.06-.34,3.76,3.76,0,0,0,.24-.38.94.94,0,0,0,.13-.31s-.08.14-.23.36a4.45,4.45,0,0,0,.66-2.32,4.36,4.36,0,0,0-2.5-4h0c.05,0,.09,0,.09,0l-.07,0,4.73-6.35h0l-4.78-6.75,1.52-2.42h0v0h0v0h0l-1.58-45.12a3.7,3.7,0,0,0,.46-.31,3.37,3.37,0,0,0,.86-1,3.63,3.63,0,0,0,.36-.94l0-.16h26a2.89,2.89,0,0,0,0,.29,2.48,2.48,0,0,0,.78,1.37,2.27,2.27,0,0,0,.58.39L393.8,368.24l.11,0h0A16.15,16.15,0,0,0,405.25,373h13.23s6.8-.4,9.9-4.5h0Zm-61.58.08-34.9-.23,18-51.17a1.63,1.63,0,0,0,.3.07,2.35,2.35,0,0,0,.88,0Zm27.12-.27,17.53-49.86a2.52,2.52,0,0,0,1.41.11l15.29,50Z"></path></g><g style="opacity:0.1"><polygon points="279.56 271.05 491.37 425.68 491.37 395.63 314.58 270.88 279.56 271.05" style="fill:#fff"></polygon></g><g style="opacity:0.1"><polygon points="338.58 271.18 491.37 379.73 491.37 370.32 350.96 271.18 338.58 271.18" style="fill:#fff"></polygon></g></g></svg>
